SplineFontDB: 2.0
FontName: THKodchasal
FullName: THKodchasal
FamilyName: TH Kodchasal
Weight: Book
Copyright: Copyright (c) 2006 by Department of Intellectual Property (DIP), Ministry of Commerce and Software Industry Promotion Agency (Public Organization) (SIPA). All rights reserved.
Version: 1.1
ItalicAngle: 0
UnderlinePosition: -35
UnderlineWidth: 30
Ascent: 800
Descent: 200
Order2: 1
XUID: [1021 375 425136265 1643265]
FSType: 0
OS2Version: 3
OS2_WeightWidthSlopeOnly: 0
OS2_UseTypoMetrics: 1
CreationTime: 1157456758
ModificationTime: 1196157179
PfmFamily: 17
TTFWeight: 400
TTFWidth: 5
LineGap: 60
VLineGap: 0
Panose: 2 0 5 6 0 0 0 2 0 4
OS2TypoAscent: 0
OS2TypoAOffset: 1
OS2TypoDescent: 0
OS2TypoDOffset: 1
OS2TypoLinegap: 0
OS2WinAscent: 10
OS2WinAOffset: 1
OS2WinDescent: 4
OS2WinDOffset: 1
HheadAscent: -45
HheadAOffset: 1
HheadDescent: 261
HheadDOffset: 1
OS2SubXSize: 700
OS2SubYSize: 650
OS2SubXOff: 0
OS2SubYOff: 140
OS2SupXSize: 700
OS2SupYSize: 650
OS2SupXOff: 0
OS2SupYOff: 477
OS2StrikeYSize: 30
OS2StrikeYPos: 250
OS2FamilyClass: 773
OS2Vendor: 'IPTH'
Lookup: 4 0 0 "'frac' Diagonal Fractions in Latin lookup 0"  {"'frac' Diagonal Fractions in Latin lookup 0 subtable"  } ['frac' ('latn' <'dflt' > ) ]
Lookup: 6 0 0 "'liga' Standard Ligatures in Latin lookup 1"  {"'liga' Standard Ligatures in Latin lookup 1 subtable"  } ['liga' ('latn' <'dflt' > ) ]
Lookup: 6 0 0 "'liga' Standard Ligatures in Latin lookup 2"  {"'liga' Standard Ligatures in Latin lookup 2 subtable"  } ['liga' ('latn' <'dflt' > ) ]
Lookup: 6 0 0 "'liga' Standard Ligatures in Latin lookup 3"  {"'liga' Standard Ligatures in Latin lookup 3 subtable"  } ['liga' ('latn' <'dflt' > ) ]
Lookup: 6 0 0 "'liga' Standard Ligatures in Latin lookup 4"  {"'liga' Standard Ligatures in Latin lookup 4 subtable"  } ['liga' ('latn' <'dflt' > ) ]
Lookup: 6 0 0 "'liga' Standard Ligatures in Latin lookup 5"  {"'liga' Standard Ligatures in Latin lookup 5 subtable"  } ['liga' ('latn' <'dflt' > ) ]

StartChar: .notdef
Encoding: 65536 -1 0
Width: 736
VWidth: 1473
Flags: W
HStem: 0 52<143 592> 972 52<143 592>
VStem: 93 50<52 972> 592 50<52 972>
Fore
592 52 m 1,0,-1
 592 972 l 1,1,-1
 143 972 l 1,2,-1
 143 52 l 1,3,-1
 592 52 l 1,0,-1
642 0 m 1,4,-1
 93 0 l 1,5,-1
 93 1024 l 1,6,-1
 642 1024 l 1,7,-1
 642 0 l 1,4,-1
EndSplineSet
EndChar
StartChar: numbersign
Encoding: 35 35 4
Width: 674
VWidth: 1473
Flags: W
HStem: 0 21G<166.5 195 372.5 400> 221 56<82.218 192 256 398 463 559.934> 461 56<124.079 234 299 439 505 602.694>
Fore
604 488 m 0,0,1
 600 461 600 461 560 461 c 2,2,-1
 495 461 l 1,3,-1
 463 277 l 1,4,-1
 527 277 l 2,5,6
 566 277 566 277 561 247 c 0,7,8
 557 221 557 221 517 221 c 2,9,-1
 452 221 l 1,10,-1
 420 38 l 2,11,12
 414 0 414 0 386 0 c 0,13,14
 359 0 359 0 365 38 c 2,15,-1
 398 221 l 1,16,-1
 247 221 l 1,17,-1
 215 38 l 2,18,19
 209 0 209 0 181 0 c 0,20,21
 152 0 152 0 161 38 c 2,22,-1
 192 221 l 1,23,-1
 115 221 l 2,24,25
 75 221 75 221 80 247 c 0,26,27
 84 277 84 277 124 277 c 2,28,-1
 202 277 l 1,29,-1
 234 461 l 1,30,-1
 156 461 l 2,31,32
 118 461 118 461 122 488 c 0,33,34
 127 517 127 517 166 517 c 2,35,-1
 245 517 l 1,36,-1
 273 675 l 2,37,38
 278 715 278 715 308 715 c 0,39,40
 333 715 333 715 327 675 c 2,41,-1
 299 517 l 1,42,-1
 449 517 l 1,43,-1
 477 675 l 2,44,45
 483 715 483 715 513 715 c 0,46,47
 539 715 539 715 533 675 c 2,48,-1
 505 517 l 1,49,-1
 569 517 l 2,50,51
 608 517 608 517 604 488 c 0,0,1
290 461 m 1,52,-1
 256 277 l 1,53,-1
 407 277 l 1,54,-1
 439 461 l 1,55,-1
 290 461 l 1,52,-1
EndSplineSet
EndChar
StartChar: dollar
Encoding: 36 36 5
Width: 623
VWidth: 1473
Flags: W
HStem: -6 59<182.967 283 339 378.03> 327 58<217.547 283 339 437.622> 661 58<211.094 283 339 450.374>
VStem: 34 57<455.938 582.92> 283 56<-86.209 -6 53 327 387 661 720 803.229> 539 58<131.402 258.677>
Fore
597 199 m 0,0,1
 597 125 597 125 544 69 c 0,2,3
 473 1 473 1 339 -6 c 1,4,-1
 339 -47 l 2,5,6
 339 -87 339 -87 312 -87 c 0,7,8
 283 -87 283 -87 283 -47 c 2,9,-1
 283 -6 l 1,10,11
 199 1 199 1 133.5 33.5 c 128,-1,12
 68 66 68 66 38 118 c 0,13,14
 31 128 31 128 34 139 c 128,-1,15
 37 150 37 150 49 158 c 0,16,17
 59 164 59 164 70 161 c 128,-1,18
 81 158 81 158 87 147 c 0,19,20
 110 109 110 109 163.5 83 c 128,-1,21
 217 57 217 57 283 53 c 1,22,-1
 283 330 l 1,23,24
 237 334 237 334 193 345.5 c 128,-1,25
 149 357 149 357 113.5 379 c 128,-1,26
 78 401 78 401 56 434 c 128,-1,27
 34 467 34 467 34 514 c 0,28,29
 34 604 34 604 100 658 c 128,-1,30
 166 712 166 712 283 719 c 1,31,-1
 283 765 l 2,32,33
 283 804 283 804 312 804 c 0,34,35
 339 804 339 804 339 765 c 2,36,-1
 339 720 l 1,37,38
 424 716 424 716 492.5 683 c 128,-1,39
 561 650 561 650 592 597 c 0,40,41
 600 586 600 586 596 575 c 128,-1,42
 592 564 592 564 582 557 c 0,43,44
 572 551 572 551 561 554 c 128,-1,45
 550 557 550 557 542 567 c 0,46,47
 519 607 519 607 464.5 633 c 128,-1,48
 410 659 410 659 339 661 c 1,49,-1
 339 385 l 1,50,51
 407 382 407 382 461.5 362 c 128,-1,52
 516 342 516 342 550 308 c 0,53,54
 597 261 597 261 597 199 c 0,0,1
283 661 m 1,55,56
 245 659 245 659 210 649 c 128,-1,57
 175 639 175 639 148.5 622 c 128,-1,58
 122 605 122 605 106.5 578.5 c 128,-1,59
 91 552 91 552 91 514 c 0,60,61
 91 480 91 480 109 457.5 c 128,-1,62
 127 435 127 435 155 421 c 128,-1,63
 183 407 183 407 216.5 399.5 c 128,-1,64
 250 392 250 392 283 387 c 1,65,-1
 283 661 l 1,55,56
539 199 m 256,66,67
 539 237 539 237 510 267 c 0,68,69
 483 293 483 293 439 308.5 c 128,-1,70
 395 324 395 324 339 327 c 1,71,-1
 339 52 l 1,72,73
 376 53 376 53 412 62.5 c 128,-1,74
 448 72 448 72 476.5 90 c 128,-1,75
 505 108 505 108 522 134.5 c 128,-1,76
 539 161 539 161 539 199 c 256,66,67
EndSplineSet
EndChar
StartChar: percent
Encoding: 37 37 6
Width: 593
VWidth: 1473
Flags: W
HStem: 0 43<363.409 479.886> 221 44<363.829 478.746> 486 44<112.04 228.461> 709 42<112.04 228.461>
VStem: 38 43<560.863 677.877> 259 44<560.442 679.009> 289 44<73.7495 190.231> 510 44<73.7495 190.231>
Fore
303 619 m 0,0,1
 303 564 303 564 265 525 c 128,-1,2
 227 486 227 486 171 486 c 256,3,4
 115 486 115 486 76.5 525 c 128,-1,5
 38 564 38 564 38 619 c 0,6,7
 38 675 38 675 76.5 713 c 128,-1,8
 115 751 115 751 171 751 c 256,9,10
 227 751 227 751 265 713 c 128,-1,11
 303 675 303 675 303 619 c 0,0,1
93 9 m 2,12,13
 80 -12 80 -12 59 1 c 0,14,15
 50 7 50 7 47 17 c 128,-1,16
 44 27 44 27 50 35 c 2,17,-1
 489 742 l 2,18,19
 502 763 502 763 523 750 c 0,20,21
 532 744 532 744 534 734.5 c 128,-1,22
 536 725 536 725 532 716 c 2,23,-1
 93 9 l 2,12,13
554 133 m 0,24,25
 554 77 554 77 515.5 38.5 c 128,-1,26
 477 0 477 0 421 0 c 256,27,28
 365 0 365 0 327 38.5 c 128,-1,29
 289 77 289 77 289 133 c 0,30,31
 289 187 289 187 327 226 c 128,-1,32
 365 265 365 265 421 265 c 256,33,34
 477 265 477 265 515.5 226 c 128,-1,35
 554 187 554 187 554 133 c 0,24,25
259 619 m 0,36,37
 259 657 259 657 233.5 683 c 128,-1,38
 208 709 208 709 171 709 c 0,39,40
 133 709 133 709 107 683 c 128,-1,41
 81 657 81 657 81 619 c 0,42,43
 81 582 81 582 107 556 c 128,-1,44
 133 530 133 530 171 530 c 0,45,46
 208 530 208 530 233.5 556 c 128,-1,47
 259 582 259 582 259 619 c 0,36,37
510 133 m 0,48,49
 510 169 510 169 484 195 c 128,-1,50
 458 221 458 221 421 221 c 256,51,52
 385 221 385 221 359 195 c 128,-1,53
 333 169 333 169 333 133 c 0,54,55
 333 94 333 94 359 68.5 c 128,-1,56
 385 43 385 43 421 43 c 256,57,58
 458 43 458 43 484 68.5 c 128,-1,59
 510 94 510 94 510 133 c 0,48,49
EndSplineSet
EndChar
StartChar: ampersand
Encoding: 38 38 7
Width: 769
VWidth: 1473
Flags: W
HStem: -7 21G<237 319> 709 51<328.431 420.688>
VStem: 177 59<585.562 638.368>
Fore
716 28 m 1,0,1
 716 19 716 19 703 10 c 0,2,3
 687 -1 687 -1 673 6 c 128,-1,4
 659 13 659 13 653 21 c 0,5,6
 651 22 651 22 638.5 34.5 c 128,-1,7
 626 47 626 47 610.5 62.5 c 128,-1,8
 595 78 595 78 580.5 93 c 128,-1,9
 566 108 566 108 560 113 c 1,10,11
 541 94 l 2,12,13
 522 75 522 75 487 53 c 128,-1,14
 452 31 452 31 401.5 12 c 128,-1,15
 351 -7 351 -7 287 -7 c 0,16,17
 187 -7 187 -7 124 56 c 0,18,19
 63 116 63 116 63 205 c 0,20,21
 63 261 63 261 89 306 c 128,-1,22
 115 351 115 351 148 382.5 c 128,-1,23
 181 414 181 414 212 433 c 128,-1,24
 243 452 243 452 255 457 c 1,25,26
 246 466 246 466 233.5 480 c 128,-1,27
 221 494 221 494 209 513 c 128,-1,28
 197 532 197 532 187.5 554.5 c 128,-1,29
 178 577 178 577 177 603 c 0,30,31
 174 638 174 638 190 667.5 c 128,-1,32
 206 697 206 697 233.5 717.5 c 128,-1,33
 261 738 261 738 295 749 c 128,-1,34
 329 760 329 760 362 760 c 0,35,36
 398 760 398 760 429 751 c 128,-1,37
 460 742 460 742 483.5 724.5 c 128,-1,38
 507 707 507 707 521 680.5 c 128,-1,39
 535 654 535 654 535 619 c 0,40,41
 535 535 535 535 436 482 c 0,42,43
 401 461 401 461 383 451.5 c 128,-1,44
 365 442 365 442 355 438 c 1,45,46
 362 429 362 429 384.5 404 c 128,-1,47
 407 379 407 379 435.5 347 c 128,-1,48
 464 315 464 315 495.5 279 c 128,-1,49
 527 243 527 243 555 212 c 1,50,51
 560 218 560 218 566.5 239.5 c 128,-1,52
 573 261 573 261 579.5 286.5 c 128,-1,53
 586 312 586 312 591.5 338.5 c 128,-1,54
 597 365 597 365 598 385 c 0,55,56
 601 402 601 402 611.5 411.5 c 128,-1,57
 622 421 622 421 642 415 c 0,58,59
 664 408 664 408 661 379 c 0,60,61
 657 339 657 339 647.5 303 c 128,-1,62
 638 267 638 267 627.5 238 c 128,-1,63
 617 209 617 209 609 190 c 128,-1,64
 601 171 601 171 598 165 c 1,65,66
 598 166 598 166 607 156.5 c 128,-1,67
 616 147 616 147 631.5 131 c 128,-1,68
 647 115 647 115 667 94.5 c 128,-1,69
 687 74 687 74 706 53 c 0,70,71
 717 38 717 38 716 28 c 1,0,1
309 477 m 1,72,73
 326 485 326 485 355.5 499 c 128,-1,74
 385 513 385 513 412.5 532 c 128,-1,75
 440 551 440 551 460 573 c 128,-1,76
 480 595 480 595 477 620 c 0,77,78
 473 654 473 654 444 681.5 c 128,-1,79
 415 709 415 709 361 709 c 0,80,81
 342 709 342 709 319 702 c 128,-1,82
 296 695 296 695 277 682.5 c 128,-1,83
 258 670 258 670 246 651.5 c 128,-1,84
 234 633 234 633 236 611 c 0,85,86
 236 589 236 589 246 567 c 128,-1,87
 256 545 256 545 268.5 526.5 c 128,-1,88
 281 508 281 508 293 495 c 128,-1,89
 305 482 305 482 309 477 c 1,72,73
522 158 m 1,90,91
 520 162 520 162 495 190 c 0,92,93
 474 215 474 215 428.5 266.5 c 128,-1,94
 383 318 383 318 298 415 c 1,95,96
 289 411 289 411 261 395.5 c 128,-1,97
 233 380 233 380 202.5 355.5 c 128,-1,98
 172 331 172 331 148 298 c 128,-1,99
 124 265 124 265 121 224 c 0,100,101
 116 150 116 150 158 105 c 0,102,103
 190 71 190 71 240 59 c 128,-1,104
 290 47 290 47 343 55 c 128,-1,105
 396 63 396 63 444 89 c 128,-1,106
 492 115 492 115 522 158 c 1,90,91
EndSplineSet
EndChar
StartChar: quotesingle
Encoding: 39 39 8
Width: 197
VWidth: 1473
Flags: W
HStem: 474 248<65.2266 117.81>
VStem: 63 59<486.411 721.249>
Fore
122 514 m 1,0,1
 124 495 124 495 118 485.5 c 128,-1,2
 112 476 112 476 94 474 c 0,3,4
 63 474 63 474 63 514 c 2,5,-1
 63 684 l 2,6,7
 62 722 62 722 93 722 c 0,8,9
 121 722 121 722 121 684 c 2,10,-1
 122 514 l 1,0,1
EndSplineSet
EndChar
StartChar: parenleft
Encoding: 40 40 9
Width: 294
VWidth: 1473
Flags: W
VStem: 93 54<181.3 402.044>
Fore
206 -140 m 2,0,1
 211 -152 211 -152 207 -162 c 128,-1,2
 203 -172 203 -172 192 -177 c 0,3,4
 181 -181 181 -181 171 -176.5 c 128,-1,5
 161 -172 161 -172 158 -161 c 2,6,7
 156 -159 156 -159 146 -125 c 128,-1,8
 136 -91 136 -91 124 -31.5 c 128,-1,9
 112 28 112 28 102.5 110.5 c 128,-1,10
 93 193 93 193 93 292 c 256,11,12
 93 390 93 390 102.5 472.5 c 128,-1,13
 112 555 112 555 124 614 c 128,-1,14
 136 673 136 673 146 706.5 c 128,-1,15
 156 740 156 740 158 742 c 1,16,17
 161 754 161 754 171 758.5 c 128,-1,18
 181 763 181 763 192 759 c 0,19,20
 203 754 203 754 207 744 c 128,-1,21
 211 734 211 734 206 722 c 2,22,23
 196.5 690.5 l 2,24,25
 187 659 187 659 176 602 c 128,-1,26
 165 545 165 545 156 465.5 c 128,-1,27
 147 386 147 386 147 292 c 256,28,29
 147 197 147 197 156 118.5 c 128,-1,30
 165 40 165 40 176 -17.5 c 128,-1,31
 187 -75 187 -75 196.5 -106.5 c 128,-1,32
 206 -138 206 -138 206 -140 c 2,0,1
EndSplineSet
EndChar
StartChar: parenright
Encoding: 41 41 10
Width: 294
VWidth: 1473
Flags: W
VStem: 149 53<182.629 400.712>
Fore
202 292 m 256,0,1
 202 193 202 193 192.5 110.5 c 128,-1,2
 183 28 183 28 171 -31.5 c 128,-1,3
 159 -91 159 -91 149.5 -125 c 128,-1,4
 140 -159 140 -159 138 -161 c 2,5,6
 134 -172 134 -172 124.5 -176.5 c 128,-1,7
 115 -181 115 -181 103 -177 c 0,8,9
 93 -172 93 -172 88.5 -162 c 128,-1,10
 84 -152 84 -152 88 -140 c 2,11,12
 98 -107.5 l 2,13,14
 108 -75 108 -75 119 -17.5 c 128,-1,15
 130 40 130 40 139.5 118.5 c 128,-1,16
 149 197 149 197 149 292 c 256,17,18
 149 386 149 386 139.5 465.5 c 128,-1,19
 130 545 130 545 119 602 c 128,-1,20
 108 659 108 659 98 689.5 c 128,-1,21
 88 720 88 720 88 722 c 2,22,23
 84 734 84 734 88.5 744 c 128,-1,24
 93 754 93 754 103 759 c 0,25,26
 115 763 115 763 124.5 758.5 c 128,-1,27
 134 754 134 754 138 742 c 0,28,29
 140 740 140 740 149.5 706.5 c 128,-1,30
 159 673 159 673 171 614 c 128,-1,31
 183 555 183 555 192.5 472.5 c 128,-1,32
 202 390 202 390 202 292 c 256,0,1
EndSplineSet
EndChar
StartChar: asterisk
Encoding: 42 42 11
Width: 674
VWidth: 1473
Flags: W
HStem: 314 430<329.25 347.835>
VStem: 312 50<325.96 387.095 680.626 733.3> 312 36<336 508>
Fore
519 424 m 1,0,1
 520 415 520 415 514 407 c 128,-1,2
 508 399 508 399 499.5 395.5 c 128,-1,3
 491 392 491 392 482 398 c 0,4,5
 463 411 463 411 448 423.5 c 128,-1,6
 433 436 433 436 418.5 449.5 c 128,-1,7
 404 463 404 463 387 477 c 128,-1,8
 370 491 370 491 348 508 c 1,9,10
 349 480 349 480 351.5 458 c 128,-1,11
 354 436 354 436 355 426.5 c 0,12,13
 359 388 l 0,14,15
 362 359 362 359 362 336 c 0,16,17
 362 327 362 327 354 320.5 c 128,-1,18
 346 314 346 314 337 314 c 0,19,20
 330 314 330 314 321 320.5 c 128,-1,21
 312 327 312 327 312 336 c 0,22,23
 312 382 312 382 319 417 c 128,-1,24
 326 452 326 452 329 508 c 1,25,26
 305 492 305 492 288 478 c 128,-1,27
 271 464 271 464 263.5 457.5 c 0,28,-1
 234 431 l 0,29,30
 212 411 212 411 193 398 c 1,31,32
 187 392 187 392 176 395 c 128,-1,33
 165 398 165 398 162 405 c 1,34,35
 156 412 156 412 157 422 c 128,-1,36
 158 432 158 432 165 438 c 0,37,38
 203 466 203 466 237 482.5 c 128,-1,39
 271 499 271 499 320 529 c 1,40,41
 295 544 295 544 275 555 c 128,-1,42
 255 566 255 566 246 571 c 0,43,-1
 210.5 591.5 l 0,44,45
 184 607 184 607 165 620 c 0,46,47
 158 626 158 626 157 635.5 c 128,-1,48
 156 645 156 645 162 653 c 1,49,50
 165 659 165 659 176 663 c 128,-1,51
 187 667 187 667 193 661 c 1,52,53
 212 648 212 648 227.5 635 c 128,-1,54
 243 622 243 622 257 608.5 c 128,-1,55
 271 595 271 595 288 581 c 128,-1,56
 305 567 305 567 329 550 c 1,57,58
 327 577 327 577 325 599.5 c 128,-1,59
 323 622 323 622 320 641 c 128,-1,60
 317 660 317 660 314.5 680 c 128,-1,61
 312 700 312 700 312 723 c 0,62,63
 312 732 312 732 320.5 738 c 128,-1,64
 329 744 329 744 337 744 c 0,65,66
 348 744 348 744 355 738 c 128,-1,67
 362 732 362 732 362 723 c 0,68,69
 362 700 362 700 360 680 c 128,-1,70
 358 660 358 660 356 641 c 128,-1,71
 354 622 354 622 351.5 599.5 c 128,-1,72
 349 577 349 577 348 550 c 1,73,74
 371 567 371 567 387.5 581 c 128,-1,75
 404 595 404 595 418.5 608.5 c 128,-1,76
 433 622 433 622 448 634.5 c 128,-1,77
 463 647 463 647 482 660 c 0,78,79
 489 666 489 666 498.5 663 c 128,-1,80
 508 660 508 660 514 653 c 0,81,82
 527 635 527 635 511 619 c 1,83,84
 491 605 491 605 482 600.5 c 0,85,-1
 446.5 581.5 l 0,86,87
 420 567 420 567 400 555.5 c 128,-1,88
 380 544 380 544 357 529 c 1,89,90
 380 513 380 513 400 502.5 c 128,-1,91
 420 492 420 492 437.5 482.5 c 128,-1,92
 455 473 455 473 473 462.5 c 128,-1,93
 491 452 491 452 511 439 c 1,94,-1
 519 424 l 1,0,1
EndSplineSet
EndChar
StartChar: plus
Encoding: 43 43 12
Width: 606
VWidth: 1473
Flags: W
HStem: 25 458<277.117 329.166> 224 56<81.791 275 331 525.209>
VStem: 81 445<226.046 278.095> 275 56<25.9766 224 280 482.023>
Fore
526 253 m 0,0,1
 526 224 526 224 486 224 c 2,2,-1
 331 224 l 1,3,-1
 331 65 l 2,4,5
 331 25 331 25 305 25 c 0,6,7
 275 25 275 25 275 65 c 2,8,-1
 275 224 l 1,9,-1
 121 224 l 2,10,11
 81 224 81 224 81 253 c 0,12,13
 81 280 81 280 121 280 c 2,14,-1
 275 280 l 1,15,-1
 275 443 l 2,16,17
 275 483 275 483 305 483 c 0,18,19
 331 483 331 483 331 443 c 2,20,-1
 331 280 l 1,21,-1
 486 280 l 2,22,23
 526 280 526 280 526 253 c 0,0,1
EndSplineSet
EndChar
StartChar: comma
Encoding: 44 44 13
Width: 293
VWidth: 1473
Flags: W
HStem: -108 221<95 119 119 119>
VStem: 73.5 141.5<-85.5 60 -85.5 -85.5>
Fore
81 52 m 0,0,1
 81 72 81 72 92 89 c 128,-1,2
 103 106 103 106 119 113 c 0,3,4
 152 127 152 127 180.5 110.5 c 128,-1,5
 209 94 209 94 215 60 c 0,6,7
 221 32 221 32 214.5 5.5 c 128,-1,8
 208 -21 208 -21 193 -43.5 c 128,-1,9
 178 -66 178 -66 159 -83 c 128,-1,10
 140 -100 140 -100 121 -106 c 0,11,12
 106 -110 106 -110 95 -108 c 128,-1,13
 84 -106 84 -106 78 -100 c 128,-1,14
 72 -94 72 -94 73.5 -85.5 c 128,-1,15
 75 -77 75 -77 87 -69 c 1,16,17
 108 -60 108 -60 132 -45.5 c 128,-1,18
 156 -31 156 -31 165 0 c 1,19,20
 156 -6 156 -6 149 -6 c 0,21,22
 119 -9 119 -9 100 9 c 128,-1,23
 81 27 81 27 81 52 c 0,0,1
EndSplineSet
EndChar
StartChar: hyphen
Encoding: 45 45 14
Width: 515
VWidth: 1473
Flags: W
HStem: 225 56<82.625 431.375 122 392 122 122>
VStem: 82 350<226.976 279.024>
Fore
432 253 m 256,0,1
 432 225 432 225 392 225 c 2,2,-1
 122 225 l 2,3,4
 82 225 82 225 82 253 c 256,5,6
 82 281 82 281 122 281 c 2,7,-1
 392 281 l 2,8,9
 432 281 432 281 432 253 c 256,0,1
EndSplineSet
EndChar
StartChar: period
Encoding: 46 46 15
Width: 297
VWidth: 1473
Flags: W
HStem: 1 124<109.08 194.92>
VStem: 90 124<20.0797 105.92>
Fore
90 63 m 256,0,1
 90 88 90 88 108.5 106.5 c 128,-1,2
 127 125 127 125 152 125 c 256,3,4
 177 125 177 125 195.5 106.5 c 128,-1,5
 214 88 214 88 214 63 c 256,6,7
 214 38 214 38 195.5 19.5 c 128,-1,8
 177 1 177 1 152 1 c 256,9,10
 127 1 127 1 108.5 19.5 c 128,-1,11
 90 38 90 38 90 63 c 256,0,1
EndSplineSet
EndChar
StartChar: slash
Encoding: 47 47 16
Width: 484
VWidth: 1473
Flags: W
VStem: 46.5 387.5<-72.5 696.5 -72.5 -72.5>
Fore
93 -75 m 2,0,1
 88 -84 88 -84 78.5 -87.5 c 128,-1,2
 69 -91 69 -91 60 -87 c 0,3,4
 50 -82 50 -82 46.5 -72.5 c 128,-1,5
 43 -63 43 -63 47 -55 c 2,6,-1
 387 698 l 2,7,8
 392 707 392 707 401.5 711 c 128,-1,9
 411 715 411 715 421 710 c 0,10,11
 430 706 430 706 434 696.5 c 128,-1,12
 438 687 438 687 433 678 c 2,13,-1
 93 -75 l 2,0,1
EndSplineSet
EndChar
StartChar: zero
Encoding: 48 48 17
Width: 658
VWidth: 1473
Flags: W
HStem: -3 63<234.061 425.332> 654 63<262.776 427.716>
VStem: 59 63<253.665 473.082> 538 63<254.257 461.298>
Fore
601 357 m 256,0,1
 601 281 601 281 587 215.5 c 128,-1,2
 573 150 573 150 540.5 101.5 c 128,-1,3
 508 53 508 53 456.5 25 c 128,-1,4
 405 -3 405 -3 330 -3 c 256,5,6
 255 -3 255 -3 203.5 25 c 128,-1,7
 152 53 152 53 120 101.5 c 128,-1,8
 88 150 88 150 73.5 215.5 c 128,-1,9
 59 281 59 281 59 357 c 0,10,11
 59 476 59 476 90 547.5 c 128,-1,12
 121 619 121 619 164.5 656.5 c 128,-1,13
 208 694 208 694 253.5 705.5 c 128,-1,14
 299 717 299 717 330 717 c 0,15,16
 405 717 405 717 456.5 689 c 128,-1,17
 508 661 508 661 540.5 612 c 128,-1,18
 573 563 573 563 587 497.5 c 128,-1,19
 601 432 601 432 601 357 c 256,0,1
538 357 m 0,20,21
 538 418 538 418 528.5 472.5 c 128,-1,22
 519 527 519 527 495 567.5 c 128,-1,23
 471 608 471 608 430.5 631 c 128,-1,24
 390 654 390 654 330 654 c 256,25,26
 270 654 270 654 230 630.5 c 128,-1,27
 190 607 190 607 165.5 567 c 128,-1,28
 141 527 141 527 131.5 472.5 c 128,-1,29
 122 418 122 418 122 357 c 256,30,31
 122 295 122 295 132.5 241 c 128,-1,32
 143 187 143 187 166.5 147.5 c 128,-1,33
 190 108 190 108 230 84 c 128,-1,34
 270 60 270 60 330 60 c 0,35,36
 395 60 395 60 435.5 88 c 128,-1,37
 476 116 476 116 499 159 c 128,-1,38
 522 202 522 202 530 255 c 128,-1,39
 538 308 538 308 538 357 c 0,20,21
EndSplineSet
EndChar
StartChar: one
Encoding: 49 49 18
Width: 478
VWidth: 1473
Flags: W
HStem: 0 21G<289.5 302.5>
VStem: 264 65<17.9606 647>
Fore
329 31 m 1,0,1
 329 19 329 19 319 9.5 c 128,-1,2
 309 0 309 0 296 0 c 256,3,4
 283 0 283 0 273.5 9.5 c 128,-1,5
 264 19 264 19 264 31 c 2,6,-1
 264 647 l 1,7,-1
 119 591 l 2,8,9
 108 586 108 586 95 592 c 128,-1,10
 82 598 82 598 78 610 c 256,11,12
 74 622 74 622 79.5 634.5 c 128,-1,13
 85 647 85 647 97 651 c 2,14,-1
 284 722 l 1,15,16
 299 725 299 725 309 720 c 0,17,18
 318 717 318 717 324.5 707 c 128,-1,19
 331 697 331 697 329 675 c 2,20,-1
 329 31 l 1,0,1
EndSplineSet
EndChar
StartChar: two
Encoding: 50 50 19
Width: 642
VWidth: 1473
Flags: W
HStem: 0 63<164 566.686> 657 60<228.386 405.115>
VStem: 71 60<469.783 544.031>
Fore
583 32 m 0,0,1
 583 19 583 19 574.5 9.5 c 128,-1,2
 566 0 566 0 552 0 c 2,3,-1
 91 0 l 2,4,5
 80 0 80 0 71.5 7.5 c 128,-1,6
 63 15 63 15 60 25 c 128,-1,7
 57 35 57 35 59.5 46 c 128,-1,8
 62 57 62 57 71 65 c 2,9,-1
 458 386 l 2,10,11
 499 421 499 421 513 467.5 c 128,-1,12
 527 514 527 514 511 557 c 0,13,14
 494 603 494 603 443 630 c 128,-1,15
 392 657 392 657 336 657 c 0,16,17
 274 657 274 657 235 641.5 c 128,-1,18
 196 626 196 626 174 601 c 128,-1,19
 152 576 152 576 142.5 545 c 128,-1,20
 133 514 133 514 131 482 c 0,21,22
 130 468 130 468 120 459.5 c 128,-1,23
 110 451 110 451 97 452 c 256,24,25
 84 454 84 454 77.5 464 c 128,-1,26
 71 474 71 474 71 486 c 0,27,28
 88 717 88 717 336 717 c 0,29,30
 373 717 373 717 409 707 c 128,-1,31
 445 697 445 697 476 678.5 c 128,-1,32
 507 660 507 660 530.5 634 c 128,-1,33
 554 608 554 608 567 576 c 0,34,35
 591 514 591 514 570.5 452 c 128,-1,36
 550 390 550 390 494 339 c 2,37,-1
 164 63 l 1,38,-1
 552 63 l 2,39,40
 566 63 566 63 574.5 53.5 c 128,-1,41
 583 44 583 44 583 32 c 0,0,1
EndSplineSet
EndChar
StartChar: three
Encoding: 51 51 20
Width: 624
VWidth: 1473
Flags: W
HStem: -15 59<265.967 375.709> 351 60<234.466 410> 672 60<262.903 398.461>
VStem: 52 63<135.94 220.686 528.696 596.626> 505 61<126.846 212.727 212.727 235.5 235.5 264.741>
Fore
566 190 m 0,0,1
 561 138 561 138 538.5 100 c 128,-1,2
 516 62 516 62 480.5 37 c 128,-1,3
 445 12 445 12 401 -1.5 c 128,-1,4
 357 -15 357 -15 308 -15 c 0,5,6
 267 -15 267 -15 222 -3 c 128,-1,7
 177 9 177 9 139.5 35.5 c 128,-1,8
 102 62 102 62 77 104 c 128,-1,9
 52 146 52 146 52 206 c 0,10,11
 52 220 52 220 61.5 228.5 c 128,-1,12
 71 237 71 237 84 237 c 256,13,14
 97 237 97 237 106 228.5 c 128,-1,15
 115 220 115 220 115 206 c 0,16,17
 115 165 115 165 132 135 c 128,-1,18
 149 105 149 105 176 85 c 128,-1,19
 203 65 203 65 238 54.5 c 128,-1,20
 273 44 273 44 308 44 c 0,21,22
 345 44 345 44 378.5 53 c 128,-1,23
 412 62 412 62 439.5 80.5 c 128,-1,24
 467 99 467 99 484.5 126 c 128,-1,25
 502 153 502 153 505 190 c 0,26,27
 507 212 507 212 505.5 235.5 c 128,-1,28
 504 259 504 259 495 281 c 128,-1,29
 486 303 486 303 467 321.5 c 128,-1,30
 448 340 448 340 415 351 c 1,31,-1
 247 351 l 2,32,33
 236 351 236 351 226.5 358 c 128,-1,34
 217 365 217 365 217 379 c 256,35,36
 217 392 217 392 226.5 401.5 c 128,-1,37
 236 411 236 411 247 411 c 2,38,-1
 410 411 l 1,39,40
 461 439 461 439 475 483 c 128,-1,41
 489 527 489 527 473 569 c 128,-1,42
 457 611 457 611 413.5 641.5 c 128,-1,43
 370 672 370 672 306 672 c 0,44,45
 273 672 273 672 240.5 664 c 128,-1,46
 208 656 208 656 181.5 640.5 c 128,-1,47
 155 625 155 625 136.5 600.5 c 128,-1,48
 118 576 118 576 112 544 c 0,49,50
 109 530 109 530 103 521.5 c 128,-1,51
 97 513 97 513 81 514 c 0,52,53
 68 514 68 514 60 523 c 128,-1,54
 52 532 52 532 53 545 c 0,55,56
 55 572 55 572 69.5 604 c 128,-1,57
 84 636 84 636 113.5 664 c 128,-1,58
 143 692 143 692 190 711.5 c 128,-1,59
 237 731 237 731 306 732 c 0,60,61
 387 734 387 734 445.5 697 c 128,-1,62
 504 660 504 660 529 606 c 128,-1,63
 554 552 554 552 543 492 c 128,-1,64
 532 432 532 432 476 386 c 1,65,66
 523 359 523 359 547.5 310 c 128,-1,67
 572 261 572 261 566 190 c 0,0,1
EndSplineSet
EndChar
StartChar: four
Encoding: 52 52 21
Width: 654
VWidth: 1473
Flags: W
HStem: 0 21G<469 485.5> 143 59<136 446 507 583.697>
VStem: 446 61<16.1112 143 202 607>
Fore
601 174 m 256,0,1
 601 161 601 161 591.5 152 c 128,-1,2
 582 143 582 143 570 143 c 2,3,-1
 507 143 l 1,4,-1
 507 32 l 2,5,6
 507 19 507 19 500.5 9.5 c 128,-1,7
 494 0 494 0 477 0 c 256,8,9
 461 0 461 0 453.5 9.5 c 128,-1,10
 446 19 446 19 446 32 c 2,11,-1
 446 143 l 1,12,-1
 69 143 l 1,13,-1
 68 143 l 2,14,15
 47 143 47 143 39.5 161.5 c 128,-1,16
 32 180 32 180 44 194 c 2,17,-1
 454 710 l 1,18,19
 470 722 470 722 488.5 714.5 c 128,-1,20
 507 707 507 707 507 687 c 2,21,-1
 507 202 l 1,22,-1
 570 202 l 2,23,24
 582 202 582 202 591.5 194.5 c 128,-1,25
 601 187 601 187 601 174 c 256,0,1
446 607 m 1,26,-1
 136 202 l 1,27,-1
 446 202 l 1,28,-1
 446 607 l 1,26,-1
EndSplineSet
EndChar
StartChar: five
Encoding: 53 53 22
Width: 651
VWidth: 1473
Flags: W
HStem: -3.5 58<226.824 371.49> 654 61<190 544.349>
VStem: 60 59<134.058 223.031>
Fore
579 174 m 0,0,1
 561 109 561 109 515.5 65 c 128,-1,2
 470 21 470 21 404 4 c 0,3,4
 351 -10 351 -10 295.5 -3.5 c 128,-1,5
 240 3 240 3 192 28 c 128,-1,6
 144 53 144 53 109 97 c 128,-1,7
 74 141 74 141 60 203 c 0,8,9
 57 215 57 215 65.5 226 c 128,-1,10
 74 237 74 237 85 240 c 0,11,12
 115 245 115 245 119 217 c 0,13,14
 130 168 130 168 157 133.5 c 128,-1,15
 184 99 184 99 221 79 c 128,-1,16
 258 59 258 59 302 54.5 c 128,-1,17
 346 50 346 50 389 62 c 0,18,19
 423 71 423 71 445.5 86.5 c 128,-1,20
 468 102 468 102 483.5 120 c 128,-1,21
 499 138 499 138 507.5 156.5 c 128,-1,22
 516 175 516 175 520 189 c 0,23,24
 538 252 538 252 527.5 300 c 128,-1,25
 517 348 517 348 488.5 379.5 c 128,-1,26
 460 411 460 411 418 426.5 c 128,-1,27
 376 442 376 442 330 442.5 c 128,-1,28
 284 443 284 443 240 427.5 c 128,-1,29
 196 412 196 412 164 383 c 0,30,31
 155 374 155 374 144 362.5 c 128,-1,32
 133 351 133 351 116 354 c 0,33,34
 103 357 103 357 95 367 c 128,-1,35
 87 377 87 377 90 389 c 2,36,-1
 138 715 l 1,37,-1
 530 715 l 2,38,39
 544 715 544 715 552.5 705 c 128,-1,40
 561 695 561 695 561 682 c 0,41,42
 561 670 561 670 552.5 662 c 128,-1,43
 544 654 544 654 530 654 c 2,44,-1
 190 654 l 1,45,-1
 161 451 l 1,46,47
 214 485 214 485 271.5 496.5 c 128,-1,48
 329 508 329 508 381 500 c 128,-1,49
 433 492 433 492 478 465.5 c 128,-1,50
 523 439 523 439 551 397 c 128,-1,51
 579 355 579 355 588 298.5 c 128,-1,52
 597 242 597 242 579 174 c 0,0,1
EndSplineSet
EndChar
StartChar: six
Encoding: 54 54 23
Width: 674
VWidth: 1473
Flags: W
HStem: -18 61<274.797 433.734> 415 59<263.23 433.376> 664 68<268.32 412.483>
VStem: 59 69<354 458.767> 550 64<157.063 297.937>
Fore
614 233 m 0,0,1
 617 180 617 180 596 133.5 c 128,-1,2
 575 87 575 87 537 54 c 128,-1,3
 499 21 499 21 447 1.5 c 128,-1,4
 395 -18 395 -18 336 -18 c 0,5,6
 258 -18 258 -18 205 10 c 128,-1,7
 152 38 152 38 118.5 88 c 128,-1,8
 85 138 85 138 71 206 c 128,-1,9
 57 274 57 274 59 352 c 0,10,11
 60 438 60 438 82.5 507.5 c 128,-1,12
 105 577 105 577 144.5 627.5 c 128,-1,13
 184 678 184 678 241 705 c 128,-1,14
 298 732 298 732 371 732 c 0,15,16
 414 732 414 732 452.5 719.5 c 128,-1,17
 491 707 491 707 520.5 687 c 128,-1,18
 550 667 550 667 571 641.5 c 128,-1,19
 592 616 592 616 601 591 c 0,20,21
 605 575 605 575 601 561.5 c 128,-1,22
 597 548 597 548 583 544 c 0,23,24
 550 533 550 533 535 566 c 0,25,26
 529 583 529 583 514 600 c 128,-1,27
 499 617 499 617 478.5 632 c 128,-1,28
 458 647 458 647 431 655.5 c 128,-1,29
 404 664 404 664 371 664 c 0,30,31
 301 664 301 664 254.5 634.5 c 128,-1,32
 208 605 208 605 180 560.5 c 128,-1,33
 152 516 152 516 141 460.5 c 128,-1,34
 130 405 130 405 128 354 c 1,35,36
 166 415 166 415 223.5 444.5 c 128,-1,37
 281 474 281 474 349 474 c 0,38,39
 421 474 421 474 471.5 453 c 128,-1,40
 522 432 522 432 552.5 397 c 128,-1,41
 583 362 583 362 597 318.5 c 128,-1,42
 611 275 611 275 614 233 c 0,0,1
550 228 m 0,43,44
 550 265 550 265 533.5 299 c 128,-1,45
 517 333 517 333 490 359 c 128,-1,46
 463 385 463 385 426.5 400 c 128,-1,47
 390 415 390 415 349 415 c 256,48,49
 308 415 308 415 270.5 400.5 c 128,-1,50
 233 386 233 386 204 360 c 128,-1,51
 175 334 175 334 158 299 c 128,-1,52
 141 264 141 264 141 222 c 128,-1,53
 141 180 141 180 158 146 c 128,-1,54
 175 112 175 112 204 89 c 128,-1,55
 233 66 233 66 270.5 54.5 c 128,-1,56
 308 43 308 43 349 43 c 256,57,58
 390 43 390 43 426.5 57.5 c 128,-1,59
 463 72 463 72 490 97 c 128,-1,60
 517 122 517 122 533.5 156 c 128,-1,61
 550 190 550 190 550 228 c 0,43,44
EndSplineSet
EndChar
StartChar: seven
Encoding: 55 55 24
Width: 598
VWidth: 1473
Flags: W
HStem: 653 63<61.9614 476>
VStem: 44 497<670.631 698.204>
Fore
194 13 m 2,0,1
 187 1 187 1 175.5 -2.5 c 128,-1,2
 164 -6 164 -6 152 1 c 256,3,4
 140 9 140 9 136.5 20.5 c 128,-1,5
 133 32 133 32 140 44 c 2,6,-1
 476 653 l 1,7,-1
 77 653 l 2,8,9
 63 653 63 653 53.5 662.5 c 128,-1,10
 44 672 44 672 44 684 c 0,11,12
 44 697 44 697 53.5 706.5 c 128,-1,13
 63 716 63 716 77 716 c 2,14,-1
 541 716 l 1,15,-1
 541 629 l 1,16,-1
 194 13 l 2,0,1
EndSplineSet
EndChar
StartChar: eight
Encoding: 56 56 25
Width: 662
VWidth: 1473
Flags: W
HStem: -22 63<241.36 400.117> 364 62<293.174 367.808> 672 63<270.39 369.559>
VStem: 60 62<138.024 272.992> 108 64<506.573 604.763> 491 63<506.58 603.813> 539 64<137.039 273.256>
Fore
603 205 m 0,0,1
 603 153 603 153 579 111 c 128,-1,2
 555 69 555 69 516 39.5 c 128,-1,3
 477 10 477 10 428.5 -6 c 128,-1,4
 380 -22 380 -22 331 -22 c 0,5,6
 281 -22 281 -22 232.5 -6 c 128,-1,7
 184 10 184 10 146 39.5 c 128,-1,8
 108 69 108 69 84 111 c 128,-1,9
 60 153 60 153 60 205 c 0,10,11
 60 267 60 267 96.5 318.5 c 128,-1,12
 133 370 133 370 194 399 c 1,13,14
 156 423 156 423 132 464 c 128,-1,15
 108 505 108 505 108 548 c 0,16,17
 108 586 108 586 125.5 620 c 128,-1,18
 143 654 143 654 173 680 c 128,-1,19
 203 706 203 706 243.5 720.5 c 128,-1,20
 284 735 284 735 331 735 c 0,21,22
 371 735 371 735 411 722 c 128,-1,23
 451 709 451 709 482.5 684.5 c 128,-1,24
 514 660 514 660 534 625.5 c 128,-1,25
 554 591 554 591 554 548 c 256,26,27
 554 505 554 505 531 463 c 128,-1,28
 508 421 508 421 468 399 c 1,29,30
 526 373 526 373 564.5 320 c 128,-1,31
 603 267 603 267 603 205 c 0,0,1
491 547 m 0,32,33
 491 576 491 576 476 599.5 c 128,-1,34
 461 623 461 623 437.5 639.5 c 128,-1,35
 414 656 414 656 386 664 c 128,-1,36
 358 672 358 672 331 672 c 256,37,38
 305 672 305 672 277 664 c 128,-1,39
 249 656 249 656 226 640.5 c 128,-1,40
 203 625 203 625 187.5 601 c 128,-1,41
 172 577 172 577 172 548 c 0,42,43
 172 526 172 526 184 504 c 128,-1,44
 196 482 196 482 216.5 465 c 128,-1,45
 237 448 237 448 266.5 437 c 128,-1,46
 296 426 296 426 330 426 c 256,47,48
 364 426 364 426 393.5 436 c 128,-1,49
 423 446 423 446 444.5 464 c 128,-1,50
 466 482 466 482 478.5 503 c 128,-1,51
 491 524 491 524 491 547 c 0,32,33
539 205 m 0,52,53
 539 242 539 242 520 272 c 128,-1,54
 501 302 501 302 471.5 322 c 128,-1,55
 442 342 442 342 405 353 c 128,-1,56
 368 364 368 364 331 364 c 256,57,58
 295 364 295 364 257.5 353 c 128,-1,59
 220 342 220 342 190.5 322 c 128,-1,60
 161 302 161 302 141.5 272 c 128,-1,61
 122 242 122 242 122 205 c 0,62,63
 122 172 122 172 137.5 142.5 c 128,-1,64
 153 113 153 113 181 90.5 c 128,-1,65
 209 68 209 68 247.5 54.5 c 128,-1,66
 286 41 286 41 331 41 c 0,67,68
 373 41 373 41 411 53.5 c 128,-1,69
 449 66 449 66 477 88 c 128,-1,70
 505 110 505 110 522 140.5 c 128,-1,71
 539 171 539 171 539 205 c 0,52,53
EndSplineSet
EndChar
StartChar: nine
Encoding: 57 57 26
Width: 646
VWidth: 1473
Flags: W
HStem: -6 66<228.69 389.375> 243 58<223.591 389.835> 661 61<224.506 390.164>
VStem: 47 65<412.063 551.483> 522 66<296.864 352>
Fore
588 361 m 0,0,1
 586 277 586 277 565.5 209 c 128,-1,2
 545 141 545 141 506 93.5 c 128,-1,3
 467 46 467 46 411 20 c 128,-1,4
 355 -6 355 -6 284 -6 c 0,5,6
 242 -6 242 -6 205.5 6.5 c 128,-1,7
 169 19 169 19 140.5 39 c 128,-1,8
 112 59 112 59 91.5 84 c 128,-1,9
 71 109 71 109 62 134 c 0,10,11
 56 147 56 147 62.5 160.5 c 128,-1,12
 69 174 69 174 82 178 c 0,13,14
 96 184 96 184 106 178 c 128,-1,15
 116 172 116 172 122 159 c 0,16,17
 128 141 128 141 143.5 124.5 c 128,-1,18
 159 108 159 108 181 93 c 128,-1,19
 203 78 203 78 229.5 69 c 128,-1,20
 256 60 256 60 286 60 c 0,21,22
 354 60 354 60 399.5 87.5 c 128,-1,23
 445 115 445 115 472 157 c 128,-1,24
 499 199 499 199 510.5 250.5 c 128,-1,25
 522 302 522 302 522 352 c 1,26,27
 486 296 486 296 428.5 269.5 c 128,-1,28
 371 243 371 243 306 243 c 0,29,30
 252 243 252 243 204 258.5 c 128,-1,31
 156 274 156 274 120.5 304 c 128,-1,32
 85 334 85 334 65.5 377 c 128,-1,33
 46 420 46 420 47 476 c 0,34,35
 49 529 49 529 68.5 574 c 128,-1,36
 88 619 88 619 123 652 c 128,-1,37
 158 685 158 685 205 703.5 c 128,-1,38
 252 722 252 722 309 722 c 0,39,40
 386 722 386 722 440.5 695.5 c 128,-1,41
 495 669 495 669 528 621 c 128,-1,42
 561 573 561 573 575 506.5 c 128,-1,43
 589 440 589 440 588 361 c 0,0,1
502 482 m 0,44,45
 502 519 502 519 486.5 551 c 128,-1,46
 471 583 471 583 444.5 607.5 c 128,-1,47
 418 632 418 632 383 646.5 c 128,-1,48
 348 661 348 661 308 661 c 256,49,50
 268 661 268 661 232.5 647 c 128,-1,51
 197 633 197 633 170 609 c 128,-1,52
 143 585 143 585 127.5 552.5 c 128,-1,53
 112 520 112 520 112 483 c 0,54,55
 112 445 112 445 127.5 411 c 128,-1,56
 143 377 143 377 169.5 353 c 128,-1,57
 196 329 196 329 231.5 315 c 128,-1,58
 267 301 267 301 306 301 c 256,59,60
 346 301 346 301 381.5 315 c 128,-1,61
 417 329 417 329 444 353 c 128,-1,62
 471 377 471 377 486.5 410 c 128,-1,63
 502 443 502 443 502 482 c 0,44,45
EndSplineSet
EndChar
StartChar: colon
Encoding: 58 58 27
Width: 294
VWidth: 1473
Flags: W
HStem: -7 123<109.08 194.92> 354 123<109.08 194.92>
VStem: 90 124<11.5645 97.4358 372.564 457.92>
Fore
90 415 m 256,0,1
 90 440 90 440 108.5 458.5 c 128,-1,2
 127 477 127 477 152 477 c 256,3,4
 177 477 177 477 195.5 458.5 c 128,-1,5
 214 440 214 440 214 415 c 256,6,7
 214 390 214 390 195.5 372 c 128,-1,8
 177 354 177 354 152 354 c 256,9,10
 127 354 127 354 108.5 372 c 128,-1,11
 90 390 90 390 90 415 c 256,0,1
90 55 m 256,12,13
 90 80 90 80 108.5 98 c 128,-1,14
 127 116 127 116 152 116 c 256,15,16
 177 116 177 116 195.5 98 c 128,-1,17
 214 80 214 80 214 55 c 256,18,19
 214 29 214 29 195.5 11 c 128,-1,20
 177 -7 177 -7 152 -7 c 256,21,22
 127 -7 127 -7 108.5 11 c 128,-1,23
 90 29 90 29 90 55 c 256,12,13
EndSplineSet
EndChar
StartChar: semicolon
Encoding: 59 59 28
Width: 294
VWidth: 1473
Flags: W
HStem: -20 20G<160.5 160.5> 354 123<109.08 194.92>
VStem: 90 124<372.564 457.92>
Fore
90 415 m 256,0,1
 90 440 90 440 108.5 458.5 c 128,-1,2
 127 477 127 477 152 477 c 256,3,4
 177 477 177 477 195.5 458.5 c 128,-1,5
 214 440 214 440 214 415 c 256,6,7
 214 390 214 390 195.5 372 c 128,-1,8
 177 354 177 354 152 354 c 256,9,10
 127 354 127 354 108.5 372 c 128,-1,11
 90 390 90 390 90 415 c 256,0,1
81 52 m 0,12,13
 81 72 81 72 92 89 c 128,-1,14
 103 106 103 106 119 113 c 0,15,16
 152 127 152 127 180.5 110.5 c 128,-1,17
 209 94 209 94 215 60 c 0,18,19
 221 32 221 32 214.5 5.5 c 128,-1,20
 208 -21 208 -21 193 -43.5 c 128,-1,21
 178 -66 178 -66 159 -83 c 128,-1,22
 140 -100 140 -100 121 -106 c 0,23,24
 106 -110 106 -110 95 -108 c 128,-1,25
 84 -106 84 -106 78 -100 c 128,-1,26
 72 -94 72 -94 73.5 -85.5 c 128,-1,27
 75 -77 75 -77 87 -69 c 1,28,29
 108 -60 108 -60 132 -45.5 c 128,-1,30
 156 -31 156 -31 165 0 c 1,31,32
 156 -6 156 -6 149 -6 c 0,33,34
 119 -9 119 -9 100 9 c 128,-1,35
 81 27 81 27 81 52 c 0,12,13
EndSplineSet
EndChar
StartChar: less
Encoding: 60 60 29
Width: 677
VWidth: 1473
Flags: W
VStem: 95 478.5<261.5 495 261.5 261.5>
Fore
570 6 m 256,0,1
 563 -6 563 -6 551 -9.5 c 128,-1,2
 539 -13 539 -13 527 -6 c 2,3,-1
 109 234 l 1,4,5
 109 236 109 236 108 236 c 1,6,7
 96 242 96 242 95 261.5 c 128,-1,8
 94 281 94 281 109 289 c 2,9,-1
 527 529 l 2,10,11
 539 536 539 536 551 533 c 128,-1,12
 563 530 563 530 570 519 c 256,13,14
 577 507 577 507 573.5 495 c 128,-1,15
 570 483 570 483 558 476 c 2,16,-1
 171 262 l 1,17,-1
 558 49 l 2,18,19
 570 41 570 41 573.5 29.5 c 128,-1,20
 577 18 577 18 570 6 c 256,0,1
EndSplineSet
EndChar
StartChar: equal
Encoding: 61 61 30
Width: 692
VWidth: 1473
Flags: W
HStem: 127 249<118 575 118 575 118 118> 127 56<80.7515 612.249> 321 55<80.5938 612.406>
Fore
613 156 m 0,0,1
 613 127 613 127 575 127 c 2,2,-1
 118 127 l 2,3,4
 80 127 80 127 80 156 c 0,5,6
 80 183 80 183 118 183 c 2,7,-1
 575 183 l 2,8,9
 613 183 613 183 613 156 c 0,0,1
613 349 m 0,10,11
 613 321 613 321 575 321 c 2,12,-1
 118 321 l 2,13,14
 80 321 80 321 80 349 c 0,15,16
 80 376 80 376 118 376 c 2,17,-1
 575 376 l 2,18,19
 613 376 613 376 613 349 c 0,10,11
EndSplineSet
EndChar
StartChar: greater
Encoding: 62 62 31
Width: 677
VWidth: 1473
Flags: W
VStem: 101 479<29.5 258 29.5 29.5>
Fore
580 258 m 0,0,1
 579 246 579 246 574 241.5 c 128,-1,2
 569 237 569 237 567 236 c 1,3,4
 566 236 566 236 566 234 c 1,5,-1
 147 -6 l 2,6,7
 136 -13 136 -13 124 -9.5 c 128,-1,8
 112 -6 112 -6 105 6 c 256,9,10
 97 18 97 18 101 29.5 c 128,-1,11
 105 41 105 41 116 49 c 2,12,-1
 504 262 l 1,13,-1
 116 476 l 2,14,15
 105 483 105 483 101 495 c 128,-1,16
 97 507 97 507 105 519 c 256,17,18
 112 530 112 530 124 533 c 128,-1,19
 136 536 136 536 147 529 c 2,20,-1
 566 289 l 2,21,22
 583 278 583 278 580 258 c 0,0,1
EndSplineSet
EndChar
StartChar: question
Encoding: 63 63 32
Width: 634
VWidth: 1473
Flags: W
HStem: -7 104<210.955 285.014> 691 54<207.323 375.968>
VStem: 196 105<7.95496 81.014> 220 54<138.479 237.324> 495 56<450.753 612.046>
Fore
551 529 m 0,0,1
 551 468 551 468 528 432 c 128,-1,2
 505 396 505 396 470.5 374 c 128,-1,3
 436 352 436 352 396.5 337.5 c 128,-1,4
 357 323 357 323 321 305 c 0,5,6
 296 293 296 293 285 263 c 128,-1,7
 274 233 274 233 274 206 c 2,8,-1
 274 178 l 2,9,10
 274 138 274 138 247 138 c 128,-1,11
 220 138 220 138 220 178 c 2,12,-1
 220 206 l 2,13,14
 220 253 220 253 237.5 288.5 c 128,-1,15
 255 324 255 324 301 351 c 0,16,17
 333 370 333 370 367.5 381.5 c 128,-1,18
 402 393 402 393 431 409.5 c 128,-1,19
 460 426 460 426 477.5 453 c 128,-1,20
 495 480 495 480 495 529 c 256,21,22
 495 577 495 577 477.5 609 c 128,-1,23
 460 641 460 641 432.5 658.5 c 128,-1,24
 405 676 405 676 372 683.5 c 128,-1,25
 339 691 339 691 306 691 c 0,26,27
 189 691 189 691 125 597 c 0,28,29
 118 586 118 586 106 587 c 128,-1,30
 94 588 94 588 85 597 c 0,31,32
 77 604 77 604 77 615 c 128,-1,33
 77 626 77 626 84 636 c 0,34,35
 122 688 122 688 176.5 716.5 c 128,-1,36
 231 745 231 745 303 745 c 0,37,38
 358 745 358 745 403 731 c 128,-1,39
 448 717 448 717 481 690 c 128,-1,40
 514 663 514 663 532.5 622.5 c 128,-1,41
 551 582 551 582 551 529 c 0,0,1
301 44 m 256,42,43
 301 22 301 22 285.5 7.5 c 128,-1,44
 270 -7 270 -7 247 -7 c 256,45,46
 225 -7 225 -7 210.5 7.5 c 128,-1,47
 196 22 196 22 196 44 c 256,48,49
 196 66 196 66 210.5 81.5 c 128,-1,50
 225 97 225 97 247 97 c 256,51,52
 270 97 270 97 285.5 81.5 c 128,-1,53
 301 66 301 66 301 44 c 256,42,43
EndSplineSet
EndChar
StartChar: at
Encoding: 64 64 33
Width: 947
VWidth: 1473
Flags: W
HStem: -39 49<420.405 573.545> 133 44<345.466 498.565> 402 49<403.214 541.995> 554 46.5<461.743 573.967> 708 51<413.313 548.796>
VStem: 644 44.5<405.406 497.217>
Fore
841 348 m 0,0,1
 829 268 829 268 793 218.5 c 128,-1,2
 757 169 757 169 713 143 c 0,3,4
 688 128 688 128 660.5 127.5 c 128,-1,5
 633 127 633 127 614 143 c 0,6,7
 607 150 607 150 599.5 166.5 c 128,-1,8
 592 183 592 183 598 199 c 1,9,10
 563 168 563 168 521 150.5 c 128,-1,11
 479 133 479 133 423 133 c 0,12,13
 377 133 377 133 344.5 148.5 c 128,-1,14
 312 164 312 164 292.5 188 c 128,-1,15
 273 212 273 212 265.5 240 c 128,-1,16
 258 268 258 268 261 295 c 0,17,18
 268 370 268 370 331.5 410.5 c 128,-1,19
 395 451 395 451 489 451 c 0,20,21
 526 449 526 449 557 440 c 0,22,23
 583 433 583 433 607 416 c 128,-1,24
 631 399 631 399 635 370 c 1,25,26
 644 410 644 410 644 441.5 c 128,-1,27
 644 473 644 473 628 498 c 0,28,29
 608 526 608 526 575 540 c 128,-1,30
 542 554 542 554 503 554 c 128,-1,31
 464 554 464 554 425 543 c 128,-1,32
 386 532 386 532 357 511 c 0,33,34
 348 505 348 505 338.5 503.5 c 128,-1,35
 329 502 329 502 324 511 c 0,36,37
 320 519 320 519 323 529 c 128,-1,38
 326 539 326 539 340 550 c 0,39,40
 373 575 373 575 419.5 588 c 128,-1,41
 466 601 466 601 513 600.5 c 128,-1,42
 560 600 560 600 601 583.5 c 128,-1,43
 642 567 642 567 666 532 c 0,44,45
 688 498 688 498 688.5 459.5 c 128,-1,46
 689 421 689 421 682 389 c 2,47,-1
 638 202 l 2,48,49
 632 178 632 178 645.5 172 c 128,-1,50
 659 166 659 166 684 178 c 0,51,52
 722 197 722 197 750.5 240 c 128,-1,53
 779 283 779 283 791 357 c 0,54,55
 796 382 796 382 797 414 c 128,-1,56
 798 446 798 446 791.5 481 c 128,-1,57
 785 516 785 516 769 551 c 128,-1,58
 753 586 753 586 723 619 c 0,59,60
 695 648 695 648 659 668 c 128,-1,61
 623 688 623 688 582 698.5 c 128,-1,62
 541 709 541 709 497.5 708 c 128,-1,63
 454 707 454 707 412 695 c 0,64,65
 365 682 365 682 324 657.5 c 128,-1,66
 283 633 283 633 250.5 600 c 128,-1,67
 218 567 218 567 196 527.5 c 128,-1,68
 174 488 174 488 164 443 c 0,69,70
 141 343 141 343 154.5 272.5 c 128,-1,71
 168 202 168 202 198 154 c 128,-1,72
 228 106 228 106 265.5 78 c 128,-1,73
 303 50 303 50 330 38 c 0,74,75
 374 18 374 18 419 12.5 c 128,-1,76
 464 7 464 7 504 10 c 128,-1,77
 544 13 544 13 574.5 20.5 c 128,-1,78
 605 28 605 28 620 35 c 1,79,80
 631 38 631 38 644 36.5 c 128,-1,81
 657 35 657 35 661 27 c 0,82,83
 667 16 667 16 663.5 6.5 c 128,-1,84
 660 -3 660 -3 651 -9 c 0,85,86
 631 -19 631 -19 591 -28 c 128,-1,87
 551 -37 551 -37 503 -39 c 128,-1,88
 455 -41 455 -41 403.5 -34.5 c 128,-1,89
 352 -28 352 -28 308 -7 c 0,90,91
 181 52 181 52 129.5 175 c 128,-1,92
 78 298 78 298 115 455 c 0,93,94
 127 505 127 505 152.5 551.5 c 128,-1,95
 178 598 178 598 214 635.5 c 128,-1,96
 250 673 250 673 297.5 702 c 128,-1,97
 345 731 345 731 398 745 c 0,98,99
 446 759 446 759 497 759 c 128,-1,100
 548 759 548 759 596 746.5 c 128,-1,101
 644 734 644 734 686 710.5 c 128,-1,102
 728 687 728 687 760 653 c 0,103,104
 816 592 816 592 835 512 c 128,-1,105
 854 432 854 432 841 348 c 0,0,1
613 289 m 0,106,107
 617 309 617 309 615 330 c 128,-1,108
 613 351 613 351 598 367 c 128,-1,109
 583 383 583 383 554.5 392.5 c 128,-1,110
 526 402 526 402 477 402 c 0,111,112
 448 402 448 402 417.5 395.5 c 128,-1,113
 387 389 387 389 362 375.5 c 128,-1,114
 337 362 337 362 320 342.5 c 128,-1,115
 303 323 303 323 301 295 c 0,116,117
 295 242 295 242 331 209.5 c 128,-1,118
 367 177 367 177 429 177 c 0,119,120
 476 177 476 177 509 188 c 128,-1,121
 542 199 542 199 563.5 215 c 128,-1,122
 585 231 585 231 596.5 251 c 128,-1,123
 608 271 608 271 613 289 c 0,106,107
EndSplineSet
EndChar
StartChar: A
Encoding: 65 65 34
Width: 723
VWidth: 1473
Flags: W
HStem: 0 21G<74 101.5 624 651> 330 55<116 610> 666 56<239.189 490.413>
VStem: 60 56<0.625 330 385 477.423 477.423 481.044 481.044 499 510 546.704> 610 54<0.625 330 385 470.244 470.244 482.866 482.866 499 512 546.704>
Fore
664 40 m 2,0,1
 664 0 664 0 638 0 c 0,2,3
 610 0 610 0 610 40 c 2,4,-1
 610 330 l 1,5,-1
 115 330 l 1,6,-1
 115 40 l 2,7,8
 115 0 115 0 88 0 c 0,9,10
 60 0 60 0 60 40 c 2,11,-1
 60 442 l 2,12,13
 60 443 60 443 60 462.5 c 128,-1,14
 60 482 60 482 65.5 510 c 128,-1,15
 71 538 71 538 85 571 c 128,-1,16
 99 604 99 604 127 635 c 0,17,18
 206 722 206 722 364 722 c 256,19,20
 522 722 522 722 601 635 c 0,21,22
 628 605 628 605 640.5 573 c 128,-1,23
 653 541 653 541 658.5 512 c 128,-1,24
 664 483 664 483 664 464.5 c 128,-1,25
 664 446 664 446 664 445 c 2,26,-1
 664 40 l 2,0,1
610 448 m 2,27,28
 611 473 611 473 605 499 c 0,29,30
 601 522 601 522 590 547.5 c 128,-1,31
 579 573 579 573 558 598 c 0,32,33
 495 666 495 666 364 666 c 256,34,35
 233 666 233 666 168 597 c 0,36,37
 146 573 146 573 135.5 547.5 c 128,-1,38
 125 522 125 522 120.5 499 c 128,-1,39
 116 476 116 476 116 461 c 128,-1,40
 116 446 116 446 116 445 c 2,41,-1
 116 385 l 1,42,-1
 610 385 l 1,43,-1
 610 448 l 2,27,28
EndSplineSet
EndChar
StartChar: B
Encoding: 66 66 35
Width: 721
VWidth: 1473
Flags: W
HStem: 0 53<264.258 479.186> 331 55<166.625 494.23> 669 53<304.696 441.153>
VStem: 60 56<156.065 559.84> 600 56<457.964 573.937> 611 56<127.967 274.597>
Fore
116 234 m 2,0,1
 116 189 116 189 132.5 155 c 128,-1,2
 149 121 149 121 175.5 98 c 128,-1,3
 202 75 202 75 235 64 c 128,-1,4
 268 53 268 53 303 53 c 2,5,-1
 433 53 l 2,6,7
 467 55 467 55 499.5 63 c 128,-1,8
 532 71 532 71 557 88.5 c 128,-1,9
 582 106 582 106 596.5 133.5 c 128,-1,10
 611 161 611 161 611 199 c 0,11,12
 611 264 611 264 567 297.5 c 128,-1,13
 523 331 523 331 458 331 c 2,14,-1
 206 331 l 2,15,16
 166 331 166 331 166 359 c 0,17,18
 166 386 166 386 206 386 c 2,19,-1
 460 386 l 2,20,21
 489 386 489 386 515 395 c 128,-1,22
 541 404 541 404 559 419.5 c 128,-1,23
 577 435 577 435 588.5 456 c 128,-1,24
 600 477 600 477 600 501 c 0,25,26
 600 541 600 541 580.5 572.5 c 128,-1,27
 561 604 561 604 528.5 625.5 c 128,-1,28
 496 647 496 647 451.5 658 c 128,-1,29
 407 669 407 669 357 669 c 0,30,31
 314 669 314 669 271 658 c 128,-1,32
 228 647 228 647 193.5 622.5 c 128,-1,33
 159 598 159 598 137.5 561 c 128,-1,34
 116 524 116 524 116 471 c 2,35,-1
 116 234 l 2,0,1
60 471 m 2,36,37
 60 545 60 545 88 593.5 c 128,-1,38
 116 642 116 642 159.5 671 c 128,-1,39
 203 700 203 700 255.5 711 c 128,-1,40
 308 722 308 722 357 722 c 0,41,42
 418 722 418 722 472.5 708 c 128,-1,43
 527 694 527 694 567.5 666 c 128,-1,44
 608 638 608 638 632 596.5 c 128,-1,45
 656 555 656 555 656 501 c 256,46,47
 656 446 656 446 627 408 c 128,-1,48
 598 370 598 370 557 358 c 1,49,50
 604 336 604 336 635.5 294.5 c 128,-1,51
 667 253 667 253 667 199 c 0,52,53
 667 147 667 147 647.5 109.5 c 128,-1,54
 628 72 628 72 594.5 48 c 128,-1,55
 561 24 561 24 519 12 c 128,-1,56
 477 0 477 0 433 0 c 2,57,-1
 315 0 l 2,58,59
 262 0 262 0 215 15.5 c 128,-1,60
 168 31 168 31 134 62 c 128,-1,61
 100 93 100 93 80 138 c 128,-1,62
 60 183 60 183 60 240 c 2,63,-1
 60 471 l 2,36,37
EndSplineSet
EndChar
StartChar: C
Encoding: 67 67 36
Width: 676
VWidth: 1473
Flags: W
HStem: -4 57<276.314 511.941> 664 58<273.407 512.777>
VStem: 43 57<235.091 481.481>
Fore
647 613 m 0,0,1
 654 604 654 604 654 592 c 128,-1,2
 654 580 654 580 645 573 c 0,3,4
 636 564 636 564 624.5 565 c 128,-1,5
 613 566 613 566 604 573 c 1,6,7
 566 625 566 625 510.5 644.5 c 128,-1,8
 455 664 455 664 395 664 c 0,9,10
 326 664 326 664 271.5 641.5 c 128,-1,11
 217 619 217 619 179 578.5 c 128,-1,12
 141 538 141 538 120.5 481 c 128,-1,13
 100 424 100 424 100 358 c 256,14,15
 100 292 100 292 120.5 236 c 128,-1,16
 141 180 141 180 179.5 139.5 c 128,-1,17
 218 99 218 99 272.5 76 c 128,-1,18
 327 53 327 53 395 53 c 0,19,20
 455 53 455 53 509 71.5 c 128,-1,21
 563 90 563 90 604 141 c 0,22,23
 611 150 611 150 623 150 c 128,-1,24
 635 150 635 150 644 143 c 0,25,26
 653 134 653 134 653 122 c 128,-1,27
 653 110 653 110 645 102 c 0,28,29
 601 47 601 47 533.5 21.5 c 128,-1,30
 466 -4 466 -4 395 -4 c 0,31,32
 315 -4 315 -4 249.5 23 c 128,-1,33
 184 50 184 50 138.5 98.5 c 128,-1,34
 93 147 93 147 68 213.5 c 128,-1,35
 43 280 43 280 43 358 c 0,36,37
 43 438 43 438 67 505 c 128,-1,38
 91 572 91 572 137 619.5 c 128,-1,39
 183 667 183 667 248.5 694.5 c 128,-1,40
 314 722 314 722 395 722 c 0,41,42
 467 722 467 722 533.5 697 c 128,-1,43
 600 672 600 672 647 613 c 0,0,1
EndSplineSet
EndChar
StartChar: D
Encoding: 68 68 37
Width: 717
VWidth: 1473
Flags: W
HStem: 0 53<208.438 290.115 290.115 292.842 292.842 337.906> 664 53<158.022 290.115 290.115 292.842 292.842 339.958>
VStem: 62 54<102.049 624.656> 616 54<239.329 475.943>
Fore
670 358 m 0,0,1
 670 278 670 278 643 214 c 128,-1,2
 616 150 616 150 567 103 c 0,3,4
 523 62 523 62 473.5 40.5 c 128,-1,5
 424 19 424 19 381.5 10 c 128,-1,6
 339 1 339 1 309.5 0.5 c 128,-1,7
 280 0 280 0 277 0 c 2,8,-1
 243 0 l 2,9,10
 217 0 217 0 185 8 c 128,-1,11
 153 16 153 16 126 34 c 128,-1,12
 99 52 99 52 80.5 80 c 128,-1,13
 62 108 62 108 62 149 c 2,14,-1
 62 567 l 2,15,16
 62 633 62 633 112 675 c 128,-1,17
 162 717 162 717 243 717 c 2,18,-1
 277 717 l 2,19,20
 280 717 280 717 309.5 716.5 c 128,-1,21
 339 716 339 716 381.5 707 c 128,-1,22
 424 698 424 698 473.5 676 c 128,-1,23
 523 654 523 654 567 613 c 0,24,25
 616 566 616 566 643 502.5 c 128,-1,26
 670 439 670 439 670 358 c 0,0,1
616 358 m 256,27,28
 616 427 616 427 592.5 481 c 128,-1,29
 569 535 569 535 529 573 c 0,30,31
 492 608 492 608 448.5 627.5 c 128,-1,32
 405 647 405 647 367.5 655 c 128,-1,33
 330 663 330 663 304 663.5 c 128,-1,34
 278 664 278 664 277 664 c 2,35,-1
 243 664 l 2,36,37
 187 664 187 664 152.5 638.5 c 128,-1,38
 118 613 118 613 116 570 c 2,39,-1
 116 147 l 2,40,41
 116 119 116 119 129.5 101.5 c 128,-1,42
 143 84 143 84 162 73 c 128,-1,43
 181 62 181 62 203 57.5 c 128,-1,44
 225 53 225 53 243 53 c 2,45,-1
 277 53 l 2,46,47
 278 53 278 53 304 54 c 128,-1,48
 330 55 330 55 367.5 63 c 128,-1,49
 405 71 405 71 448.5 89.5 c 128,-1,50
 492 108 492 108 529 143 c 0,51,52
 569 181 569 181 592.5 235 c 128,-1,53
 616 289 616 289 616 358 c 256,27,28
EndSplineSet
EndChar
StartChar: E
Encoding: 69 69 38
Width: 649
VWidth: 1473
Flags: W
HStem: -7 54<277.394 429.777> 330 55<96 453.375> 667 55<234.68 429.619>
VStem: 40 56<157.612 330 385 552.42>
Fore
40 477 m 2,0,1
 40 542 40 542 67 588.5 c 128,-1,2
 94 635 94 635 136 664.5 c 128,-1,3
 178 694 178 694 229 708 c 128,-1,4
 280 722 280 722 327 722 c 0,5,6
 389 722 389 722 436 711 c 128,-1,7
 483 700 483 700 517.5 682 c 128,-1,8
 552 664 552 664 574.5 641.5 c 128,-1,9
 597 619 597 619 608 595 c 0,10,11
 613 585 613 585 613 574 c 128,-1,12
 613 563 613 563 603 557 c 0,13,14
 592 550 592 550 580.5 552.5 c 128,-1,15
 569 555 569 555 563 566 c 0,16,17
 538 611 538 611 482 639 c 128,-1,18
 426 667 426 667 321 667 c 0,19,20
 278 667 278 667 237.5 653 c 128,-1,21
 197 639 197 639 165.5 613.5 c 128,-1,22
 134 588 134 588 115 553.5 c 128,-1,23
 96 519 96 519 96 476 c 2,24,-1
 96 385 l 1,25,-1
 414 385 l 2,26,27
 454 385 454 385 454 358 c 0,28,29
 454 330 454 330 414 330 c 2,30,-1
 96 330 l 1,31,-1
 96 239 l 2,32,33
 96 192 96 192 115 156.5 c 128,-1,34
 134 121 134 121 165.5 96.5 c 128,-1,35
 197 72 197 72 237.5 59.5 c 128,-1,36
 278 47 278 47 321 47 c 0,37,38
 426 47 426 47 482 75 c 128,-1,39
 538 103 538 103 563 149 c 0,40,41
 569 159 569 159 580.5 162 c 128,-1,42
 592 165 592 165 603 158 c 0,43,44
 613 152 613 152 613.5 141 c 128,-1,45
 614 130 614 130 610 119 c 0,46,47
 598 96 598 96 576 73 c 128,-1,48
 554 50 554 50 519.5 32.5 c 128,-1,49
 485 15 485 15 437 4 c 128,-1,50
 389 -7 389 -7 327 -7 c 0,51,52
 280 -7 280 -7 229 6 c 128,-1,53
 178 19 178 19 136 48.5 c 128,-1,54
 94 78 94 78 67 123.5 c 128,-1,55
 40 169 40 169 40 234 c 2,56,-1
 40 477 l 2,0,1
EndSplineSet
EndChar
StartChar: F
Encoding: 70 70 39
Width: 655
VWidth: 1473
Flags: W
HStem: -1 21G<76 103> 330 55<118 475.375> 667 55<257.179 451.777>
VStem: 62 54<-0.40625 330 385 552.42>
Fore
116 37 m 2,0,1
 116 -1 116 -1 90 -1 c 0,2,3
 62 -1 62 -1 62 37 c 2,4,-1
 62 479 l 2,5,6
 62 544 62 544 89 589.5 c 128,-1,7
 116 635 116 635 158 664.5 c 128,-1,8
 200 694 200 694 251 708 c 128,-1,9
 302 722 302 722 349 722 c 0,10,11
 411 722 411 722 459 711 c 128,-1,12
 507 700 507 700 541.5 681.5 c 128,-1,13
 576 663 576 663 599 639.5 c 128,-1,14
 622 616 622 616 633 592 c 0,15,16
 638 582 638 582 636.5 572.5 c 128,-1,17
 635 563 635 563 625 557 c 0,18,19
 614 550 614 550 602.5 552.5 c 128,-1,20
 591 555 591 555 585 566 c 0,21,22
 560 611 560 611 504 639 c 128,-1,23
 448 667 448 667 343 667 c 0,24,25
 301 667 301 667 260.5 653 c 128,-1,26
 220 639 220 639 188 613.5 c 128,-1,27
 156 588 156 588 137 553.5 c 128,-1,28
 118 519 118 519 118 476 c 2,29,-1
 118 385 l 1,30,-1
 436 385 l 2,31,32
 476 385 476 385 476 358 c 0,33,34
 476 330 476 330 436 330 c 2,35,-1
 116 330 l 1,36,-1
 116 37 l 2,0,1
EndSplineSet
EndChar
StartChar: G
Encoding: 71 71 40
Width: 736
VWidth: 1473
Flags: W
HStem: -7 54<276.426 481.584> 329 57<268.938 635.104> 667 55<274.582 525.147>
VStem: 43 57<228.108 483.542> 648 58<191.5 311.466>
Fore
401 722 m 0,0,1
 492 722 492 722 568.5 688 c 128,-1,2
 645 654 645 654 682 600 c 0,3,4
 688 591 688 591 687.5 577 c 128,-1,5
 687 563 687 563 676 557 c 0,6,7
 666 550 666 550 655 552.5 c 128,-1,8
 644 555 644 555 636 566 c 0,9,10
 598 617 598 617 534 642 c 128,-1,11
 470 667 470 667 399 667 c 0,12,13
 326 667 326 667 270 643.5 c 128,-1,14
 214 620 214 620 176 579 c 128,-1,15
 138 538 138 538 119 480.5 c 128,-1,16
 100 423 100 423 100 355 c 0,17,18
 100 284 100 284 121.5 227.5 c 128,-1,19
 143 171 143 171 182 130.5 c 128,-1,20
 221 90 221 90 276 68.5 c 128,-1,21
 331 47 331 47 399 47 c 0,22,23
 466 47 466 47 513.5 67 c 128,-1,24
 561 87 561 87 590.5 113.5 c 128,-1,25
 620 140 620 140 634 167 c 128,-1,26
 648 194 648 194 648 211 c 2,27,-1
 648 268 l 2,28,29
 648 295 648 295 635.5 312 c 128,-1,30
 623 329 623 329 588 329 c 2,31,-1
 293 329 l 2,32,33
 281 329 281 329 265 332.5 c 128,-1,34
 249 336 249 336 249 357 c 256,35,36
 249 377 249 377 265 381.5 c 128,-1,37
 281 386 281 386 293 386 c 2,38,-1
 588 386 l 2,39,40
 650 386 650 386 678 353 c 128,-1,41
 706 320 706 320 706 268 c 2,42,-1
 706 211 l 2,43,44
 706 166 706 166 686.5 137.5 c 128,-1,45
 667 109 667 109 639 81 c 0,46,47
 628 69 628 69 605.5 53.5 c 128,-1,48
 583 38 583 38 553 25 c 128,-1,49
 523 12 523 12 484 2.5 c 128,-1,50
 445 -7 445 -7 399 -7 c 0,51,52
 318 -7 318 -7 252 18.5 c 128,-1,53
 186 44 186 44 139.5 91 c 128,-1,54
 93 138 93 138 68 205.5 c 128,-1,55
 43 273 43 273 43 355 c 256,56,57
 43 438 43 438 67 505.5 c 128,-1,58
 91 573 91 573 137.5 621 c 128,-1,59
 184 669 184 669 250.5 695.5 c 128,-1,60
 317 722 317 722 401 722 c 0,0,1
EndSplineSet
EndChar
StartChar: H
Encoding: 72 72 41
Width: 738
VWidth: 1473
Flags: W
HStem: 1 21G<82 109 632 660> 330 56<122 617> 700 20G<82 109 632 660>
VStem: 68 54<1.625 330 386 719.391> 617 56<1.97656 330 386 719.048>
Fore
673 41 m 1,0,1
 673 1 673 1 647 1 c 0,2,3
 617 1 617 1 617 41 c 2,4,-1
 617 330 l 1,5,-1
 122 330 l 1,6,-1
 122 41 l 2,7,8
 122 1 122 1 96 1 c 0,9,10
 68 1 68 1 68 41 c 2,11,-1
 68 681 l 2,12,13
 68 720 68 720 96 720 c 0,14,15
 122 720 122 720 122 681 c 2,16,-1
 122 386 l 1,17,-1
 617 386 l 1,18,-1
 617 681 l 2,19,20
 617 720 617 720 647 720 c 0,21,22
 673 720 673 720 673 681 c 2,23,-1
 673 41 l 1,0,1
EndSplineSet
EndChar
StartChar: I
Encoding: 73 73 42
Width: 190
VWidth: 1473
Flags: W
HStem: 1 21G<83 110.5> 700 20G<83 110.5>
VStem: 69 55<1.625 719.391>
Fore
124 41 m 1,0,1
 124 1 124 1 97 1 c 0,2,3
 69 1 69 1 69 41 c 2,4,-1
 69 681 l 2,5,6
 69 720 69 720 97 720 c 0,7,8
 124 720 124 720 124 681 c 2,9,-1
 124 41 l 1,0,1
EndSplineSet
EndChar
StartChar: J
Encoding: 74 74 43
Width: 577
VWidth: 1473
Flags: W
HStem: -7 53<181.161 300.029>
VStem: 28 54<184.456 347.375> 452 56<139.614 230 230 711.375>
Fore
508 230 m 1,0,1
 508 156 508 156 481 109.5 c 128,-1,2
 454 63 454 63 418 37.5 c 128,-1,3
 382 12 382 12 344 2.5 c 128,-1,4
 306 -7 306 -7 286 -7 c 2,5,-1
 261 -7 l 2,6,7
 218 -7 218 -7 177 7 c 128,-1,8
 136 21 136 21 102.5 49.5 c 128,-1,9
 69 78 69 78 48.5 120 c 128,-1,10
 28 162 28 162 28 218 c 2,11,-1
 28 308 l 2,12,13
 28 348 28 348 56 348 c 0,14,15
 82 348 82 348 82 308 c 2,16,-1
 82 218 l 2,17,18
 82 192 82 192 91 161 c 128,-1,19
 100 130 100 130 121.5 105 c 128,-1,20
 143 80 143 80 180 63 c 128,-1,21
 217 46 217 46 273 46 c 0,22,23
 289 46 289 46 319 54 c 128,-1,24
 349 62 349 62 378.5 82.5 c 128,-1,25
 408 103 408 103 430 138.5 c 128,-1,26
 452 174 452 174 452 230 c 2,27,-1
 452 672 l 2,28,29
 452 712 452 712 480 712 c 256,30,31
 508 712 508 712 508 672 c 2,32,-1
 508 230 l 1,0,1
EndSplineSet
EndChar
StartChar: K
Encoding: 75 75 44
Width: 664
VWidth: 1473
Flags: W
HStem: 0 21G<82.5 110.5> 697 20G<82.5 110.5>
VStem: 68 56<0.751465 326 389 716.229> 597 56<-6.95892 105.327>
Fore
653 18 m 0,0,1
 656 6 656 6 649 -3 c 128,-1,2
 642 -12 642 -12 631 -15 c 256,3,4
 619 -18 619 -18 609.5 -11 c 128,-1,5
 600 -4 600 -4 597 7 c 0,6,7
 583 81 583 81 553 140 c 128,-1,8
 523 199 523 199 487 244.5 c 128,-1,9
 451 290 451 290 412 323.5 c 128,-1,10
 373 357 373 357 339.5 379 c 128,-1,11
 306 401 306 401 285 411 c 128,-1,12
 264 421 264 421 262 421 c 1,13,-1
 122 326 l 1,14,-1
 124 38 l 2,15,16
 124 0 124 0 97 0 c 0,17,18
 68 0 68 0 68 38 c 2,19,-1
 68 678 l 2,20,21
 68 717 68 717 97 717 c 0,22,23
 124 717 124 717 124 678 c 2,24,-1
 124 389 l 1,25,26
 301 511 301 511 399.5 578 c 128,-1,27
 498 645 498 645 545 676 c 0,28,29
 601 713 601 713 614 717 c 1,30,31
 623 722 623 722 632 718.5 c 128,-1,32
 641 715 641 715 645.5 707.5 c 128,-1,33
 650 700 650 700 650 691 c 128,-1,34
 650 682 650 682 641 678 c 2,35,-1
 318 460 l 1,36,37
 349 443 349 443 397.5 409.5 c 128,-1,38
 446 376 446 376 497 322 c 128,-1,39
 548 268 548 268 591.5 192 c 128,-1,40
 635 116 635 116 653 18 c 0,0,1
EndSplineSet
EndChar
StartChar: L
Encoding: 76 76 45
Width: 649
VWidth: 1473
Flags: W
HStem: 0 55<143.504 628.375> 697 20G<86 114>
VStem: 72 55<73.0497 716.391>
Fore
629 28 m 0,0,1
 629 0 629 0 589 0 c 2,2,-1
 193 0 l 2,3,4
 141 0 141 0 106.5 32.5 c 128,-1,5
 72 65 72 65 72 121 c 2,6,-1
 72 678 l 2,7,8
 72 717 72 717 100 717 c 256,9,10
 128 717 128 717 128 678 c 2,11,-1
 127 119 l 2,12,13
 127 90 127 90 143 72.5 c 128,-1,14
 159 55 159 55 193 55 c 2,15,-1
 589 55 l 2,16,17
 629 55 629 55 629 28 c 0,0,1
EndSplineSet
EndChar
StartChar: M
Encoding: 77 77 46
Width: 1007
VWidth: 1473
Flags: W
HStem: -7 21G<81 108 490 518 899 926.5> 672 56<261.395 370.243 642.972 753.629>
VStem: 68 54<-6.39062 580.996> 476 56<-6.39062 580.996> 885 55<-6.39062 582.48>
Fore
940 32 m 1,0,1
 940 -7 940 -7 913 -7 c 0,2,3
 885 -7 885 -7 885 32 c 2,4,-1
 885 502 l 2,5,6
 885 551 885 551 870.5 583.5 c 128,-1,7
 856 616 856 616 831.5 636 c 128,-1,8
 807 656 807 656 776 664 c 128,-1,9
 745 672 745 672 712 672 c 0,10,11
 684 672 684 672 652 664.5 c 128,-1,12
 620 657 620 657 593.5 638 c 128,-1,13
 567 619 567 619 549.5 585.5 c 128,-1,14
 532 552 532 552 532 502 c 2,15,-1
 532 32 l 2,16,17
 532 -7 532 -7 504 -7 c 256,18,19
 476 -7 476 -7 476 32 c 2,20,-1
 476 502 l 2,21,22
 476 550 476 550 461 582 c 128,-1,23
 446 614 446 614 422 634 c 128,-1,24
 398 654 398 654 367 663 c 128,-1,25
 336 672 336 672 303 672 c 0,26,27
 268 672 268 672 235.5 663 c 128,-1,28
 203 654 203 654 177.5 634 c 128,-1,29
 152 614 152 614 137 582 c 128,-1,30
 122 550 122 550 122 502 c 2,31,-1
 122 32 l 2,32,33
 122 -7 122 -7 94 -7 c 0,34,35
 68 -7 68 -7 68 32 c 2,36,-1
 68 502 l 2,37,38
 68 576 68 576 94.5 621 c 128,-1,39
 121 666 121 666 158.5 689.5 c 128,-1,40
 196 713 196 713 236.5 720.5 c 128,-1,41
 277 728 277 728 303 728 c 0,42,43
 379 728 379 728 431 691 c 128,-1,44
 483 654 483 654 504 605 c 1,45,46
 527 661 527 661 584 694.5 c 128,-1,47
 641 728 641 728 712 728 c 0,48,49
 738 728 738 728 777 720.5 c 128,-1,50
 816 713 816 713 852 689.5 c 128,-1,51
 888 666 888 666 914 621 c 128,-1,52
 940 576 940 576 940 502 c 2,53,-1
 940 32 l 1,0,1
EndSplineSet
EndChar
StartChar: N
Encoding: 78 78 47
Width: 704
VWidth: 1473
Flags: W
HStem: 0 21G<80 107.5 597 624.5> 699 20G<597 624.5>
VStem: 66 55<0.625 570.012> 583 55<0.625 278 395 718.375>
Fore
638 40 m 1,0,1
 638 0 638 0 611 0 c 0,2,3
 583 0 583 0 583 40 c 2,4,-1
 583 278 l 1,5,6
 538 374 538 374 495 441 c 128,-1,7
 452 508 452 508 413 551 c 128,-1,8
 374 594 374 594 340 617.5 c 128,-1,9
 306 641 306 641 278 651 c 0,10,11
 211 675 211 675 158 639 c 0,12,13
 134 622 134 622 127.5 588.5 c 128,-1,14
 121 555 121 555 121 526 c 2,15,-1
 121 40 l 2,16,17
 121 0 121 0 94 0 c 0,18,19
 66 0 66 0 66 40 c 2,20,-1
 66 542 l 2,21,22
 66 582 66 582 81 620.5 c 128,-1,23
 96 659 96 659 128 684 c 0,24,25
 193 723 193 723 267 710 c 0,26,27
 298 704 298 704 334.5 686.5 c 128,-1,28
 371 669 371 669 411.5 632 c 128,-1,29
 452 595 452 595 495.5 537.5 c 128,-1,30
 539 480 539 480 583 395 c 1,31,-1
 583 679 l 2,32,33
 583 719 583 719 611 719 c 0,34,35
 638 719 638 719 638 679 c 2,36,-1
 638 40 l 1,0,1
EndSplineSet
EndChar
StartChar: O
Encoding: 79 79 48
Width: 766
VWidth: 1473
Flags: W
HStem: -7 57<273.774 494.742> 664 58<270.756 496.648>
VStem: 47 55<229.287 481.99> 666 54<232.028 479.326>
Fore
720 357 m 0,0,1
 720 275 720 275 695 208 c 128,-1,2
 670 141 670 141 626 93.5 c 128,-1,3
 582 46 582 46 520 19.5 c 128,-1,4
 458 -7 458 -7 383 -7 c 0,5,6
 312 -7 312 -7 250.5 19.5 c 128,-1,7
 189 46 189 46 144 93.5 c 128,-1,8
 99 141 99 141 73 208 c 128,-1,9
 47 275 47 275 47 357 c 256,10,11
 47 438 47 438 72 505.5 c 128,-1,12
 97 573 97 573 142 621 c 128,-1,13
 187 669 187 669 249 695.5 c 128,-1,14
 311 722 311 722 383 722 c 0,15,16
 458 722 458 722 520 694.5 c 128,-1,17
 582 667 582 667 627 618.5 c 128,-1,18
 672 570 672 570 696 503 c 128,-1,19
 720 436 720 436 720 357 c 0,0,1
666 357 m 0,20,21
 666 420 666 420 647 476.5 c 128,-1,22
 628 533 628 533 591.5 574.5 c 128,-1,23
 555 616 555 616 502 640 c 128,-1,24
 449 664 449 664 383 664 c 0,25,26
 318 664 318 664 266 640.5 c 128,-1,27
 214 617 214 617 177.5 576.5 c 128,-1,28
 141 536 141 536 121.5 479.5 c 128,-1,29
 102 423 102 423 102 357 c 0,30,31
 102 284 102 284 124 227.5 c 128,-1,32
 146 171 146 171 184 131 c 128,-1,33
 222 91 222 91 274 70.5 c 128,-1,34
 326 50 326 50 383 50 c 0,35,36
 446 50 446 50 498.5 73 c 128,-1,37
 551 96 551 96 588 136.5 c 128,-1,38
 625 177 625 177 645.5 233 c 128,-1,39
 666 289 666 289 666 357 c 0,20,21
EndSplineSet
EndChar
StartChar: P
Encoding: 80 80 49
Width: 690
VWidth: 1473
Flags: W
HStem: -1 21G<70 97> 666 56<256.064 412.2>
VStem: 56 54<-0.390625 554.873> 597 54<399.228 565.496>
Fore
172 358 m 0,0,1
 155 373 155 373 155.5 386 c 128,-1,2
 156 399 156 399 168 407 c 0,3,4
 183 417 183 417 197.5 406.5 c 128,-1,5
 212 396 212 396 218 390 c 0,6,7
 258 357 258 357 321.5 338.5 c 128,-1,8
 385 320 385 320 446 326.5 c 128,-1,9
 507 333 507 333 551 370.5 c 128,-1,10
 595 408 595 408 597 485 c 0,11,12
 597 529 597 529 580 562 c 128,-1,13
 563 595 563 595 531 618.5 c 128,-1,14
 499 642 499 642 455.5 654 c 128,-1,15
 412 666 412 666 359 666 c 256,16,17
 306 666 306 666 260.5 653.5 c 128,-1,18
 215 641 215 641 182 616.5 c 128,-1,19
 149 592 149 592 129.5 556 c 128,-1,20
 110 520 110 520 110 474 c 2,21,-1
 110 38 l 2,22,23
 110 -1 110 -1 84 -1 c 0,24,25
 56 -1 56 -1 56 38 c 2,26,-1
 56 485 l 2,27,28
 56 548 56 548 82.5 593.5 c 128,-1,29
 109 639 109 639 151.5 667 c 128,-1,30
 194 695 194 695 248.5 708.5 c 128,-1,31
 303 722 303 722 359 722 c 0,32,33
 408 722 408 722 459.5 710 c 128,-1,34
 511 698 511 698 554 670 c 128,-1,35
 597 642 597 642 624 597 c 128,-1,36
 651 552 651 552 651 486 c 256,37,38
 651 420 651 420 624 375.5 c 128,-1,39
 597 331 597 331 554 306 c 128,-1,40
 511 281 511 281 457.5 274 c 128,-1,41
 404 267 404 267 351 275 c 128,-1,42
 298 283 298 283 250 304.5 c 128,-1,43
 202 326 202 326 172 358 c 0,0,1
EndSplineSet
EndChar
StartChar: Q
Encoding: 81 81 50
Width: 770
VWidth: 1473
Flags: W
HStem: -7 57<302.621 490.831> 186 56<374.156 453.523> 664 58<271.301 498.9>
VStem: 47 55<231.242 483.397> 648 50<194.709 227.5 249.5 354.907 388.626 474> 666 56<240.298 478.111>
Fore
722 357 m 0,0,1
 722 290 722 290 703 227.5 c 128,-1,2
 684 165 684 165 645 115 c 1,3,4
 661 90 661 90 674 62.5 c 128,-1,5
 687 35 687 35 698 -3 c 0,6,7
 701 -15 701 -15 696 -25 c 128,-1,8
 691 -35 691 -35 679 -38 c 0,9,10
 669 -41 669 -41 660 -36 c 128,-1,11
 651 -31 651 -31 648 -19 c 0,12,13
 638 10 638 10 628.5 32.5 c 128,-1,14
 619 55 619 55 607 74 c 1,15,16
 560 31 560 31 503 12 c 128,-1,17
 446 -7 446 -7 385 -7 c 0,18,19
 309 -7 309 -7 247.5 19.5 c 128,-1,20
 186 46 186 46 141 93.5 c 128,-1,21
 96 141 96 141 71.5 208 c 128,-1,22
 47 275 47 275 47 357 c 0,23,24
 47 436 47 436 70.5 503 c 128,-1,25
 94 570 94 570 138.5 618.5 c 128,-1,26
 183 667 183 667 245.5 694.5 c 128,-1,27
 308 722 308 722 385 722 c 0,28,29
 464 722 464 722 526.5 692.5 c 128,-1,30
 589 663 589 663 632.5 613 c 128,-1,31
 676 563 676 563 699 496.5 c 128,-1,32
 722 430 722 430 722 357 c 0,0,1
666 357 m 0,33,34
 666 418 666 418 647.5 474 c 128,-1,35
 629 530 629 530 593.5 572 c 128,-1,36
 558 614 558 614 506 639 c 128,-1,37
 454 664 454 664 385 664 c 0,38,39
 321 664 321 664 269.5 642 c 128,-1,40
 218 620 218 620 180.5 579.5 c 128,-1,41
 143 539 143 539 122.5 482.5 c 128,-1,42
 102 426 102 426 102 357 c 0,43,44
 102 289 102 289 126 225 c 128,-1,45
 150 161 150 161 200 118 c 1,46,47
 211 140 211 140 230 163.5 c 128,-1,48
 249 187 249 187 277.5 204.5 c 128,-1,49
 306 222 306 222 344 232.5 c 128,-1,50
 382 243 382 243 427 242 c 0,51,52
 438 242 438 242 458.5 237.5 c 128,-1,53
 479 233 479 233 503 224 c 128,-1,54
 527 215 527 215 554.5 199 c 128,-1,55
 582 183 582 183 607 158 c 1,56,57
 636 197 636 197 651 249.5 c 128,-1,58
 666 302 666 302 666 357 c 0,33,34
570 118 m 1,59,60
 532 156 532 156 490 170 c 128,-1,61
 448 184 448 184 424 186 c 0,62,63
 385 187 385 187 354 178 c 128,-1,64
 323 169 323 169 300 153.5 c 128,-1,65
 277 138 277 138 263 119 c 128,-1,66
 249 100 249 100 245 84 c 1,67,68
 275 65 275 65 312 57.5 c 128,-1,69
 349 50 349 50 385 50 c 0,70,71
 438 50 438 50 485.5 67 c 128,-1,72
 533 84 533 84 570 118 c 1,59,60
EndSplineSet
EndChar
StartChar: R
Encoding: 82 82 51
Width: 711
VWidth: 1473
Flags: W
HStem: -1 21G<82 109> 666 56<268.064 460.688>
VStem: 68 54<-0.390625 554.873> 608 55<397.006 572.246>
Fore
367 283 m 1,0,1
 402 270 402 270 446.5 234.5 c 128,-1,2
 491 199 491 199 530.5 159 c 128,-1,3
 570 119 570 119 599.5 83 c 128,-1,4
 629 47 629 47 633 32 c 0,5,6
 636 22 636 22 636 13 c 128,-1,7
 636 4 636 4 626 -1 c 0,8,9
 605 -13 605 -13 586 12 c 0,10,11
 535 80 535 80 477.5 133 c 128,-1,12
 420 186 420 186 368.5 225 c 128,-1,13
 317 264 317 264 278 287.5 c 128,-1,14
 239 311 239 311 225 320 c 0,15,16
 208 329 208 329 202.5 342 c 128,-1,17
 197 355 197 355 206 367 c 0,18,19
 218 380 218 380 231.5 376.5 c 128,-1,20
 245 373 245 373 252 370 c 0,21,22
 318 336 318 336 381.5 326.5 c 128,-1,23
 445 317 445 317 496 331 c 128,-1,24
 547 345 547 345 577.5 384 c 128,-1,25
 608 423 608 423 608 485 c 0,26,27
 608 573 608 573 542.5 619.5 c 128,-1,28
 477 666 477 666 371 666 c 0,29,30
 318 666 318 666 272.5 653.5 c 128,-1,31
 227 641 227 641 194 616.5 c 128,-1,32
 161 592 161 592 141.5 556 c 128,-1,33
 122 520 122 520 122 474 c 2,34,-1
 122 38 l 2,35,36
 122 -1 122 -1 96 -1 c 0,37,38
 68 -1 68 -1 68 38 c 2,39,-1
 68 485 l 2,40,41
 68 548 68 548 94.5 593.5 c 128,-1,42
 121 639 121 639 163.5 667 c 128,-1,43
 206 695 206 695 260.5 708.5 c 128,-1,44
 315 722 315 722 371 722 c 0,45,46
 420 722 420 722 471.5 710 c 128,-1,47
 523 698 523 698 565.5 670 c 128,-1,48
 608 642 608 642 635.5 597 c 128,-1,49
 663 552 663 552 663 486 c 0,50,51
 663 429 663 429 640 384.5 c 128,-1,52
 617 340 617 340 577.5 313.5 c 128,-1,53
 538 287 538 287 483.5 279 c 128,-1,54
 429 271 429 271 367 283 c 1,0,1
EndSplineSet
EndChar
StartChar: S
Encoding: 83 83 52
Width: 642
VWidth: 1473
Flags: W
HStem: -7 57<189.865 372.774> 327 58<265.342 370.091> 661 59<240.765 453.014>
VStem: 37 57<451.686 577.297> 542 58<129.08 259.575>
Fore
600 199 m 0,0,1
 600 143 600 143 576 104 c 128,-1,2
 552 65 552 65 512.5 40.5 c 128,-1,3
 473 16 473 16 422 4.5 c 128,-1,4
 371 -7 371 -7 317 -7 c 0,5,6
 224 -7 224 -7 149.5 26.5 c 128,-1,7
 75 60 75 60 41 116 c 0,8,9
 34 128 34 128 37 139 c 128,-1,10
 40 150 40 150 50 156 c 0,11,12
 62 164 62 164 73 160 c 128,-1,13
 84 156 84 156 90 146 c 0,14,15
 115 103 115 103 177.5 76.5 c 128,-1,16
 240 50 240 50 317 50 c 0,17,18
 358 50 358 50 398 58 c 128,-1,19
 438 66 438 66 470 84 c 128,-1,20
 502 102 502 102 522 130 c 128,-1,21
 542 158 542 158 542 199 c 0,22,23
 542 236 542 236 519 261 c 128,-1,24
 496 286 496 286 462.5 300.5 c 128,-1,25
 429 315 429 315 390.5 321 c 128,-1,26
 352 327 352 327 321 327 c 0,27,28
 271 327 271 327 220 337.5 c 128,-1,29
 169 348 169 348 128.5 370 c 128,-1,30
 88 392 88 392 62.5 427.5 c 128,-1,31
 37 463 37 463 37 513 c 0,32,33
 37 558 37 558 57.5 595.5 c 128,-1,34
 78 633 78 633 115.5 661 c 128,-1,35
 153 689 153 689 207 704.5 c 128,-1,36
 261 720 261 720 326 720 c 0,37,38
 418 720 418 720 489.5 687 c 128,-1,39
 561 654 561 654 595 598 c 0,40,41
 601 588 601 588 598 577 c 128,-1,42
 595 566 595 566 585 560 c 0,43,44
 575 552 575 552 563.5 555 c 128,-1,45
 552 558 552 558 545 569 c 0,46,47
 520 611 520 611 461 636 c 128,-1,48
 402 661 402 661 326 661 c 0,49,50
 278 661 278 661 237 651 c 128,-1,51
 196 641 196 641 163.5 622 c 128,-1,52
 131 603 131 603 112.5 575.5 c 128,-1,53
 94 548 94 548 94 513 c 0,54,55
 94 476 94 476 115.5 451.5 c 128,-1,56
 137 427 137 427 170 412.5 c 128,-1,57
 203 398 203 398 243 391.5 c 128,-1,58
 283 385 283 385 321 385 c 0,59,60
 361 385 361 385 409.5 375 c 128,-1,61
 458 365 458 365 500 344 c 128,-1,62
 542 323 542 323 571 287.5 c 128,-1,63
 600 252 600 252 600 199 c 0,0,1
EndSplineSet
EndChar
StartChar: T
Encoding: 84 84 53
Width: 637
VWidth: 1473
Flags: W
HStem: -4 21G<306.5 334> 576 115.5<13.4477 120> 667 52<167.454 293 348 485.12>
VStem: 293 55<-3.39062 667>
Fore
348 35 m 2,0,1
 348 -4 348 -4 320 -4 c 0,2,3
 293 -4 293 -4 293 35 c 2,4,-1
 293 667 l 1,5,6
 228 664 228 664 165.5 650 c 128,-1,7
 103 636 103 636 57 586 c 1,8,9
 52 577 52 577 40 576 c 128,-1,10
 28 575 28 575 18 582 c 0,11,12
 9 589 9 589 9 599.5 c 128,-1,13
 9 610 9 610 13 617 c 0,14,15
 43 664 43 664 120 691.5 c 128,-1,16
 197 719 197 719 320 719 c 0,17,18
 445 719 445 719 521 691.5 c 128,-1,19
 597 664 597 664 626 617 c 0,20,21
 631 610 631 610 631 599.5 c 128,-1,22
 631 589 631 589 622 582 c 0,23,24
 611 575 611 575 600 577 c 128,-1,25
 589 579 589 579 582 586 c 0,26,27
 547 628 547 628 487 647 c 128,-1,28
 427 666 427 666 348 667 c 1,29,-1
 348 35 l 2,0,1
EndSplineSet
EndChar
StartChar: U
Encoding: 85 85 54
Width: 741
VWidth: 1473
Flags: W
HStem: -7 56<244.518 497.469>
VStem: 68 54<167.327 205 216 232.632 232.632 237.331 237.331 714.375> 617 55<164.328 202.5 214 230.61 230.61 246.609 246.609 714.375>
Fore
672 270 m 2,0,1
 672 267 672 267 672 248.5 c 128,-1,2
 672 230 672 230 666.5 202.5 c 128,-1,3
 661 175 661 175 648 142.5 c 128,-1,4
 635 110 635 110 607 80 c 0,5,6
 529 -7 529 -7 371 -7 c 256,7,8
 214 -7 214 -7 134 80 c 0,9,10
 106 110 106 110 92 143.5 c 128,-1,11
 78 177 78 177 73 205 c 128,-1,12
 68 233 68 233 68 251.5 c 128,-1,13
 68 270 68 270 68 273 c 2,14,-1
 68 675 l 2,15,16
 68 715 68 715 96 715 c 0,17,18
 122 715 122 715 122 675 c 2,19,-1
 122 270 l 2,20,21
 122 268 122 268 122 253.5 c 128,-1,22
 122 239 122 239 126.5 216 c 128,-1,23
 131 193 131 193 142 166.5 c 128,-1,24
 153 140 153 140 175 116 c 0,25,26
 240 49 240 49 371 49 c 256,27,28
 502 49 502 49 566 116 c 0,29,30
 586 137 586 137 596.5 163.5 c 128,-1,31
 607 190 607 190 611 214 c 0,32,33
 617 240 617 240 617 267 c 2,34,-1
 617 675 l 2,35,36
 617 715 617 715 645 715 c 0,37,38
 672 715 672 715 672 675 c 2,39,-1
 672 270 l 2,0,1
EndSplineSet
EndChar
StartChar: V
Encoding: 86 86 55
Width: 630
VWidth: 1473
Flags: W
HStem: 0.5 47.5<242.141 267.5 267.5 292.365 292.365 299.577 295.971 337.392 333.908 340.877 340.877 390.859>
Fore
519 206 m 2,0,1
 502 128 502 128 476.5 86 c 128,-1,2
 451 44 451 44 422 24 c 128,-1,3
 393 4 393 4 365 0.5 c 128,-1,4
 337 -3 337 -3 317 -3 c 256,5,6
 296 -3 296 -3 267.5 0.5 c 128,-1,7
 239 4 239 4 210 24 c 128,-1,8
 181 44 181 44 155.5 86 c 128,-1,9
 130 128 130 128 113 206 c 2,10,-1
 15 670 l 2,11,12
 12 688 12 688 15 699 c 128,-1,13
 18 710 18 710 34 715 c 0,14,15
 46 719 46 719 56 708 c 128,-1,16
 66 697 66 697 71 676 c 2,17,-1
 169 206 l 2,18,19
 183 146 183 146 202 113 c 128,-1,20
 221 80 221 80 241.5 65 c 128,-1,21
 262 50 262 50 282 48 c 128,-1,22
 302 46 302 46 317 46 c 256,23,24
 331 46 331 46 351 48 c 128,-1,25
 371 50 371 50 391.5 65 c 128,-1,26
 412 80 412 80 431.5 113 c 128,-1,27
 451 146 451 146 464 206 c 2,28,-1
 563 676 l 2,29,30
 567 697 567 697 576.5 708 c 128,-1,31
 586 719 586 719 600 715 c 0,32,33
 616 710 616 710 618 699 c 128,-1,34
 620 688 620 688 617 670 c 2,35,-1
 519 206 l 2,0,1
EndSplineSet
EndChar
StartChar: W
Encoding: 87 87 56
Width: 972
VWidth: 1473
Flags: W
HStem: -18 56<243.617 352.487 626.167 735.569> 697 20G<63.5 91 472 500 882 909>
VStem: 50 55<129.519 716.391> 458 56<129.519 716.391> 868 54<127.52 716.391>
Fore
922 678 m 2,0,-1
 922 208 l 2,1,2
 922 134 922 134 896.5 89 c 128,-1,3
 871 44 871 44 834.5 20.5 c 128,-1,4
 798 -3 798 -3 759 -10.5 c 128,-1,5
 720 -18 720 -18 694 -18 c 0,6,7
 623 -18 623 -18 566.5 15.5 c 128,-1,8
 510 49 510 49 486 105 c 1,9,10
 466 56 466 56 413.5 19 c 128,-1,11
 361 -18 361 -18 286 -18 c 0,12,13
 259 -18 259 -18 218.5 -10.5 c 128,-1,14
 178 -3 178 -3 140.5 20.5 c 128,-1,15
 103 44 103 44 76.5 89 c 128,-1,16
 50 134 50 134 50 208 c 2,17,-1
 50 678 l 2,18,19
 50 717 50 717 77 717 c 0,20,21
 105 717 105 717 105 678 c 2,22,-1
 105 208 l 2,23,24
 105 161 105 161 119.5 128.5 c 128,-1,25
 134 96 134 96 160 76 c 128,-1,26
 186 56 186 56 218 47 c 128,-1,27
 250 38 250 38 286 38 c 0,28,29
 318 38 318 38 349 47 c 128,-1,30
 380 56 380 56 404.5 76 c 128,-1,31
 429 96 429 96 443.5 128.5 c 128,-1,32
 458 161 458 161 458 208 c 2,33,-1
 458 678 l 2,34,35
 458 717 458 717 486 717 c 256,36,37
 514 717 514 717 514 678 c 2,38,-1
 514 208 l 2,39,40
 514 156 514 156 532 123.5 c 128,-1,41
 550 91 550 91 576.5 72 c 128,-1,42
 603 53 603 53 634.5 45.5 c 128,-1,43
 666 38 666 38 694 38 c 0,44,45
 728 38 728 38 759 46.5 c 128,-1,46
 790 55 790 55 814 74.5 c 128,-1,47
 838 94 838 94 853 126.5 c 128,-1,48
 868 159 868 159 868 208 c 2,49,-1
 868 678 l 2,50,51
 868 717 868 717 896 717 c 0,52,53
 922 717 922 717 922 678 c 2,0,-1
EndSplineSet
EndChar
StartChar: X
Encoding: 88 88 57
Width: 639
VWidth: 1473
Flags: W
HStem: 339 57<288.531 355.984>
Fore
622 34 m 1,0,1
 626 24 626 24 622.5 12.5 c 128,-1,2
 619 1 619 1 608 -4 c 0,3,4
 597 -10 597 -10 586 -6.5 c 128,-1,5
 575 -3 575 -3 570 9 c 2,6,-1
 455 240 l 2,7,8
 423 301 423 301 390.5 320 c 128,-1,9
 358 339 358 339 323 339 c 0,10,11
 286 339 286 339 253.5 320 c 128,-1,12
 221 301 221 301 189 240 c 2,13,-1
 74 9 l 2,14,15
 69 -3 69 -3 58 -6.5 c 128,-1,16
 47 -10 47 -10 35 -4 c 0,17,18
 25 1 25 1 21.5 12.5 c 128,-1,19
 18 24 18 24 22 34 c 2,20,-1
 143 270 l 2,21,22
 153 287 153 287 161 300.5 c 128,-1,23
 169 314 169 314 177.5 325 c 128,-1,24
 186 336 186 336 197.5 346.5 c 128,-1,25
 209 357 209 357 227 367 c 1,26,27
 181 395 181 395 138 467 c 2,28,-1
 22 676 l 2,29,30
 16 688 16 688 20.5 699 c 128,-1,31
 25 710 25 710 35 716 c 1,32,33
 47 720 47 720 58 716.5 c 128,-1,34
 69 713 69 713 74 703 c 2,35,-1
 189 488 l 2,36,37
 206 455 206 455 222.5 436.5 c 128,-1,38
 239 418 239 418 255 409.5 c 128,-1,39
 271 401 271 401 288 398.5 c 128,-1,40
 305 396 305 396 323 396 c 256,41,42
 340 396 340 396 356.5 398.5 c 128,-1,43
 373 401 373 401 389 409.5 c 128,-1,44
 405 418 405 418 421.5 436.5 c 128,-1,45
 438 455 438 455 455 488 c 2,46,-1
 570 703 l 2,47,48
 575 713 575 713 586 716.5 c 132,-1,49
 597 720 597 720 608 716 c 5,50,51
 619 710 619 710 623.5 699 c 128,-1,52
 628 688 628 688 622 676 c 2,53,-1
 505 466 l 2,54,55
 463 395 463 395 417 367 c 1,56,57
 440 354 440 354 461 331 c 128,-1,58
 482 308 482 308 505 267 c 2,59,-1
 622 34 l 1,0,1
EndSplineSet
EndChar
StartChar: Y
Encoding: 89 89 58
Width: 655
VWidth: 1473
Flags: W
HStem: 0 56<149.625 490.477> 227 56<216.83 443.256> 696 20G<57.5 84 572 599.5>
VStem: 43 53<401.327 439 450 466.632 466.632 472.35 472.35 715.209> 558 55<121.779 324 428.76 715.375>
Fore
613 193 m 1,0,1
 613 110 613 110 552 57 c 0,2,3
 492 0 492 0 408 0 c 2,4,-1
 189 0 l 2,5,6
 149 0 149 0 149 28 c 256,7,8
 149 56 149 56 189 56 c 2,9,-1
 408 56 l 2,10,11
 471 56 471 56 514 94 c 0,12,13
 558 136 558 136 558 193 c 2,14,-1
 558 324 l 1,15,16
 522 280 522 280 464.5 253.5 c 128,-1,17
 407 227 407 227 329 227 c 256,18,19
 250 227 250 227 199.5 249 c 128,-1,20
 149 271 149 271 109 314 c 0,21,22
 81 345 81 345 67 378 c 128,-1,23
 53 411 53 411 48 439 c 128,-1,24
 43 467 43 467 43 485.5 c 128,-1,25
 43 504 43 504 43 507 c 2,26,-1
 43 676 l 2,27,28
 43 716 43 716 72 716 c 0,29,30
 96 716 96 716 96 676 c 2,31,-1
 96 504 l 2,32,33
 96 502 96 502 96 487.5 c 128,-1,34
 96 473 96 473 101 450 c 128,-1,35
 106 427 106 427 117 400.5 c 128,-1,36
 128 374 128 374 150 351 c 0,37,38
 181 317 181 317 221.5 300 c 128,-1,39
 262 283 262 283 329 283 c 256,40,41
 395 283 395 283 440 301.5 c 128,-1,42
 485 320 485 320 516 354 c 0,43,44
 539 379 539 379 548.5 407 c 128,-1,45
 558 435 558 435 558 457 c 2,46,-1
 558 676 l 2,47,48
 558 716 558 716 586 716 c 0,49,50
 613 716 613 716 613 676 c 2,51,-1
 613 193 l 1,0,1
EndSplineSet
EndChar
StartChar: Z
Encoding: 90 90 59
Width: 679
VWidth: 1473
Flags: W
HStem: 0 55<113.442 635.391> 663 54<40.625 563.073>
VStem: 580 56<599.688 653.201>
Fore
100 197 m 0,0,1
 221 295 221 295 317 374 c 0,2,3
 358 408 358 408 397 440.5 c 128,-1,4
 436 473 436 473 467.5 499.5 c 128,-1,5
 499 526 499 526 519 542 c 128,-1,6
 539 558 539 558 542 561 c 0,7,8
 561 577 561 577 572 592 c 128,-1,9
 583 607 583 607 580 625 c 0,10,11
 577 644 577 644 563.5 653.5 c 128,-1,12
 550 663 550 663 516 663 c 2,13,-1
 80 663 l 2,14,15
 40 663 40 663 40 689 c 0,16,17
 40 717 40 717 80 717 c 2,18,-1
 516 717 l 2,19,20
 567 717 567 717 601.5 694.5 c 128,-1,21
 636 672 636 672 636 625 c 0,22,23
 636 591 636 591 621.5 569.5 c 128,-1,24
 607 548 607 548 576 520 c 2,25,26
 557 504 l 2,27,28
 538 488 538 488 507 462 c 128,-1,29
 476 436 476 436 436 403.5 c 128,-1,30
 396 371 396 371 355 337 c 0,31,32
 258 256 258 256 134 156 c 0,33,34
 91 125 91 125 96 93 c 0,35,36
 99 74 99 74 113 64.5 c 128,-1,37
 127 55 127 55 161 55 c 2,38,-1
 597 55 l 2,39,40
 636 55 636 55 636 28 c 0,41,42
 636 0 636 0 597 0 c 2,43,-1
 161 0 l 2,44,45
 109 0 109 0 74.5 23 c 128,-1,46
 40 46 40 46 40 93 c 0,47,48
 40 127 40 127 54.5 148 c 128,-1,49
 69 169 69 169 100 197 c 0,0,1
EndSplineSet
EndChar
StartChar: bracketleft
Encoding: 91 91 60
Width: 362
VWidth: 1473
Flags: W
HStem: -181 54<136 329.375> 706 54<134 329.375>
VStem: 81 55<-127 706> 81 249<-158.472 -128.976 707.976 737.472>
Fore
330 -155 m 0,0,1
 330 -181 330 -181 290 -181 c 2,2,-1
 121 -181 l 2,3,4
 97 -181 97 -181 89 -168 c 128,-1,5
 81 -155 81 -155 81 -137 c 2,6,-1
 81 716 l 2,7,8
 81 734 81 734 89 747 c 128,-1,9
 97 760 97 760 121 760 c 2,10,-1
 290 760 l 2,11,12
 330 760 330 760 330 734 c 0,13,14
 330 706 330 706 290 706 c 2,15,-1
 134 706 l 1,16,-1
 136 -127 l 1,17,-1
 290 -127 l 2,18,19
 330 -127 330 -127 330 -155 c 0,0,1
EndSplineSet
EndChar
StartChar: backslash
Encoding: 92 92 61
Width: 312
VWidth: 1473
Flags: W
VStem: -21.5 365.5<6.5 725.5 725.5 725.5>
Fore
343 25 m 1,0,1
 348 16 348 16 344 6.5 c 128,-1,2
 340 -3 340 -3 331 -7 c 0,3,4
 321 -12 321 -12 311.5 -8 c 128,-1,5
 302 -4 302 -4 298 4 c 2,6,-1
 -21 706 l 2,7,8
 -25 716 -25 716 -21.5 725.5 c 128,-1,9
 -18 735 -18 735 -9 738 c 0,10,11
 1 742 1 742 11 739.5 c 128,-1,12
 21 737 21 737 24 726 c 1,13,-1
 343 25 l 1,0,1
EndSplineSet
EndChar
StartChar: bracketright
Encoding: 93 93 62
Width: 360
VWidth: 1473
Flags: W
HStem: -181 54<29.625 225> 706 54<31.5938 225>
VStem: 29 251<-158.472 -128.976 708.215 737.472> 225 55<-127 706>
Fore
280 -137 m 2,0,1
 280 -155 280 -155 272 -168 c 128,-1,2
 264 -181 264 -181 239 -181 c 2,3,-1
 69 -181 l 2,4,5
 29 -181 29 -181 29 -155 c 0,6,7
 29 -127 29 -127 69 -127 c 2,8,-1
 225 -127 l 1,9,-1
 225 706 l 1,10,-1
 69 706 l 2,11,12
 31 706 31 706 31 734 c 0,13,14
 31 760 31 760 69 760 c 2,15,-1
 239 760 l 2,16,17
 264 760 264 760 272 747 c 128,-1,18
 280 734 280 734 280 716 c 2,19,-1
 280 -137 l 2,0,1
EndSplineSet
EndChar
StartChar: asciicircum
Encoding: 94 94 63
Width: 677
VWidth: 1473
Flags: W
HStem: 253.5 453.5<147.5 315 315 315>
VStem: 118 435<280 281 276 286 286 286>
Fore
552 289 m 1,0,1
 554 281 554 281 553 276 c 128,-1,2
 552 271 552 271 545 264 c 0,3,4
 536 255 536 255 524.5 255 c 128,-1,5
 513 255 513 255 504 264 c 1,6,-1
 336 647 l 1,7,-1
 168 264 l 1,8,9
 159 255 159 255 147.5 253.5 c 128,-1,10
 136 252 136 252 127 261 c 0,11,12
 119 268 119 268 118.5 274 c 128,-1,13
 118 280 118 280 118 286 c 1,14,-1
 315 707 l 1,15,16
 336 728 336 728 357 707 c 1,17,-1
 552 289 l 1,0,1
EndSplineSet
EndChar
StartChar: underscore
Encoding: 95 95 64
Width: 677
VWidth: 1473
Flags: W
HStem: -124 50<0 678>
Fore
0 -124 m 1,0,-1
 0 -74 l 1,1,-1
 678 -74 l 1,2,-1
 678 -124 l 1,3,-1
 0 -124 l 1,0,-1
EndSplineSet
EndChar
StartChar: grave
Encoding: 96 96 65
Width: 223
VWidth: 1473
Flags: W
HStem: 480 248<84.0479 139.25>
VStem: 82 59<481.504 727.048>
Fore
141 520 m 1,0,1
 144 482 144 482 110 480 c 0,2,3
 82 480 82 480 82 520 c 2,4,-1
 82 689 l 2,5,6
 81 728 81 728 113 728 c 0,7,8
 141 728 141 728 141 689 c 2,9,-1
 141 520 l 1,0,1
EndSplineSet
EndChar
StartChar: a
Encoding: 97 97 66
Width: 633
VWidth: 1473
Flags: W
HStem: -7 50<172.383 407.753> 305 54<220.878 399.231> 474 55<205.167 415.552>
VStem: 47 52<137.383 229.733> 514 56<14.046 74 129.718 218.766 267 335.405>
Fore
570 27 m 2,0,1
 570 15 570 15 561 7.5 c 128,-1,2
 552 0 552 0 541 0 c 256,3,4
 529 0 529 0 522.5 7.5 c 128,-1,5
 516 15 516 15 514 27 c 2,6,-1
 514 74 l 1,7,8
 476 35 476 35 420.5 14 c 128,-1,9
 365 -7 365 -7 290 -7 c 0,10,11
 218 -7 218 -7 171 10.5 c 128,-1,12
 124 28 124 28 96 54.5 c 128,-1,13
 68 81 68 81 57 113.5 c 128,-1,14
 46 146 46 146 47 175 c 0,15,16
 52 259 52 259 119 309 c 128,-1,17
 186 359 186 359 306 359 c 0,18,19
 355 358 355 358 396 348 c 0,20,21
 432 339 432 339 466.5 320 c 128,-1,22
 501 301 501 301 514 267 c 1,23,24
 517 312 517 312 509 348.5 c 128,-1,25
 501 385 501 385 473 414 c 0,26,27
 417 474 417 474 289 474 c 0,28,29
 237 474 237 474 199 462.5 c 128,-1,30
 161 451 161 451 122 430 c 0,31,32
 110 423 110 423 99 421.5 c 128,-1,33
 88 420 88 420 80 429 c 128,-1,34
 72 438 72 438 73.5 450.5 c 128,-1,35
 75 463 75 463 91 474 c 0,36,37
 124 495 124 495 172.5 512 c 128,-1,38
 221 529 221 529 292 529 c 0,39,40
 442 529 442 529 514 452 c 0,41,42
 551 414 551 414 560.5 370 c 128,-1,43
 570 326 570 326 570 289 c 2,44,-1
 570 27 l 2,0,1
507 172 m 0,45,46
 508 196 508 196 499.5 219.5 c 128,-1,47
 491 243 491 243 468 262 c 128,-1,48
 445 281 445 281 405 293 c 128,-1,49
 365 305 365 305 303 305 c 0,50,51
 265 305 265 305 229 297 c 128,-1,52
 193 289 193 289 164.5 272 c 128,-1,53
 136 255 136 255 118 230.5 c 128,-1,54
 100 206 100 206 99 175 c 0,55,56
 96 108 96 108 150.5 75.5 c 128,-1,57
 205 43 205 43 298 43 c 0,58,59
 358 43 358 43 398 55.5 c 128,-1,60
 438 68 438 68 462 87 c 128,-1,61
 486 106 486 106 495.5 129 c 128,-1,62
 505 152 505 152 507 172 c 0,45,46
EndSplineSet
Substitution2: "Single Substitution lookup 22 subtable" uni0E38
Substitution2: "Single Substitution lookup 22 subtable" uni0E38
EndChar
StartChar: b
Encoding: 98 98 67
Width: 674
VWidth: 1473
Flags: W
HStem: -4 57<231.714 460.143> 468 58<267.903 459.798> 826 20G<88 108>
VStem: 65 57<7.75732 91 165.054 355.777 433 831.068> 570 56<193.516 360.058>
Fore
626 261 m 0,0,1
 626 205 626 205 607.5 156.5 c 128,-1,2
 589 108 589 108 553 72.5 c 128,-1,3
 517 37 517 37 464.5 16.5 c 128,-1,4
 412 -4 412 -4 346 -4 c 0,5,6
 194 -4 194 -4 121 91 c 1,7,-1
 121 22 l 2,8,9
 121 10 121 10 113 1.5 c 128,-1,10
 105 -7 105 -7 93 -7 c 256,11,12
 81 -7 81 -7 73 1.5 c 128,-1,13
 65 10 65 10 65 22 c 2,14,-1
 65 818 l 2,15,16
 65 829 65 829 73.5 837.5 c 128,-1,17
 82 846 82 846 94 846 c 0,18,19
 122 846 122 846 122 818 c 2,20,-1
 122 433 l 1,21,22
 156 474 156 474 210 500 c 128,-1,23
 264 526 264 526 346 526 c 0,24,25
 414 526 414 526 466.5 505.5 c 128,-1,26
 519 485 519 485 554 448.5 c 128,-1,27
 589 412 589 412 607.5 363.5 c 128,-1,28
 626 315 626 315 626 261 c 0,0,1
570 261 m 0,29,30
 570 352 570 352 512.5 410 c 128,-1,31
 455 468 455 468 346 468 c 0,32,33
 306 468 306 468 265.5 457 c 128,-1,34
 225 446 225 446 193 421 c 128,-1,35
 161 396 161 396 141 357 c 128,-1,36
 121 318 121 318 122 261 c 0,37,38
 122 171 122 171 179 112 c 128,-1,39
 236 53 236 53 346 53 c 0,40,41
 426 53 426 53 471 80.5 c 128,-1,42
 516 108 516 108 538 144 c 128,-1,43
 560 180 560 180 565 213.5 c 128,-1,44
 570 247 570 247 570 261 c 0,29,30
EndSplineSet
Substitution2: "Single Substitution lookup 22 subtable" uni0E39
Substitution2: "Single Substitution lookup 22 subtable" uni0E39
EndChar
StartChar: c
Encoding: 99 99 68
Width: 595
VWidth: 1473
Flags: W
HStem: -4 57<214.189 448.612> 468 58<213.074 448.224>
VStem: 46 56<162.046 356.699>
Fore
548 443 m 0,0,1
 555 435 555 435 554.5 422.5 c 128,-1,2
 554 410 554 410 545 402 c 0,3,4
 538 395 538 395 526 395.5 c 128,-1,5
 514 396 514 396 507 405 c 0,6,7
 452 468 452 468 326 468 c 0,8,9
 222 468 222 468 162 413 c 128,-1,10
 102 358 102 358 102 261 c 0,11,12
 102 169 102 169 161 111 c 128,-1,13
 220 53 220 53 326 53 c 0,14,15
 452 53 452 53 507 116 c 0,16,17
 514 125 514 125 525 126 c 128,-1,18
 536 127 536 127 545 118 c 0,19,20
 554 110 554 110 554 98.5 c 128,-1,21
 554 87 554 87 547 78 c 0,22,23
 476 -4 476 -4 326 -4 c 0,24,25
 264 -4 264 -4 212.5 16.5 c 128,-1,26
 161 37 161 37 124 72.5 c 128,-1,27
 87 108 87 108 66.5 156.5 c 128,-1,28
 46 205 46 205 46 261 c 0,29,30
 46 306 46 306 62 353.5 c 128,-1,31
 78 401 78 401 112.5 439 c 128,-1,32
 147 477 147 477 199.5 501.5 c 128,-1,33
 252 526 252 526 326 526 c 0,34,35
 474 526 474 526 548 443 c 0,0,1
EndSplineSet
Substitution2: "Single Substitution lookup 22 subtable" uni0E3A
Substitution2: "Single Substitution lookup 22 subtable" uni0E3A
EndChar
StartChar: d
Encoding: 100 100 69
Width: 674
VWidth: 1473
Flags: W
HStem: -3 58<210.764 440.042> 470 57<212.202 402.75> 827 20G<563.5 583>
VStem: 46 56<194.829 361.981> 550 57<9.54199 93 164.01 357.777 435 832.14>
Fore
46 262 m 0,0,1
 46 317 46 317 64 365.5 c 128,-1,2
 82 414 82 414 117.5 450 c 128,-1,3
 153 486 153 486 205.5 506.5 c 128,-1,4
 258 527 258 527 326 527 c 0,5,6
 408 527 408 527 462 501.5 c 128,-1,7
 516 476 516 476 550 435 c 1,8,-1
 550 819 l 2,9,10
 550 847 550 847 577 847 c 0,11,12
 589 847 589 847 598 839 c 128,-1,13
 607 831 607 831 607 819 c 2,14,-1
 607 24 l 2,15,16
 607 12 607 12 599 3 c 128,-1,17
 591 -6 591 -6 579 -6 c 256,18,19
 567 -6 567 -6 559 3 c 128,-1,20
 551 12 551 12 551 24 c 2,21,-1
 551 93 l 1,22,23
 477 -3 477 -3 326 -3 c 0,24,25
 259 -3 259 -3 207 17.5 c 128,-1,26
 155 38 155 38 118.5 73.5 c 128,-1,27
 82 109 82 109 64 157.5 c 128,-1,28
 46 206 46 206 46 262 c 0,0,1
102 262 m 0,29,30
 102 249 102 249 107 215 c 128,-1,31
 112 181 112 181 134 145 c 128,-1,32
 156 109 156 109 201 82 c 128,-1,33
 246 55 246 55 326 55 c 0,34,35
 436 55 436 55 493 113.5 c 128,-1,36
 550 172 550 172 550 262 c 0,37,38
 551 320 551 320 531 359 c 128,-1,39
 511 398 511 398 478.5 423 c 128,-1,40
 446 448 446 448 405.5 459 c 128,-1,41
 365 470 365 470 326 470 c 0,42,43
 217 470 217 470 159.5 412 c 128,-1,44
 102 354 102 354 102 262 c 0,29,30
EndSplineSet
EndChar
StartChar: e
Encoding: 101 101 70
Width: 645
VWidth: 1473
Flags: W
HStem: -6 58<220.082 440.648> 239 56<106 525.295> 474 58<216.983 434.331>
VStem: 49 56<160.411 239 295 311.075>
Fore
560 141 m 1,0,1
 569 133 569 133 569 117.5 c 128,-1,2
 569 102 569 102 558 94 c 1,3,4
 523 47 523 47 465.5 20.5 c 128,-1,5
 408 -6 408 -6 329 -6 c 0,6,7
 199 -6 199 -6 124 67.5 c 128,-1,8
 49 141 49 141 49 267 c 0,9,10
 49 314 49 314 65.5 361 c 128,-1,11
 82 408 82 408 117 446.5 c 128,-1,12
 152 485 152 485 203.5 508.5 c 128,-1,13
 255 532 255 532 324 532 c 0,14,15
 408 532 408 532 459 507 c 128,-1,16
 510 482 510 482 535 457 c 0,17,18
 577 412 577 412 587.5 372.5 c 128,-1,19
 598 333 598 333 589 303 c 128,-1,20
 580 273 580 273 558 256 c 128,-1,21
 536 239 536 239 516 239 c 2,22,-1
 105 239 l 1,23,24
 112 150 112 150 174.5 101 c 128,-1,25
 237 52 237 52 329 52 c 0,26,27
 395 52 395 52 441.5 74 c 128,-1,28
 488 96 488 96 516 130 c 0,29,30
 524 141 524 141 536 145.5 c 128,-1,31
 548 150 548 150 560 141 c 1,0,1
505 295 m 2,32,33
 519 295 519 295 525.5 308 c 128,-1,34
 532 321 532 321 530.5 340 c 128,-1,35
 529 359 529 359 519.5 380.5 c 128,-1,36
 510 402 510 402 494 417 c 0,37,38
 473 435 473 435 433 454.5 c 128,-1,39
 393 474 393 474 324 474 c 0,40,41
 258 474 258 474 216 452 c 128,-1,42
 174 430 174 430 150.5 400 c 128,-1,43
 127 370 127 370 117.5 339.5 c 128,-1,44
 108 309 108 309 106 295 c 1,45,-1
 505 295 l 2,32,33
EndSplineSet
EndChar
StartChar: f
Encoding: 102 102 71
Width: 303
VWidth: 1473
Flags: W
HStem: -6 21G<91 118> 460 56<195.188 286.249> 787 56<199.785 345.249>
VStem: 77 54<-5.375 378.312 468 678.25> 77 269<34 816 468 678.25>
Fore
346 816 m 0,0,1
 346 787 346 787 308 787 c 2,2,-1
 264 787 l 2,3,4
 224 787 224 787 199 775 c 128,-1,5
 174 763 174 763 158.5 742.5 c 128,-1,6
 143 722 143 722 137 693 c 128,-1,7
 131 664 131 664 131 631 c 2,8,-1
 131 468 l 1,9,10
 143 486 143 486 157.5 495.5 c 128,-1,11
 172 505 172 505 187 510 c 0,12,13
 203 516 203 516 222 516 c 2,14,-1
 249 516 l 2,15,16
 287 516 287 516 287 489 c 0,17,18
 287 460 287 460 249 460 c 2,19,-1
 218 460 l 2,20,21
 193 460 193 460 176 448 c 128,-1,22
 159 436 159 436 149.5 419 c 128,-1,23
 140 402 140 402 135.5 383 c 128,-1,24
 131 364 131 364 131 349 c 2,25,-1
 131 34 l 2,26,27
 131 -6 131 -6 105 -6 c 0,28,29
 77 -6 77 -6 77 34 c 2,30,-1
 77 631 l 2,31,32
 77 732 77 732 127.5 787.5 c 128,-1,33
 178 843 178 843 275 843 c 2,34,-1
 308 843 l 2,35,36
 346 843 346 843 346 816 c 0,0,1
EndSplineSet
EndChar
StartChar: g
Encoding: 103 103 72
Width: 667
VWidth: 1473
Flags: W
HStem: -260 54<296.473 379.892> -3 58<212.202 402.896> 470 57<211.585 440.042>
VStem: 46 56<162.933 329.171> 551 54<-88.9336 99 167.223 357.946 432 515.243>
Fore
605 -6 m 2,0,1
 605 -99 605 -99 558 -162 c 128,-1,2
 511 -225 511 -225 424 -249 c 0,3,4
 383 -261 383 -261 340.5 -260 c 128,-1,5
 298 -259 298 -259 259.5 -249.5 c 128,-1,6
 221 -240 221 -240 191 -221.5 c 128,-1,7
 161 -203 161 -203 146 -177 c 0,8,9
 140 -166 140 -166 143 -156 c 128,-1,10
 146 -146 146 -146 156 -140 c 0,11,12
 165 -134 165 -134 176 -137 c 128,-1,13
 187 -140 187 -140 193 -149 c 0,14,15
 202 -165 202 -165 224 -178.5 c 128,-1,16
 246 -192 246 -192 275.5 -199 c 128,-1,17
 305 -206 305 -206 339.5 -206 c 128,-1,18
 374 -206 374 -206 410 -196 c 0,19,20
 429 -192 429 -192 454 -180 c 128,-1,21
 479 -168 479 -168 501 -146 c 128,-1,22
 523 -124 523 -124 537 -90 c 128,-1,23
 551 -56 551 -56 551 -6 c 2,24,-1
 551 99 l 1,25,26
 517 57 517 57 462.5 27 c 128,-1,27
 408 -3 408 -3 326 -3 c 0,28,29
 258 -3 258 -3 205.5 17.5 c 128,-1,30
 153 38 153 38 117.5 74 c 128,-1,31
 82 110 82 110 64 158 c 128,-1,32
 46 206 46 206 46 262 c 256,33,34
 46 318 46 318 64 366.5 c 128,-1,35
 82 415 82 415 118.5 450.5 c 128,-1,36
 155 486 155 486 207 506.5 c 128,-1,37
 259 527 259 527 326 527 c 0,38,39
 477 527 477 527 551 432 c 1,40,-1
 551 501 l 2,41,42
 551 513 551 513 559 521.5 c 128,-1,43
 567 530 567 530 579 530 c 256,44,45
 591 530 591 530 598 521.5 c 128,-1,46
 605 513 605 513 605 501 c 2,47,-1
 605 -6 l 2,0,1
102 262 m 0,48,49
 102 171 102 171 159.5 113 c 128,-1,50
 217 55 217 55 326 55 c 0,51,52
 365 55 365 55 405.5 66 c 128,-1,53
 446 77 446 77 478.5 102 c 128,-1,54
 511 127 511 127 531 166 c 128,-1,55
 551 205 551 205 550 262 c 0,56,57
 550 352 550 352 493 411 c 128,-1,58
 436 470 436 470 326 470 c 0,59,60
 246 470 246 470 201 442.5 c 128,-1,61
 156 415 156 415 134 379 c 128,-1,62
 112 343 112 343 107 309 c 128,-1,63
 102 275 102 275 102 262 c 0,48,49
EndSplineSet
EndChar
StartChar: h
Encoding: 104 104 73
Width: 662
VWidth: 1473
Flags: W
HStem: -6 21G<87 99 561 573> 473 57<243.247 441.819> 842 20G<87 99>
VStem: 66 55<9.54199 336.78 417 846.458> 539 56<9.54199 367.983>
Fore
595 24 m 1,0,1
 595 12 595 12 587 3 c 128,-1,2
 579 -6 579 -6 567 -6 c 256,3,4
 555 -6 555 -6 547 3 c 128,-1,5
 539 12 539 12 539 24 c 2,6,-1
 539 265 l 2,7,8
 539 473 539 473 331 473 c 0,9,10
 286 473 286 473 247 455.5 c 128,-1,11
 208 438 208 438 180 407.5 c 128,-1,12
 152 377 152 377 136.5 338 c 128,-1,13
 121 299 121 299 121 256 c 2,14,-1
 121 24 l 2,15,16
 121 12 121 12 113 3 c 128,-1,17
 105 -6 105 -6 93 -6 c 256,18,19
 81 -6 81 -6 73.5 3 c 128,-1,20
 66 12 66 12 66 24 c 2,21,-1
 66 832 l 2,22,23
 66 844 66 844 73.5 853 c 128,-1,24
 81 862 81 862 93 862 c 256,25,26
 105 862 105 862 113 853 c 128,-1,27
 121 844 121 844 121 832 c 2,28,-1
 121 417 l 1,29,30
 150 464 150 464 203 497 c 128,-1,31
 256 530 256 530 331 530 c 0,32,33
 395 530 395 530 444.5 509.5 c 128,-1,34
 494 489 494 489 527 453.5 c 128,-1,35
 560 418 560 418 577.5 369.5 c 128,-1,36
 595 321 595 321 595 265 c 2,37,-1
 595 24 l 1,0,1
EndSplineSet
EndChar
StartChar: i
Encoding: 105 105 74
Width: 184
VWidth: 1473
Flags: W
HStem: -6 21G<79 106> 506 20G<79 106> 597 21G<84 98.5>
VStem: 65 54<-5.375 525.375>
Fore
119 34 m 2,0,1
 119 -6 119 -6 93 -6 c 0,2,3
 65 -6 65 -6 65 34 c 2,4,-1
 65 486 l 2,5,6
 65 526 65 526 93 526 c 0,7,8
 119 526 119 526 119 486 c 2,9,-1
 119 34 l 2,0,1
130 633 m 128,-1,11
 130 619 130 619 118 608 c 128,-1,12
 106 597 106 597 91 597 c 256,13,14
 77 597 77 597 66 608 c 128,-1,15
 55 619 55 619 55 633 c 128,-1,16
 55 647 55 647 66 658.5 c 128,-1,17
 77 670 77 670 91 670 c 256,18,19
 106 670 106 670 118 658.5 c 128,-1,10
 130 647 130 647 130 633 c 128,-1,11
EndSplineSet
EndChar
StartChar: j
Encoding: 106 106 75
Width: 184
VWidth: 1473
Flags: W
HStem: -299 54<-61.9302 21.4683> 506 20G<84 101> 597 21G<84 98.5>
VStem: 65 54<-125.39 507.933>
Fore
119 -68 m 2,0,1
 118 -119 118 -119 110.5 -161 c 128,-1,2
 103 -203 103 -203 84 -234 c 128,-1,3
 65 -265 65 -265 33 -282 c 128,-1,4
 1 -299 1 -299 -49 -299 c 0,5,6
 -60 -299 -60 -299 -67.5 -291 c 128,-1,7
 -75 -283 -75 -283 -75 -271 c 256,8,9
 -75 -259 -75 -259 -67.5 -252 c 128,-1,10
 -60 -245 -60 -245 -49 -245 c 0,11,12
 13 -245 13 -245 39 -203.5 c 128,-1,13
 65 -162 65 -162 65 -68 c 2,14,-1
 65 488 l 2,15,16
 65 499 65 499 70 512.5 c 128,-1,17
 75 526 75 526 93 526 c 0,18,19
 109 526 109 526 114 512.5 c 128,-1,20
 119 499 119 499 119 488 c 2,21,-1
 119 -68 l 2,0,1
130 633 m 128,-1,23
 130 619 130 619 118 608 c 128,-1,24
 106 597 106 597 91 597 c 256,25,26
 77 597 77 597 66 608 c 128,-1,27
 55 619 55 619 55 633 c 128,-1,28
 55 647 55 647 66 658.5 c 128,-1,29
 77 670 77 670 91 670 c 256,30,31
 106 670 106 670 118 658.5 c 128,-1,22
 130 647 130 647 130 633 c 128,-1,23
EndSplineSet
EndChar
StartChar: k
Encoding: 107 107 76
Width: 578
VWidth: 1473
Flags: W
HStem: 0 21G<85 112> 827 20G<86.5 113.5>
VStem: 71 54<0.625 252 312 845.789> 491 54<7.61154 78.8513>
Fore
554 505 m 0,0,1
 564 489 564 489 548 470 c 1,2,3
 529.5 459.5 l 2,4,5
 511 449 511 449 481 433.5 c 128,-1,6
 451 418 451 418 412.5 398.5 c 128,-1,7
 374 379 374 379 334 358 c 1,8,9
 368 336 368 336 401.5 303 c 128,-1,10
 435 270 435 270 463.5 228 c 128,-1,11
 492 186 492 186 513.5 136.5 c 128,-1,12
 535 87 535 87 545 31 c 0,13,14
 548 19 548 19 541.5 10 c 128,-1,15
 535 1 535 1 523 -1 c 256,16,17
 511 -4 511 -4 502.5 2.5 c 128,-1,18
 494 9 494 9 491 21 c 0,19,20
 470 128 470 128 410.5 208.5 c 128,-1,21
 351 289 351 289 278 330 c 1,22,23
 255 317 255 317 228 303 c 2,24,-1
 125 252 l 1,25,-1
 125 41 l 1,26,-1
 125 40 l 2,27,28
 125 0 125 0 99 0 c 0,29,30
 71 0 71 0 71 40 c 2,31,-1
 71 806 l 2,32,33
 71 847 71 847 102 847 c 0,34,35
 125 847 125 847 125 806 c 2,36,-1
 125 312 l 1,37,38
 147 323 147 323 184 342 c 128,-1,39
 221 361 221 361 264.5 384 c 128,-1,40
 308 407 308 407 353 429.5 c 128,-1,41
 398 452 398 452 435.5 470.5 c 128,-1,42
 473 489 473 489 496.5 501.5 c 128,-1,43
 520 514 520 514 523 514 c 2,44,45
 533 520 533 520 541.5 516.5 c 128,-1,46
 550 513 550 513 554 505 c 0,0,1
EndSplineSet
EndChar
StartChar: l
Encoding: 108 108 77
Width: 184
VWidth: 1473
Flags: W
HStem: 0 21G<79 106> 830 20G<79 106>
VStem: 65 54<0.625 849.359>
Fore
119 40 m 1,0,1
 119 0 119 0 93 0 c 0,2,3
 65 0 65 0 65 40 c 2,4,-1
 65 809 l 2,5,6
 65 850 65 850 93 850 c 0,7,8
 119 850 119 850 119 809 c 2,9,-1
 119 40 l 1,0,1
EndSplineSet
EndChar
StartChar: m
Encoding: 109 109 78
Width: 932
VWidth: 1473
Flags: W
HStem: 0 21G<84 104 461 473 837 848.5> 480 53<208.187 350.014 583.324 736.247>
VStem: 63 55<13.6807 317.964 436 518.733> 439 56<13.9727 370.934> 815 56<14.2666 392.96>
Fore
63 505 m 2,0,1
 63 517 63 517 71.5 525 c 128,-1,2
 80 533 80 533 91 533 c 256,3,4
 103 533 103 533 110.5 525 c 128,-1,5
 118 517 118 517 118 505 c 2,6,-1
 118 436 l 1,7,8
 138 476 138 476 185.5 504.5 c 128,-1,9
 233 533 233 533 295 533 c 0,10,11
 415 533 415 533 467 438 c 1,12,13
 488 476 488 476 528.5 504.5 c 128,-1,14
 569 533 569 533 638 533 c 0,15,16
 753 533 753 533 812 469 c 128,-1,17
 871 405 871 405 871 268 c 2,18,-1
 871 28 l 2,19,20
 871 16 871 16 862.5 8 c 128,-1,21
 854 0 854 0 843 0 c 256,22,23
 831 0 831 0 823 8 c 128,-1,24
 815 16 815 16 815 28 c 2,25,-1
 815 268 l 2,26,27
 815 374 815 374 773 427 c 128,-1,28
 731 480 731 480 638 480 c 0,29,30
 608 480 608 480 581.5 469 c 128,-1,31
 555 458 555 458 536 439 c 128,-1,32
 517 420 517 420 506 395 c 128,-1,33
 495 370 495 370 495 342 c 2,34,-1
 495 28 l 2,35,36
 495 16 495 16 487 8 c 128,-1,37
 479 0 479 0 467 0 c 256,38,39
 455 0 455 0 447 8 c 128,-1,40
 439 16 439 16 439 28 c 2,41,-1
 439 342 l 2,42,43
 439 368 439 368 428 393 c 128,-1,44
 417 418 417 418 398 437.5 c 128,-1,45
 379 457 379 457 352.5 468.5 c 128,-1,46
 326 480 326 480 295 480 c 0,47,48
 245 480 245 480 211.5 462.5 c 128,-1,49
 178 445 178 445 157.5 416 c 128,-1,50
 137 387 137 387 128 351 c 128,-1,51
 119 315 119 315 118 277 c 2,52,-1
 118 28 l 2,53,54
 118 0 118 0 90 0 c 0,55,56
 78 0 78 0 70.5 8 c 128,-1,57
 63 16 63 16 63 28 c 2,58,-1
 63 270 l 1,59,-1
 63 505 l 2,0,1
EndSplineSet
EndChar
StartChar: n
Encoding: 110 110 79
Width: 662
VWidth: 1473
Flags: W
HStem: 0 21G<88 108 561 573> 476 57<229.961 435.415>
VStem: 68 54<13.1025 368.213 429 518.319> 541 54<13.9727 369.989>
Fore
595 28 m 1,0,1
 595 16 595 16 587 8 c 128,-1,2
 579 0 579 0 567 0 c 256,3,4
 555 0 555 0 548 8 c 128,-1,5
 541 16 541 16 541 28 c 2,6,-1
 541 268 l 2,7,8
 541 361 541 361 485 418.5 c 128,-1,9
 429 476 429 476 331 476 c 0,10,11
 237 476 237 476 179.5 419 c 128,-1,12
 122 362 122 362 122 264 c 2,13,-1
 122 28 l 2,14,15
 122 0 122 0 94 0 c 0,16,17
 82 0 82 0 75 8 c 128,-1,18
 68 16 68 16 68 28 c 2,19,-1
 68 504 l 2,20,21
 68 516 68 516 75 524 c 128,-1,22
 82 532 82 532 94 532 c 256,23,24
 106 532 106 532 113.5 524 c 128,-1,25
 121 516 121 516 121 504 c 2,26,-1
 121 429 l 1,27,28
 153 476 153 476 204.5 504.5 c 128,-1,29
 256 533 256 533 331 533 c 0,30,31
 451 533 451 533 523 463 c 128,-1,32
 595 393 595 393 595 268 c 2,33,-1
 595 28 l 1,0,1
EndSplineSet
EndChar
StartChar: o
Encoding: 111 111 80
Width: 659
VWidth: 1473
Flags: W
HStem: 0 55<230.455 440.962> 476 54<231.357 426.534>
VStem: 49 51<173.387 357.154> 557 51<197.048 356.772>
Fore
608 265 m 0,0,1
 608 199 608 199 586 149.5 c 128,-1,2
 564 100 564 100 526.5 67 c 128,-1,3
 489 34 489 34 438 17 c 128,-1,4
 387 0 387 0 329 0 c 128,-1,5
 271 0 271 0 220 17.5 c 128,-1,6
 169 35 169 35 131 70 c 128,-1,7
 93 105 93 105 71 154 c 128,-1,8
 49 203 49 203 49 265 c 0,9,10
 49 314 49 314 63.5 361 c 128,-1,11
 78 408 78 408 111 445.5 c 128,-1,12
 144 483 144 483 197 506.5 c 128,-1,13
 250 530 250 530 329 530 c 0,14,15
 392 530 392 530 443.5 511 c 128,-1,16
 495 492 495 492 532 456.5 c 128,-1,17
 569 421 569 421 588.5 372.5 c 128,-1,18
 608 324 608 324 608 265 c 0,0,1
557 265 m 0,19,20
 557 314 557 314 539.5 353 c 128,-1,21
 522 392 522 392 491.5 419 c 128,-1,22
 461 446 461 446 419 461 c 128,-1,23
 377 476 377 476 329 476 c 128,-1,24
 281 476 281 476 240 462 c 128,-1,25
 199 448 199 448 168 421.5 c 128,-1,26
 137 395 137 395 118.5 356 c 128,-1,27
 100 317 100 317 100 265 c 0,28,29
 100 217 100 217 117 177.5 c 128,-1,30
 134 138 134 138 165 111 c 128,-1,31
 196 84 196 84 238 69.5 c 128,-1,32
 280 55 280 55 329 55 c 0,33,34
 410 55 410 55 456 82.5 c 128,-1,35
 502 110 502 110 524.5 146.5 c 128,-1,36
 547 183 547 183 552 217.5 c 128,-1,37
 557 252 557 252 557 265 c 0,19,20
EndSplineSet
EndChar
StartChar: p
Encoding: 112 112 81
Width: 674
VWidth: 1473
Flags: W
HStem: 0 57<269.476 459.798> 473 57<231.714 460.143>
VStem: 65 57<-305.068 93 170.223 363.176 435 518.243> 570 56<165.84 332.171>
Fore
626 265 m 256,0,1
 626 209 626 209 607.5 161 c 128,-1,2
 589 113 589 113 554 77 c 128,-1,3
 519 41 519 41 466.5 20.5 c 128,-1,4
 414 0 414 0 346 0 c 0,5,6
 264 0 264 0 210 26 c 128,-1,7
 156 52 156 52 122 93 c 1,8,-1
 122 -292 l 2,9,10
 122 -320 122 -320 94 -320 c 0,11,12
 82 -320 82 -320 73.5 -311.5 c 128,-1,13
 65 -303 65 -303 65 -292 c 2,14,-1
 65 504 l 2,15,16
 65 516 65 516 73 524.5 c 128,-1,17
 81 533 81 533 93 533 c 256,18,19
 105 533 105 533 113 524.5 c 128,-1,20
 121 516 121 516 121 504 c 2,21,-1
 121 435 l 1,22,23
 194 530 194 530 346 530 c 0,24,25
 412 530 412 530 464.5 509.5 c 128,-1,26
 517 489 517 489 553 453.5 c 128,-1,27
 589 418 589 418 607.5 369.5 c 128,-1,28
 626 321 626 321 626 265 c 256,0,1
570 265 m 0,29,30
 570 278 570 278 565 312 c 128,-1,31
 560 346 560 346 538 382 c 128,-1,32
 516 418 516 418 471 445.5 c 128,-1,33
 426 473 426 473 346 473 c 0,34,35
 236 473 236 473 179 414 c 128,-1,36
 122 355 122 355 122 265 c 0,37,38
 121 208 121 208 141 169 c 128,-1,39
 161 130 161 130 193 105 c 128,-1,40
 225 80 225 80 265.5 68.5 c 128,-1,41
 306 57 306 57 346 57 c 0,42,43
 455 57 455 57 512.5 115.5 c 128,-1,44
 570 174 570 174 570 265 c 0,29,30
EndSplineSet
EndChar
StartChar: q
Encoding: 113 113 82
Width: 674
VWidth: 1473
Flags: W
HStem: 0 57<215.202 404.177> 473 57<214.585 442.949>
VStem: 49 56<165.84 332.171> 552 58<-304.478 93 170.223 360.946 435 518.243>
Fore
49 265 m 256,0,1
 49 321 49 321 67 369.5 c 128,-1,2
 85 418 85 418 121.5 453.5 c 128,-1,3
 158 489 158 489 210 509.5 c 128,-1,4
 262 530 262 530 329 530 c 0,5,6
 480 530 480 530 554 435 c 1,7,-1
 554 504 l 2,8,9
 554 516 554 516 562 524.5 c 128,-1,10
 570 533 570 533 582 533 c 256,11,12
 594 533 594 533 602 524.5 c 128,-1,13
 610 516 610 516 610 504 c 2,14,-1
 610 -292 l 2,15,16
 610 -303 610 -303 601 -311.5 c 128,-1,17
 592 -320 592 -320 580 -320 c 0,18,19
 552 -320 552 -320 552 -292 c 2,20,-1
 552 93 l 1,21,22
 519 52 519 52 465 26 c 128,-1,23
 411 0 411 0 329 0 c 0,24,25
 261 0 261 0 208.5 20.5 c 128,-1,26
 156 41 156 41 120.5 77 c 128,-1,27
 85 113 85 113 67 161 c 128,-1,28
 49 209 49 209 49 265 c 256,0,1
105 265 m 0,29,30
 105 174 105 174 162.5 115.5 c 128,-1,31
 220 57 220 57 329 57 c 0,32,33
 368 57 368 57 408.5 68.5 c 128,-1,34
 449 80 449 80 481.5 105 c 128,-1,35
 514 130 514 130 534 169 c 128,-1,36
 554 208 554 208 552 265 c 0,37,38
 552 355 552 355 495.5 414 c 128,-1,39
 439 473 439 473 329 473 c 0,40,41
 249 473 249 473 204 445.5 c 128,-1,42
 159 418 159 418 137 382 c 128,-1,43
 115 346 115 346 110 312 c 128,-1,44
 105 278 105 278 105 265 c 0,29,30
EndSplineSet
EndChar
StartChar: r
Encoding: 114 114 83
Width: 416
VWidth: 1473
Flags: W
HStem: 0 21G<77 104.5> 470 56<293.016 413.209>
VStem: 63 55<0.625 312.624 387 525.375>
Fore
63 486 m 2,0,1
 63 526 63 526 91 526 c 0,2,3
 118 526 118 526 118 486 c 2,4,-1
 118 387 l 1,5,6
 128 412 128 412 149.5 437.5 c 128,-1,7
 171 463 171 463 199.5 482.5 c 128,-1,8
 228 502 228 502 261.5 514 c 128,-1,9
 295 526 295 526 329 526 c 2,10,-1
 374 526 l 2,11,12
 414 526 414 526 414 499 c 0,13,14
 414 470 414 470 374 470 c 2,15,-1
 327 470 l 2,16,17
 278 470 278 470 240 448.5 c 128,-1,18
 202 427 202 427 174.5 392.5 c 128,-1,19
 147 358 147 358 132.5 314 c 128,-1,20
 118 270 118 270 118 222 c 2,21,-1
 118 40 l 2,22,23
 118 0 118 0 91 0 c 0,24,25
 63 0 63 0 63 40 c 2,26,-1
 63 486 l 2,0,1
EndSplineSet
EndChar
StartChar: s
Encoding: 115 115 84
Width: 511
VWidth: 1473
Flags: W
HStem: -15 50<222.909 281.819 281.819 287.367 287.367 321.5 340 379.593> 489 50<220.125 366.42>
VStem: 44 424<108 455 147.819 153.367>
Fore
468 455 m 0,0,1
 483 433 483 433 460 418 c 0,2,3
 436 407 436 407 418 429 c 0,4,5
 402 454 402 454 367.5 470 c 128,-1,6
 333 486 333 486 290 489 c 256,7,8
 247 492 247 492 204 482.5 c 128,-1,9
 161 473 161 473 140 452 c 0,10,11
 110 418 110 418 124 378.5 c 128,-1,12
 138 339 138 339 194 321 c 2,13,14
 215.5 313 l 2,15,16
 237 305 237 305 262 296 c 128,-1,17
 287 287 287 287 307 280 c 128,-1,18
 327 273 327 273 329 273 c 1,19,20
 349 265 349 265 370.5 255.5 c 128,-1,21
 392 246 392 246 411 233.5 c 128,-1,22
 430 221 430 221 445 205.5 c 128,-1,23
 460 190 460 190 466 171 c 0,24,25
 482 121 482 121 468 84 c 128,-1,26
 454 47 454 47 420.5 23.5 c 128,-1,27
 387 0 387 0 340 -9.5 c 128,-1,28
 293 -19 293 -19 245 -15 c 0,29,30
 171 -9 171 -9 117 22 c 128,-1,31
 63 53 63 53 44 108 c 0,32,33
 37 134 37 134 65 144 c 0,34,35
 78 147 78 147 90 142 c 128,-1,36
 102 137 102 137 105 125 c 0,37,38
 115 97 115 97 133.5 80 c 128,-1,39
 152 63 152 63 172.5 53.5 c 128,-1,40
 193 44 193 44 212 40.5 c 128,-1,41
 231 37 231 37 242 35 c 0,42,43
 284 31 284 31 321.5 37 c 128,-1,44
 359 43 359 43 383.5 59 c 128,-1,45
 408 75 408 75 417.5 99.5 c 128,-1,46
 427 124 427 124 414 155 c 0,47,48
 407 172 407 172 390 185.5 c 128,-1,49
 373 199 373 199 350 210 c 128,-1,50
 327 221 327 221 300.5 230 c 128,-1,51
 274 239 274 239 249 247 c 0,52,53
 231 253 231 253 200 264 c 128,-1,54
 169 275 169 275 156 281 c 0,55,56
 124 296 124 296 101 319.5 c 128,-1,57
 78 343 78 343 69 370.5 c 128,-1,58
 60 398 60 398 67.5 428 c 128,-1,59
 75 458 75 458 102 485 c 0,60,61
 133 516 133 516 185 530.5 c 128,-1,62
 237 545 237 545 296 539 c 0,63,64
 354 535 354 535 398.5 513 c 128,-1,65
 443 491 443 491 468 455 c 0,0,1
EndSplineSet
EndChar
StartChar: t
Encoding: 116 116 85
Width: 327
VWidth: 1473
Flags: W
HStem: 0 56<174.066 328.375> 460 56<116 257.072> 812 20G<76 103>
VStem: 62 54<116.612 460 516 831.391> 62 267
Fore
329 28 m 256,0,1
 329 0 329 0 289 0 c 2,2,-1
 262 0 l 2,3,4
 165 0 165 0 113.5 58 c 128,-1,5
 62 116 62 116 62 214 c 2,6,-1
 62 793 l 2,7,8
 62 832 62 832 90 832 c 0,9,10
 116 832 116 832 116 793 c 2,11,-1
 116 516 l 1,12,-1
 220 516 l 2,13,14
 258 516 258 516 258 486 c 0,15,16
 258 460 258 460 220 460 c 2,17,-1
 116 460 l 1,18,-1
 116 214 l 2,19,20
 116 138 116 138 151 97 c 128,-1,21
 186 56 186 56 262 56 c 2,22,-1
 289 56 l 2,23,24
 329 56 329 56 329 28 c 256,0,1
EndSplineSet
EndChar
StartChar: u
Encoding: 117 117 86
Width: 658
VWidth: 1473
Flags: W
HStem: -7 57<216.726 440.23> 506 20G<85.5 97 550 570>
VStem: 63 56<214.452 511.733> 538 53<7.10254 93 149.953 512.319>
Fore
591 22 m 1,0,1
 591 -6 591 -6 564 -6 c 0,2,3
 552 -6 552 -6 545 2 c 128,-1,4
 538 10 538 10 538 22 c 2,5,-1
 538 93 l 1,6,7
 505 46 505 46 453.5 19.5 c 128,-1,8
 402 -7 402 -7 327 -7 c 0,9,10
 199 -7 199 -7 131 65 c 0,11,12
 110 87 110 87 97 112 c 128,-1,13
 84 137 84 137 76.5 162 c 128,-1,14
 69 187 69 187 66 212 c 128,-1,15
 63 237 63 237 63 258 c 2,16,-1
 63 498 l 2,17,18
 63 510 63 510 71.5 518 c 128,-1,19
 80 526 80 526 91 526 c 256,20,21
 103 526 103 526 111 518 c 128,-1,22
 119 510 119 510 119 498 c 2,23,-1
 119 258 l 2,24,25
 119 224 119 224 128.5 181 c 128,-1,26
 138 138 138 138 171 105 c 0,27,28
 221 50 221 50 327 50 c 0,29,30
 436 50 436 50 486 105 c 0,31,32
 536 155 536 155 536 258 c 2,33,-1
 536 498 l 2,34,35
 536 526 536 526 564 526 c 0,36,37
 576 526 576 526 583.5 518 c 128,-1,38
 591 510 591 510 591 498 c 2,39,-1
 591 22 l 1,0,1
EndSplineSet
EndChar
StartChar: v
Encoding: 118 118 87
Width: 562
VWidth: 1473
Flags: W
HStem: -6 49<234.502 339.169>
Fore
427 103 m 2,0,1
 410 62 410 62 378 28 c 128,-1,2
 346 -6 346 -6 281 -6 c 0,3,4
 249 -6 249 -6 225.5 3.5 c 128,-1,5
 202 13 202 13 185 28.5 c 128,-1,6
 168 44 168 44 155.5 64 c 128,-1,7
 143 84 143 84 134 106 c 2,8,-1
 3 489 l 2,9,10
 0 501 0 501 4.5 511.5 c 128,-1,11
 9 522 9 522 19 526 c 1,12,13
 31 529 31 529 41.5 524.5 c 128,-1,14
 52 520 52 520 55 508 c 2,15,-1
 184 128 l 2,16,17
 200 90 200 90 221 66.5 c 128,-1,18
 242 43 242 43 281 43 c 256,19,20
 321 43 321 43 341 66.5 c 128,-1,21
 361 90 361 90 377 125 c 2,22,-1
 508 508 l 2,23,24
 511 520 511 520 521.5 524.5 c 128,-1,25
 532 529 532 529 542 526 c 0,26,27
 554 522 554 522 558.5 511.5 c 128,-1,28
 563 501 563 501 560 489 c 2,29,-1
 427 103 l 2,0,1
EndSplineSet
EndChar
StartChar: w
Encoding: 119 119 88
Width: 880
VWidth: 1473
Flags: W
HStem: -7 53<179.487 325.014 558.324 711.247> 506 20G<60.5 72 436 448 812 823.5>
VStem: 38 55<202.243 511.733> 414 56<155.066 512.027> 790 56<133.04 258 258 511.733>
Fore
846 258 m 1,0,1
 846 121 846 121 787 57 c 128,-1,2
 728 -7 728 -7 613 -7 c 0,3,4
 544 -7 544 -7 503.5 21.5 c 128,-1,5
 463 50 463 50 442 88 c 1,6,7
 390 -7 390 -7 270 -7 c 0,8,9
 205 -7 205 -7 160.5 13.5 c 128,-1,10
 116 34 116 34 89 70 c 128,-1,11
 62 106 62 106 50 153 c 128,-1,12
 38 200 38 200 38 253 c 2,13,-1
 38 498 l 2,14,15
 38 510 38 510 46.5 518 c 128,-1,16
 55 526 55 526 66 526 c 256,17,18
 78 526 78 526 85.5 518 c 128,-1,19
 93 510 93 510 93 498 c 2,20,-1
 93 253 l 2,21,22
 93 214 93 214 101 176 c 128,-1,23
 109 138 109 138 129 109.5 c 128,-1,24
 149 81 149 81 183 63.5 c 128,-1,25
 217 46 217 46 270 46 c 0,26,27
 301 46 301 46 327.5 57.5 c 128,-1,28
 354 69 354 69 373 88.5 c 128,-1,29
 392 108 392 108 403 133 c 128,-1,30
 414 158 414 158 414 184 c 2,31,-1
 414 498 l 2,32,33
 414 510 414 510 422 518 c 128,-1,34
 430 526 430 526 442 526 c 256,35,36
 454 526 454 526 462 518 c 128,-1,37
 470 510 470 510 470 498 c 2,38,-1
 470 184 l 2,39,40
 470 156 470 156 481 131 c 128,-1,41
 492 106 492 106 511 87 c 128,-1,42
 530 68 530 68 556.5 57 c 128,-1,43
 583 46 583 46 613 46 c 0,44,45
 706 46 706 46 748 99 c 128,-1,46
 790 152 790 152 790 258 c 2,47,-1
 790 498 l 2,48,49
 790 510 790 510 798 518 c 128,-1,50
 806 526 806 526 818 526 c 256,51,52
 829 526 829 526 837.5 518 c 128,-1,53
 846 510 846 510 846 498 c 2,54,-1
 846 258 l 1,0,1
EndSplineSet
EndChar
StartChar: x
Encoding: 120 120 89
Width: 564
VWidth: 1473
Flags: W
HStem: 239 56<231.781 330.703>
Fore
539 44 m 1,0,1
 547 34 547 34 544.5 21.5 c 128,-1,2
 542 9 542 9 533 1 c 0,3,4
 523 -6 523 -6 512 -3.5 c 128,-1,5
 501 -1 501 -1 494 9 c 0,6,7
 448 74 448 74 425 108.5 c 128,-1,8
 402 143 402 143 390 159 c 2,9,-1
 376 180 l 2,10,11
 357 205 357 205 331.5 222 c 128,-1,12
 306 239 306 239 281 239 c 256,13,14
 256 239 256 239 231 222.5 c 128,-1,15
 206 206 206 206 189 181 c 2,16,-1
 69 9 l 2,17,18
 52 -13 52 -13 29 1 c 0,19,20
 21 9 21 9 18.5 21.5 c 128,-1,21
 16 34 16 34 24 44 c 0,22,23
 68 109 68 109 92 144.5 c 128,-1,24
 116 180 116 180 128 196 c 0,25,26
 141 215 141 215 144 218 c 0,27,28
 153 230 153 230 167 242.5 c 128,-1,29
 181 255 181 255 197 267 c 1,30,31
 181 277 181 277 167 289 c 128,-1,32
 153 301 153 301 143 312 c 2,33,-1
 24 480 l 2,34,35
 16 491 16 491 17.5 503.5 c 128,-1,36
 19 516 19 516 29 523 c 0,37,38
 38 530 38 530 50 528.5 c 128,-1,39
 62 527 62 527 69 517 c 0,40,41
 113 454 113 454 137 420.5 c 128,-1,42
 161 387 161 387 172 371 c 2,43,-1
 187 351 l 2,44,45
 206 326 206 326 231 310.5 c 128,-1,46
 256 295 256 295 281 295 c 256,47,48
 306 295 306 295 331.5 309.5 c 128,-1,49
 357 324 357 324 374 349 c 2,50,-1
 494 517 l 2,51,52
 501 527 501 527 512.5 528.5 c 128,-1,53
 524 530 524 530 533 523 c 0,54,55
 544 516 544 516 545.5 503.5 c 128,-1,56
 547 491 547 491 539 480 c 0,57,58
 494 417 494 417 470 383 c 128,-1,59
 446 349 446 349 435 333 c 0,60,61
 421 315 421 315 418 312 c 0,62,63
 401 289 401 289 367 267 c 1,64,65
 383 255 383 255 397 242.5 c 128,-1,66
 411 230 411 230 420 217 c 2,67,-1
 539 44 l 1,0,1
EndSplineSet
EndChar
StartChar: y
Encoding: 121 121 90
Width: 617
VWidth: 1473
Flags: W
HStem: -273.5 53.5<260.398 343.471> -3 53<197.589 414.647> 510 20G<57 76.5 530.5 551>
VStem: 43 54<150.246 516.319> 516 54<-101.934 97 162.771 513.247>
Fore
570 -19 m 1,0,1
 570 -112 570 -112 523 -174.5 c 128,-1,2
 476 -237 476 -237 389 -262 c 0,3,4
 348 -274 348 -274 305 -273.5 c 128,-1,5
 262 -273 262 -273 224 -263 c 128,-1,6
 186 -253 186 -253 155.5 -235 c 128,-1,7
 125 -217 125 -217 110 -190 c 0,8,9
 105 -180 105 -180 107.5 -169.5 c 128,-1,10
 110 -159 110 -159 121 -153 c 256,11,12
 131 -147 131 -147 141.5 -150 c 128,-1,13
 152 -153 152 -153 158 -162 c 0,14,15
 166 -178 166 -178 188.5 -191.5 c 128,-1,16
 211 -205 211 -205 240.5 -212.5 c 128,-1,17
 270 -220 270 -220 304.5 -220 c 128,-1,18
 339 -220 339 -220 374 -209 c 0,19,20
 393 -205 393 -205 418 -193 c 128,-1,21
 443 -181 443 -181 465.5 -159 c 128,-1,22
 488 -137 488 -137 502 -103 c 128,-1,23
 516 -69 516 -69 516 -19 c 2,24,-1
 516 97 l 1,25,26
 483 50 483 50 432.5 23.5 c 128,-1,27
 382 -3 382 -3 306 -3 c 0,28,29
 172 -3 172 -3 107.5 69 c 128,-1,30
 43 141 43 141 43 262 c 2,31,-1
 43 502 l 2,32,33
 43 530 43 530 71 530 c 0,34,35
 82 530 82 530 89.5 522 c 128,-1,36
 97 514 97 514 97 502 c 2,37,-1
 97 262 l 2,38,39
 97 152 97 152 153 101 c 128,-1,40
 209 50 209 50 306 50 c 0,41,42
 410 50 410 50 460 105.5 c 128,-1,43
 510 161 510 161 510 262 c 2,44,-1
 510 492 l 2,45,46
 510 504 510 504 515 518 c 128,-1,47
 520 532 520 532 541 532 c 256,48,49
 561 532 561 532 565.5 518 c 128,-1,50
 570 504 570 504 570 492 c 2,51,-1
 570 -19 l 1,0,1
EndSplineSet
EndChar
StartChar: z
Encoding: 122 122 91
Width: 578
VWidth: 1473
Flags: W
HStem: 0 55<125.771 510.375> 471 55<68.625 451.975>
VStem: 68 54<61.8005 120.622> 68 443<31.2865 53.095 472.905 492.666>
Fore
128 184 m 0,0,1
 206 236 206 236 268 277 c 0,2,3
 295 295 295 295 320.5 312.5 c 128,-1,4
 346 330 346 330 366.5 344 c 128,-1,5
 387 358 387 358 400.5 367.5 c 128,-1,6
 414 377 414 377 417 380 c 0,7,8
 436 396 436 396 445 405.5 c 128,-1,9
 454 415 454 415 455 433 c 0,10,11
 458 471 458 471 390 471 c 2,12,-1
 108 471 l 2,13,14
 68 471 68 471 68 498 c 0,15,16
 68 526 68 526 108 526 c 2,17,-1
 390 526 l 2,18,19
 442 526 442 526 476.5 503 c 128,-1,20
 511 480 511 480 511 433 c 0,21,22
 511 399 511 399 495 379 c 128,-1,23
 479 359 479 359 451 339 c 2,24,25
 430.5 325 l 2,26,27
 410 311 410 311 377.5 289.5 c 128,-1,28
 345 268 345 268 307.5 243 c 128,-1,29
 270 218 270 218 238 196.5 c 128,-1,30
 206 175 206 175 185 162 c 128,-1,31
 164 149 164 149 162 147 c 0,32,33
 141 133 141 133 131.5 119.5 c 128,-1,34
 122 106 122 106 122 90 c 0,35,36
 122 55 122 55 189 55 c 2,37,-1
 471 55 l 2,38,39
 511 55 511 55 511 28 c 0,40,41
 511 0 511 0 471 0 c 2,42,-1
 189 0 l 2,43,44
 137 0 137 0 102.5 21.5 c 128,-1,45
 68 43 68 43 68 90 c 0,46,47
 68 124 68 124 83.5 144 c 128,-1,48
 99 164 99 164 128 184 c 0,0,1
EndSplineSet
EndChar
StartChar: braceleft
Encoding: 123 123 92
Width: 334
VWidth: 1473
Flags: W
VStem: 136 54<-9.74304 202.12 376.88 589.517>
Fore
287 -166 m 0,0,1
 261 -206 261 -206 183 -121 c 0,2,3
 153 -90 153 -90 144.5 -51 c 128,-1,4
 136 -12 136 -12 136 29 c 2,5,-1
 136 125 l 2,6,7
 136 175 136 175 120.5 203 c 128,-1,8
 105 231 105 231 87 246.5 c 128,-1,9
 69 262 69 262 54.5 270 c 128,-1,10
 40 278 40 278 41 290 c 0,11,12
 43 301 43 301 57.5 309 c 128,-1,13
 72 317 72 317 90 332.5 c 128,-1,14
 108 348 108 348 122 376 c 128,-1,15
 136 404 136 404 136 454 c 2,16,-1
 136 551 l 2,17,18
 136 591 136 591 144.5 630 c 128,-1,19
 153 669 153 669 183 700 c 0,20,21
 261 785 261 785 287 745 c 0,22,23
 296 732 296 732 293 724 c 128,-1,24
 290 716 290 716 279 708 c 128,-1,25
 268 700 268 700 252.5 689.5 c 128,-1,26
 237 679 237 679 222 660 c 0,27,28
 205 636 205 636 197.5 608 c 128,-1,29
 190 580 190 580 190 551 c 2,30,-1
 190 454 l 2,31,32
 190 387 190 387 170 349.5 c 128,-1,33
 150 312 150 312 108 290 c 1,34,35
 150 267 150 267 170 229.5 c 128,-1,36
 190 192 190 192 190 125 c 2,37,-1
 190 29 l 2,38,39
 190 0 190 0 197.5 -28.5 c 128,-1,40
 205 -57 205 -57 222 -81 c 0,41,42
 237 -100 237 -100 252.5 -110.5 c 128,-1,43
 268 -121 268 -121 279 -128.5 c 128,-1,44
 290 -136 290 -136 293 -144 c 128,-1,45
 296 -152 296 -152 287 -166 c 0,0,1
EndSplineSet
EndChar
StartChar: bar
Encoding: 124 124 93
Width: 231
VWidth: 1473
Flags: W
VStem: 90 54<-201.375 790.375>
Fore
144 -162 m 1,0,1
 144 -202 144 -202 118 -202 c 0,2,3
 90 -202 90 -202 90 -162 c 2,4,-1
 90 751 l 2,5,6
 90 791 90 791 118 791 c 0,7,8
 144 791 144 791 144 751 c 2,9,-1
 144 -162 l 1,0,1
EndSplineSet
EndChar
StartChar: braceright
Encoding: 125 125 94
Width: 334
VWidth: 1473
Flags: W
VStem: 155 54<-9.74304 202.12 376.88 589.517>
Fore
303 290 m 0,0,1
 305 278 305 278 290 270 c 128,-1,2
 275 262 275 262 257.5 246.5 c 128,-1,3
 240 231 240 231 224.5 203 c 128,-1,4
 209 175 209 175 209 125 c 2,5,-1
 209 29 l 2,6,7
 209 -12 209 -12 200.5 -51 c 128,-1,8
 192 -90 192 -90 162 -121 c 0,9,10
 84 -206 84 -206 57 -166 c 0,11,12
 49 -153 49 -153 52 -145 c 128,-1,13
 55 -137 55 -137 66 -129 c 128,-1,14
 77 -121 77 -121 92.5 -110.5 c 128,-1,15
 108 -100 108 -100 122 -81 c 0,16,17
 140 -57 140 -57 147.5 -28.5 c 128,-1,18
 155 0 155 0 155 29 c 2,19,-1
 155 125 l 2,20,21
 155 192 155 192 174.5 229.5 c 128,-1,22
 194 267 194 267 237 290 c 1,23,24
 194 312 194 312 174.5 349.5 c 128,-1,25
 155 387 155 387 155 454 c 2,26,-1
 155 551 l 2,27,28
 155 580 155 580 147.5 608 c 128,-1,29
 140 636 140 636 122 660 c 0,30,31
 108 679 108 679 92.5 689.5 c 128,-1,32
 77 700 77 700 66 708 c 128,-1,33
 55 716 55 716 52 724 c 128,-1,34
 49 732 49 732 57 745 c 0,35,36
 84 785 84 785 162 700 c 0,37,38
 192 669 192 669 200.5 630 c 128,-1,39
 209 591 209 591 209 551 c 2,40,-1
 209 454 l 2,41,42
 209 404 209 404 223 376 c 128,-1,43
 237 348 237 348 255 332.5 c 128,-1,44
 273 317 273 317 287.5 309 c 128,-1,45
 302 301 302 301 303 290 c 0,0,1
EndSplineSet
EndChar
StartChar: asciitilde
Encoding: 126 126 95
Width: 574
VWidth: 1473
Flags: W
HStem: 189 60<384.014 435.049>
VStem: 49 63<190.188 203 203 284.181> 455 68<260.346 283.5 290 309.727 309.727 311.908 311.908 334 334 350.75>
Fore
526 336 m 0,0,1
 527 309 527 309 523 283.5 c 128,-1,2
 519 258 519 258 505 236.5 c 128,-1,3
 491 215 491 215 467 202 c 128,-1,4
 443 189 443 189 408 189 c 0,5,6
 387 189 387 189 363 198.5 c 128,-1,7
 339 208 339 208 314 222 c 2,8,-1
 202 283 l 2,9,10
 153 311 153 311 133 285 c 128,-1,11
 113 259 113 259 112 205 c 0,12,13
 112 196 112 196 109 190 c 256,14,15
 106 184 106 184 99.5 179.5 c 128,-1,16
 93 175 93 175 80 175 c 0,17,18
 56 175 56 175 50 189 c 0,19,20
 47 194 47 194 49 203 c 2,21,22
 46 262 46 262 68 305 c 128,-1,23
 90 348 90 348 144 357 c 0,24,25
 169 361 169 361 193.5 353 c 128,-1,26
 218 345 218 345 234 336 c 2,27,-1
 367 262 l 2,28,29
 387 249 387 249 405.5 249 c 128,-1,30
 424 249 424 249 436.5 260 c 128,-1,31
 449 271 449 271 455 290 c 128,-1,32
 461 309 461 309 458 334 c 0,33,34
 457 343 457 343 461 351 c 1,35,36
 464 358 464 358 470.5 363 c 128,-1,37
 477 368 477 368 491 368 c 0,38,39
 502 368 502 368 510.5 363 c 128,-1,40
 519 358 519 358 522 352 c 0,41,42
 526 345 526 345 526 336 c 0,0,1
EndSplineSet
EndChar
StartChar: uni0E33.alt1
Encoding: 65539 -1 96
Width: 570
VWidth: 1473
Flags: W
HStem: -4 21G<464 476> 547 57<230.258 342.213> 678.5 47<-293.48 -280.551 -280.551 -272.908 -276.729 -212.706> 831 51<-316.833 -212.157>
VStem: -386 52<753.122 813.977> -196 52<738.095 814.023> 440 58<11.6747 484.043>
Fore
498 25 m 2,0,1
 498 13 498 13 490 4.5 c 128,-1,2
 482 -4 482 -4 470 -4 c 256,3,4
 458 -4 458 -4 449 4.5 c 128,-1,5
 440 13 440 13 440 25 c 2,6,-1
 440 407 l 2,7,8
 440 473 440 473 395.5 510 c 128,-1,9
 351 547 351 547 273 547 c 0,10,11
 240 547 240 547 212 538.5 c 128,-1,12
 184 530 184 530 161 517.5 c 128,-1,13
 138 505 138 505 123 489 c 128,-1,14
 108 473 108 473 102 457 c 0,15,16
 97 445 97 445 87 440 c 128,-1,17
 77 435 77 435 65 439 c 0,18,19
 53 442 53 442 48.5 453 c 128,-1,20
 44 464 44 464 47 476 c 0,21,22
 57 502 57 502 79.5 526 c 128,-1,23
 102 550 102 550 132 567.5 c 128,-1,24
 162 585 162 585 198 594.5 c 128,-1,25
 234 604 234 604 273 604 c 256,26,27
 311 604 311 604 351.5 590.5 c 128,-1,28
 392 577 392 577 424.5 551.5 c 128,-1,29
 457 526 457 526 477.5 489 c 128,-1,30
 498 452 498 452 498 407 c 2,31,-1
 498 25 l 2,0,1
-144 776 m 0,32,33
 -144 729 -144 729 -179 700.5 c 128,-1,34
 -214 672 -214 672 -265 672 c 0,35,36
 -286 672 -286 672 -307.5 678.5 c 128,-1,37
 -329 685 -329 685 -346.5 697.5 c 128,-1,38
 -364 710 -364 710 -375 730 c 128,-1,39
 -386 750 -386 750 -386 776 c 0,40,41
 -386 821 -386 821 -350.5 851.5 c 128,-1,42
 -315 882 -315 882 -265 882 c 0,43,44
 -209 882 -209 882 -176.5 850.5 c 128,-1,45
 -144 819 -144 819 -144 776 c 0,32,33
-196 776 m 0,46,47
 -196 794 -196 794 -213 812.5 c 128,-1,48
 -230 831 -230 831 -265 831 c 0,49,50
 -296 831 -296 831 -315 813.5 c 128,-1,51
 -334 796 -334 796 -334 776 c 0,52,53
 -334 759 -334 759 -325.5 748.5 c 128,-1,54
 -317 738 -317 738 -304.5 733 c 128,-1,55
 -292 728 -292 728 -281 725.5 c 128,-1,56
 -270 723 -270 723 -265 723 c 0,57,58
 -236 723 -236 723 -216 738.5 c 128,-1,59
 -196 754 -196 754 -196 776 c 0,46,47
EndSplineSet
EndChar
StartChar: quotedbl
Encoding: 34 34 97
Width: 294
VWidth: 1473
Flags: W
HStem: 473 247<62.2266 114.81 176.524 227.81 91 203 90 90>
VStem: 60 59<484.957 719.249> 174 57<488.36 721.072>
Fore
119 513 m 2,0,1
 121 494 121 494 115 484 c 128,-1,2
 109 474 109 474 91 473 c 0,3,4
 60 473 60 473 60 513 c 2,5,-1
 60 682 l 2,6,7
 59 720 59 720 90 720 c 0,8,9
 118 720 118 720 118 682 c 2,10,-1
 119 513 l 2,0,1
233 514 m 2,11,12
 234 495 234 495 228 485.5 c 128,-1,13
 222 476 222 476 205 474 c 0,14,15
 174 474 174 474 174 514 c 2,16,-1
 174 684 l 2,17,18
 172 722 172 722 203 722 c 0,19,20
 231 722 231 722 231 684 c 2,21,-1
 233 514 l 2,11,12
EndSplineSet
EndChar
StartChar: exclam
Encoding: 33 33 98
Width: 272
VWidth: 1473
Flags: W
HStem: 0 85<108.892 156.136>
VStem: 96 87<13.9225 60.3184> 102 73<509.722 724.316> 110 56<168.594 399.278>
Fore
166 206 m 2,0,1
 165 168 165 168 138 168 c 0,2,3
 110 168 110 168 110 206 c 2,4,-1
 102 703 l 2,5,6
 100 723 100 723 112.5 732.5 c 128,-1,7
 125 742 125 742 138 742 c 256,8,9
 152 742 152 742 164.5 732.5 c 128,-1,10
 177 723 177 723 175 703 c 2,11,-1
 166 206 l 2,0,1
183 43 m 0,12,13
 183 27 183 27 169.5 13.5 c 128,-1,14
 156 0 156 0 138 0 c 256,15,16
 121 0 121 0 108.5 12 c 128,-1,17
 96 24 96 24 96 41 c 0,18,19
 96 60 96 60 107 72.5 c 128,-1,20
 118 85 118 85 137 85 c 256,21,22
 156 85 156 85 169.5 73.5 c 128,-1,23
 183 62 183 62 183 43 c 0,12,13
EndSplineSet
EndChar
StartChar: uni0E4E.alt1
Encoding: 65540 -1 99
Width: 0
VWidth: 1473
Flags: W
HStem: 661 37<-280.209 -214.414 -226.162 -202.665 -202.665 -192> 978 21<-170.096 -101.218>
VStem: -351 271.5<740 988.5 728.838 752.335>
Fore
-110 999 m 0,0,1
 -108 999 -108 999 -101 998 c 128,-1,2
 -94 997 -94 997 -88 995 c 128,-1,3
 -82 993 -82 993 -79.5 988.5 c 128,-1,4
 -77 984 -77 984 -82 978 c 1,5,6
 -140 977 -140 977 -174.5 953.5 c 128,-1,7
 -209 930 -209 930 -207 894.5 c 128,-1,8
 -205 859 -205 859 -166 849 c 1,9,10
 -161 849 -161 849 -155.5 843.5 c 128,-1,11
 -150 838 -150 838 -150 829 c 256,12,13
 -150 821 -150 821 -157 817 c 128,-1,14
 -164 813 -164 813 -172 812 c 0,15,16
 -284 807 -284 807 -289 742 c 1,17,18
 -284 698 -284 698 -215 698 c 0,19,20
 -193 698 -193 698 -180 700 c 1,21,-1
 -192 666 l 1,22,23
 -225 661 -225 661 -250 661 c 0,24,25
 -345 666 -345 666 -351 740 c 1,26,27
 -345 828 -345 828 -227 840 c 1,28,29
 -268 868 -268 868 -263.5 913.5 c 128,-1,30
 -259 959 -259 959 -216.5 982.5 c 128,-1,31
 -174 1006 -174 1006 -110 999 c 0,0,1
EndSplineSet
EndChar
StartChar: exclamdown
Encoding: 161 161 100
Width: 272
VWidth: 1473
Flags: W
HStem: 442 85<123.752 172.077>
VStem: 99 87<466.682 513.593> 105 73<-197.187 17.8889> 113 56<128.111 358.406>
Fore
178 -175 m 2,0,1
 180 -196 180 -196 167.5 -205.5 c 128,-1,2
 155 -215 155 -215 141 -215 c 256,3,4
 128 -215 128 -215 115.5 -205.5 c 128,-1,5
 103 -196 103 -196 105 -175 c 2,6,-1
 113 321 l 2,7,8
 113 359 113 359 141 359 c 0,9,10
 168 359 168 359 169 321 c 2,11,-1
 178 -175 l 2,0,1
186 485 m 0,12,13
 186 466 186 466 172.5 454 c 128,-1,14
 159 442 159 442 140 442 c 256,15,16
 121 442 121 442 110 454.5 c 128,-1,17
 99 467 99 467 99 486 c 0,18,19
 99 504 99 504 111.5 515.5 c 128,-1,20
 124 527 124 527 141 527 c 256,21,22
 159 527 159 527 172.5 514 c 128,-1,23
 186 501 186 501 186 485 c 0,12,13
EndSplineSet
EndChar
StartChar: cent
Encoding: 162 162 101
Width: 637
VWidth: 1473
Flags: W
HStem: 85.5 53.5<296 328.935 328.935 329.668 329.668 361.5 363 426.999> 551 54<259.895 364 430 479.21>
VStem: 67.5 55<301.18 331.881 331.881 337.154 334.517 433.994>
Fore
523 208 m 1,0,1
 532 215 532 215 543.5 216 c 128,-1,2
 555 217 555 217 564 209 c 0,3,4
 572 202 572 202 572.5 189.5 c 128,-1,5
 573 177 573 177 566 166 c 0,6,7
 545 141 545 141 513.5 123.5 c 128,-1,8
 482 106 482 106 443.5 96.5 c 128,-1,9
 405 87 405 87 363 85.5 c 128,-1,10
 321 84 321 84 283 91 c 1,11,-1
 253 -9 l 2,12,13
 246 -32 246 -32 222 -27 c 0,14,15
 199 -19 199 -19 206 4 c 2,16,-1
 234 103 l 1,17,18
 205 112 205 112 180 126 c 128,-1,19
 155 140 155 140 136 161 c 0,20,21
 110 187 110 187 96 214.5 c 128,-1,22
 82 242 82 242 75.5 267.5 c 128,-1,23
 69 293 69 293 67.5 314.5 c 128,-1,24
 66 336 66 336 66 349 c 0,25,26
 66 398 66 398 84.5 448 c 128,-1,27
 103 498 103 498 142 536.5 c 128,-1,28
 181 575 181 575 240 597 c 128,-1,29
 299 619 299 619 379 611 c 1,30,-1
 407 704 l 2,31,32
 410 715 410 715 421 720 c 128,-1,33
 432 725 432 725 439 722 c 0,34,35
 448 719 448 719 453 710 c 128,-1,36
 458 701 458 701 455 691 c 2,37,-1
 430 605 l 1,38,39
 473 597 473 597 507.5 579 c 128,-1,40
 542 561 542 561 567 532 c 0,41,42
 575 523 575 523 577 509 c 128,-1,43
 579 495 579 495 570 488 c 0,44,45
 561 479 561 479 546.5 482 c 128,-1,46
 532 485 532 485 524 495 c 0,47,48
 486 538 486 538 414 551 c 1,49,-1
 296 143 l 1,50,51
 327 137 327 137 361.5 139 c 128,-1,52
 396 141 396 141 428 149.5 c 128,-1,53
 460 158 460 158 485 172.5 c 128,-1,54
 510 187 510 187 523 208 c 1,0,1
174 202 m 0,55,56
 190 186 190 186 208.5 175 c 128,-1,57
 227 164 227 164 249 156 c 1,58,-1
 364 558 l 1,59,60
 303 566 303 566 258.5 548 c 128,-1,61
 214 530 214 530 183 499 c 128,-1,62
 152 468 152 468 136.5 427.5 c 128,-1,63
 121 387 121 387 121 349 c 0,64,65
 121 342 121 342 122.5 325 c 128,-1,66
 124 308 124 308 129 287.5 c 128,-1,67
 134 267 134 267 144.5 244 c 128,-1,68
 155 221 155 221 174 202 c 0,55,56
EndSplineSet
EndChar
StartChar: sterling
Encoding: 163 163 102
Width: 589
VWidth: 1473
Flags: W
HStem: -1 21G<106.152 127> 29.5 53<148.986 185 185 213.473 213.473 217.485 217.485 264.087> 333 49<81 149 230 386>
VStem: 195 54<221.062 268.304 268.304 305.983> 477 50<502 538.107>
Fore
551 44 m 1,0,1
 517 9 517 9 480 -2 c 128,-1,2
 443 -13 443 -13 408.5 -9.5 c 128,-1,3
 374 -6 374 -6 345.5 4.5 c 128,-1,4
 317 15 317 15 298 22 c 0,5,6
 262 35 262 35 234 35 c 128,-1,7
 206 35 206 35 185 29.5 c 128,-1,8
 164 24 164 24 148.5 14 c 128,-1,9
 133 4 133 4 121 -1 c 1,10,-1
 72 65 l 1,11,12
 99 85 99 85 123 108 c 128,-1,13
 147 131 147 131 165 161 c 0,14,15
 186 193 186 193 191.5 220 c 128,-1,16
 197 247 197 247 195 268.5 c 128,-1,17
 193 290 193 290 186.5 306.5 c 128,-1,18
 180 323 180 323 174 333 c 1,19,-1
 81 333 l 1,20,-1
 63 382 l 1,21,-1
 149 382 l 1,22,23
 131 402 131 402 112.5 441 c 128,-1,24
 94 480 94 480 94 522 c 0,25,26
 93 564 93 564 111.5 603 c 128,-1,27
 130 642 130 642 162 671 c 128,-1,28
 194 700 194 700 239 715.5 c 128,-1,29
 284 731 284 731 337 725 c 0,30,31
 405 717 405 717 443.5 687 c 128,-1,32
 482 657 482 657 500.5 621 c 128,-1,33
 519 585 519 585 523 551 c 128,-1,34
 527 517 527 517 527 502 c 1,35,-1
 477 502 l 1,36,37
 477 533 477 533 467.5 562 c 128,-1,38
 458 591 458 591 439.5 614.5 c 128,-1,39
 421 638 421 638 393 653.5 c 128,-1,40
 365 669 365 669 326 673 c 0,41,42
 296 676 296 676 260.5 666.5 c 128,-1,43
 225 657 225 657 197 634 c 128,-1,44
 169 611 169 611 154.5 575 c 128,-1,45
 140 539 140 539 152 488 c 0,46,47
 155 471 155 471 169.5 441 c 128,-1,48
 184 411 184 411 209 382 c 1,49,-1
 386 382 l 1,50,-1
 404 333 l 1,51,-1
 230 333 l 1,52,53
 233 321 233 321 238 310 c 128,-1,54
 243 299 243 299 246 284.5 c 128,-1,55
 249 270 249 270 249 252 c 128,-1,56
 249 234 249 234 243 209 c 0,57,58
 227 153 227 153 197.5 119 c 128,-1,59
 168 85 168 85 147 65 c 1,60,61
 172 78 172 78 194.5 82.5 c 128,-1,62
 217 87 217 87 240.5 84.5 c 128,-1,63
 264 82 264 82 291 75 c 128,-1,64
 318 68 318 68 354 57 c 0,65,66
 387 46 387 46 409.5 42 c 128,-1,67
 432 38 432 38 449 40.5 c 128,-1,68
 466 43 466 43 482 52.5 c 128,-1,69
 498 62 498 62 519 78 c 1,70,-1
 551 44 l 1,0,1
EndSplineSet
EndChar
StartChar: currency
Encoding: 164 164 103
Width: 715
VWidth: 1473
Flags: W
HStem: 87 51<276.325 416.828> 529 54<300.513 438.327>
VStem: 109 56<253.9 413.553> 555 55<253.901 415.187>
Fore
610 337 m 0,0,1
 610 287 610 287 596 249 c 128,-1,2
 582 211 582 211 560 181 c 1,3,-1
 589 152 l 2,4,5
 620 122 620 122 600 100 c 0,6,7
 577 78 577 78 548 110 c 2,8,-1
 517 140 l 1,9,10
 482 113 482 113 440 100 c 128,-1,11
 398 87 398 87 358 87 c 0,12,13
 264 87 264 87 200 137 c 1,14,-1
 174 110 l 2,15,16
 143 77 143 77 119 100 c 0,17,18
 100 121 100 121 128 152 c 2,19,-1
 156 180 l 1,20,21
 134 211 134 211 121.5 249 c 128,-1,22
 109 287 109 287 109 331 c 0,23,24
 109 380 109 380 123.5 420.5 c 128,-1,25
 138 461 138 461 164 492 c 1,26,-1
 128 529 l 2,27,28
 99 557 99 557 119 582 c 1,29,30
 141 601 141 601 174 573 c 2,31,-1
 211 535 l 1,32,33
 243 558 243 558 280.5 570.5 c 128,-1,34
 318 583 318 583 358 583 c 0,35,36
 405 583 405 583 444 570.5 c 128,-1,37
 483 558 483 558 513 536 c 1,38,-1
 550 573 l 2,39,40
 579 603 579 603 600 582 c 0,41,42
 622 557 622 557 591 529 c 2,43,-1
 557 495 l 1,44,45
 610 429 610 429 610 337 c 0,0,1
165 333 m 0,46,47
 165 292 165 292 179.5 256.5 c 128,-1,48
 194 221 194 221 220.5 194.5 c 128,-1,49
 247 168 247 168 282.5 153 c 128,-1,50
 318 138 318 138 359 138 c 0,51,52
 399 138 399 138 435 153 c 128,-1,53
 471 168 471 168 497.5 194.5 c 128,-1,54
 524 221 524 221 539.5 256.5 c 128,-1,55
 555 292 555 292 555 333 c 0,56,57
 555 373 555 373 539.5 409 c 128,-1,58
 524 445 524 445 497.5 471.5 c 128,-1,59
 471 498 471 498 435 513.5 c 128,-1,60
 399 529 399 529 359 529 c 0,61,62
 318 529 318 529 282.5 513.5 c 128,-1,63
 247 498 247 498 220.5 471.5 c 128,-1,64
 194 445 194 445 179.5 409 c 128,-1,65
 165 373 165 373 165 333 c 0,46,47
EndSplineSet
EndChar
StartChar: yen
Encoding: 165 165 104
Width: 589
VWidth: 1473
Flags: W
HStem: -6 21G<291 304.5> 200 55<99.4238 267 330 500.458> 343 56<99.4238 220 376 500.458>
VStem: 267 63<12.1265 200 255 329>
Fore
535 716 m 256,0,1
 547 709 547 709 550.5 697 c 128,-1,2
 554 685 554 685 547 673 c 2,3,-1
 376 399 l 1,4,-1
 486 399 l 2,5,6
 498 399 498 399 507 391 c 128,-1,7
 516 383 516 383 516 371 c 256,8,9
 516 359 516 359 507 351 c 128,-1,10
 498 343 498 343 486 343 c 2,11,-1
 339 343 l 1,12,-1
 330 329 l 1,13,-1
 330 255 l 1,14,-1
 486 255 l 2,15,16
 498 255 498 255 507 247 c 128,-1,17
 516 239 516 239 516 227 c 256,18,19
 516 215 516 215 507 207.5 c 128,-1,20
 498 200 498 200 486 200 c 2,21,-1
 330 200 l 1,22,-1
 330 28 l 2,23,24
 330 13 330 13 320.5 3.5 c 128,-1,25
 311 -6 311 -6 298 -6 c 256,26,27
 284 -6 284 -6 275.5 3.5 c 128,-1,28
 267 13 267 13 267 28 c 2,29,-1
 267 200 l 1,30,-1
 113 200 l 2,31,32
 102 200 102 200 93 207.5 c 128,-1,33
 84 215 84 215 84 227 c 256,34,35
 84 239 84 239 93 247 c 128,-1,36
 102 255 102 255 113 255 c 2,37,-1
 267 255 l 1,38,-1
 267 329 l 1,39,-1
 258 343 l 1,40,-1
 113 343 l 2,41,42
 102 343 102 343 93 351 c 128,-1,43
 84 359 84 359 84 371 c 256,44,45
 84 383 84 383 93 391 c 128,-1,46
 102 399 102 399 113 399 c 2,47,-1
 220 399 l 1,48,-1
 52 673 l 2,49,50
 44 685 44 685 47 697 c 128,-1,51
 50 709 50 709 62 716 c 256,52,53
 74 723 74 723 88 720 c 128,-1,54
 102 717 102 717 109 706 c 2,55,-1
 298 399 l 1,56,-1
 299 399 l 1,57,-1
 489 706 l 2,58,59
 496 717 496 717 509.5 720 c 128,-1,60
 523 723 523 723 535 716 c 256,0,1
EndSplineSet
EndChar
StartChar: brokenbar
Encoding: 166 166 105
Width: 232
VWidth: 1473
Flags: W
VStem: 90 53<-219.521 202.533 337.479 759.545 377 722 -180 -180>
Fore
116 760 m 256,0,1
 143 760 143 760 143 722 c 2,2,-1
 143 377 l 2,3,4
 143 337 143 337 116 337 c 256,5,6
 90 337 90 337 90 377 c 2,7,-1
 90 722 l 2,8,9
 90 760 90 760 116 760 c 256,0,1
116 203 m 256,10,11
 143 203 143 203 143 164 c 2,12,-1
 143 -180 l 2,13,14
 143 -220 143 -220 116 -220 c 256,15,16
 90 -220 90 -220 90 -180 c 2,17,-1
 90 164 l 2,18,19
 90 203 90 203 116 203 c 256,10,11
EndSplineSet
EndChar
StartChar: section
Encoding: 167 167 106
Width: 567
VWidth: 1473
Flags: W
HStem: 704 46<246.849 346.246>
VStem: 67 48.5<371.625 454.683> 106 56<15.9854 118.295> 408 49<560.109 615.93>
Fore
162 94 m 0,0,1
 161 28 161 28 201.5 -3.5 c 128,-1,2
 242 -35 242 -35 305 -28 c 0,3,4
 337 -25 337 -25 360 -4.5 c 128,-1,5
 383 16 383 16 391 44 c 128,-1,6
 399 72 399 72 389.5 101.5 c 128,-1,7
 380 131 380 131 345 152 c 2,8,-1
 134 273 l 2,9,10
 96 293 96 293 79.5 328.5 c 128,-1,11
 63 364 63 364 67 401 c 128,-1,12
 71 438 71 438 94.5 470 c 128,-1,13
 118 502 118 502 162 520 c 1,14,15
 127 548 127 548 118.5 587 c 128,-1,16
 110 626 110 626 127 662 c 128,-1,17
 144 698 144 698 184 724 c 128,-1,18
 224 750 224 750 284 750 c 0,19,20
 330 750 330 750 362.5 735 c 128,-1,21
 395 720 395 720 416.5 697.5 c 128,-1,22
 438 675 438 675 447.5 645.5 c 128,-1,23
 457 616 457 616 457 588 c 256,24,25
 457 560 457 560 433 560 c 0,26,27
 408 560 408 560 408 588 c 0,28,29
 408 603 408 603 403 622.5 c 128,-1,30
 398 642 398 642 384.5 660 c 128,-1,31
 371 678 371 678 347 690.5 c 128,-1,32
 323 703 323 703 283 704 c 0,33,34
 250 706 250 706 223 691 c 128,-1,35
 196 676 196 676 181 654 c 128,-1,36
 166 632 166 632 168.5 604 c 128,-1,37
 171 576 171 576 199 551 c 0,38,39
 206 544 206 544 227.5 530.5 c 128,-1,40
 249 517 249 517 277 501 c 128,-1,41
 305 485 305 485 334.5 467 c 128,-1,42
 364 449 364 449 389.5 435 c 128,-1,43
 415 421 415 421 432 411.5 c 128,-1,44
 449 402 449 402 452 401 c 0,45,46
 486 377 486 377 496.5 342.5 c 128,-1,47
 507 308 507 308 499 274 c 128,-1,48
 491 240 491 240 465.5 210 c 128,-1,49
 440 180 440 180 402 165 c 1,50,51
 439 136 439 136 445.5 95.5 c 128,-1,52
 452 55 452 55 436 17 c 128,-1,53
 420 -21 420 -21 384.5 -48 c 128,-1,54
 349 -75 349 -75 301 -77 c 0,55,56
 214 -81 214 -81 160 -34 c 128,-1,57
 106 13 106 13 106 96 c 0,58,59
 106 112 106 112 115 118.5 c 128,-1,60
 124 125 124 125 137 125 c 0,61,62
 162 125 162 125 162 94 c 0,0,1
190 489 m 1,63,64
 158 477 158 477 138.5 456 c 128,-1,65
 119 435 119 435 115.5 409 c 128,-1,66
 112 383 112 383 125 357 c 128,-1,67
 138 331 138 331 169 312 c 2,68,-1
 373 196 l 1,69,70
 405 208 405 208 425 230 c 128,-1,71
 445 252 445 252 451 277 c 128,-1,72
 457 302 457 302 446 328 c 128,-1,73
 435 354 435 354 405 371 c 2,74,-1
 190 489 l 1,63,64
EndSplineSet
EndChar
StartChar: dieresis
Encoding: 168 168 107
Width: 318
VWidth: 1473
Flags: W
HStem: 592 93<27.8925 94.0763 221.893 288.077>
VStem: 15 93<604.893 671.592> 209 93<604.893 671.592>
Fore
209 638 m 256,0,1
 209 659 209 659 221.5 672 c 128,-1,2
 234 685 234 685 255 685 c 256,3,4
 275 685 275 685 288.5 672 c 128,-1,5
 302 659 302 659 302 638 c 256,6,7
 302 617 302 617 288.5 604.5 c 128,-1,8
 275 592 275 592 255 592 c 256,9,10
 234 592 234 592 221.5 604.5 c 128,-1,11
 209 617 209 617 209 638 c 256,0,1
15 638 m 256,12,13
 15 659 15 659 27.5 672 c 128,-1,14
 40 685 40 685 60 685 c 256,15,16
 81 685 81 685 94.5 672 c 128,-1,17
 108 659 108 659 108 638 c 256,18,19
 108 617 108 617 94.5 604.5 c 128,-1,20
 81 592 81 592 60 592 c 256,21,22
 40 592 40 592 27.5 604.5 c 128,-1,23
 15 617 15 617 15 638 c 256,12,13
EndSplineSet
EndChar
StartChar: copyright
Encoding: 169 169 108
Width: 869
VWidth: 1473
Flags: W
HStem: -15 46<313.518 552.257> 124 53<330.324 544.836> 541 48<325.938 543.57> 691 43<315.547 550.206>
VStem: 57 45<241.386 478.257> 183 51<258.908 445.613> 763 46<241.386 478.257>
Fore
57 359 m 0,0,1
 57 436 57 436 86.5 504.5 c 128,-1,2
 116 573 116 573 168 624 c 128,-1,3
 220 675 220 675 287.5 704.5 c 128,-1,4
 355 734 355 734 433 734 c 0,5,6
 510 734 510 734 578.5 704.5 c 128,-1,7
 647 675 647 675 698.5 624 c 128,-1,8
 750 573 750 573 779.5 504.5 c 128,-1,9
 809 436 809 436 809 359 c 0,10,11
 809 281 809 281 779.5 213.5 c 128,-1,12
 750 146 750 146 698.5 95 c 128,-1,13
 647 44 647 44 578.5 14.5 c 128,-1,14
 510 -15 510 -15 433 -15 c 0,15,16
 355 -15 355 -15 287.5 14.5 c 128,-1,17
 220 44 220 44 168 95 c 128,-1,18
 116 146 116 146 86.5 213.5 c 128,-1,19
 57 281 57 281 57 359 c 0,0,1
433 31 m 0,20,21
 501 31 501 31 561.5 56.5 c 128,-1,22
 622 82 622 82 667 127 c 128,-1,23
 712 172 712 172 737.5 232 c 128,-1,24
 763 292 763 292 763 359 c 256,25,26
 763 427 763 427 737.5 487.5 c 128,-1,27
 712 548 712 548 667 593.5 c 128,-1,28
 622 639 622 639 561.5 665 c 128,-1,29
 501 691 501 691 433 691 c 0,30,31
 364 691 364 691 304.5 665 c 128,-1,32
 245 639 245 639 199 593.5 c 128,-1,33
 153 548 153 548 127.5 487.5 c 128,-1,34
 102 427 102 427 102 359 c 256,35,36
 102 292 102 292 127.5 232 c 128,-1,37
 153 172 153 172 199 127 c 128,-1,38
 245 82 245 82 304.5 56.5 c 128,-1,39
 364 31 364 31 433 31 c 0,20,21
589 231 m 0,40,41
 595 239 595 239 604.5 239.5 c 128,-1,42
 614 240 614 240 622 233 c 256,43,44
 629 225 629 225 630 215 c 128,-1,45
 631 205 631 205 623 197 c 0,46,47
 563 124 563 124 432 124 c 0,48,49
 383 124 383 124 338 138.5 c 128,-1,50
 293 153 293 153 258.5 183.5 c 128,-1,51
 224 214 224 214 203.5 257.5 c 128,-1,52
 183 301 183 301 183 358 c 0,53,54
 183 398 183 398 197.5 439 c 128,-1,55
 212 480 212 480 242.5 513.5 c 128,-1,56
 273 547 273 547 320 568 c 128,-1,57
 367 589 367 589 432 589 c 0,58,59
 563 589 563 589 625 519 c 0,60,61
 632 511 632 511 631.5 501 c 128,-1,62
 631 491 631 491 623 483 c 256,63,64
 616 476 616 476 606.5 476.5 c 128,-1,65
 597 477 597 477 589 485 c 0,66,67
 541 541 541 541 432 541 c 0,68,69
 343 541 343 541 288.5 494.5 c 128,-1,70
 234 448 234 448 234 358 c 0,71,72
 234 265 234 265 286.5 221 c 128,-1,73
 339 177 339 177 432 177 c 0,74,75
 541 177 541 177 589 231 c 0,40,41
EndSplineSet
EndChar
StartChar: ordfeminine
Encoding: 170 170 109
Width: 378
VWidth: 1473
Flags: W
HStem: 303 42<123.128 219.505> 485 44<128.221 239.81> 583 42<118.868 265.278>
VStem: 35 42<367.227 445.657> 298 38<314.704 345 403.091 449.076 486 550.116>
Fore
178 303 m 0,0,1
 150 303 150 303 124.5 310 c 128,-1,2
 99 317 99 317 79 331 c 128,-1,3
 59 345 59 345 47 366 c 128,-1,4
 35 387 35 387 35 417 c 0,5,6
 35 468 35 468 77 498.5 c 128,-1,7
 119 529 119 529 186 529 c 0,8,9
 237 529 237 529 261.5 513.5 c 128,-1,10
 286 498 286 498 298 486 c 1,11,12
 296 538 296 538 266.5 560.5 c 128,-1,13
 237 583 237 583 181 583 c 0,14,15
 152 583 152 583 130.5 576.5 c 128,-1,16
 109 570 109 570 88 558 c 0,17,18
 74 551 74 551 68 554 c 128,-1,19
 62 557 62 557 59 560 c 0,20,21
 49 567 49 567 53 577.5 c 128,-1,22
 57 588 57 588 65 592 c 0,23,24
 115 625 115 625 183 625 c 0,25,26
 259 625 259 625 297.5 591 c 128,-1,27
 336 557 336 557 336 482 c 2,28,-1
 336 330 l 2,29,30
 336 308 336 308 314 308 c 0,31,32
 306 308 306 308 301 314.5 c 128,-1,33
 296 321 296 321 298 330 c 1,34,-1
 298 345 l 1,35,36
 275 324 275 324 244.5 313.5 c 128,-1,37
 214 303 214 303 178 303 c 0,0,1
184 485 m 0,38,39
 165 485 165 485 146 480.5 c 128,-1,40
 127 476 127 476 111.5 467 c 128,-1,41
 96 458 96 458 86.5 445 c 128,-1,42
 77 432 77 432 77 414 c 0,43,44
 77 380 77 380 105.5 362.5 c 128,-1,45
 134 345 134 345 181 345 c 0,46,47
 218 345 218 345 240 353.5 c 128,-1,48
 262 362 262 362 273 374 c 128,-1,49
 284 386 284 386 288 397 c 128,-1,50
 292 408 292 408 292 414 c 0,51,52
 292 436 292 436 281.5 449.5 c 128,-1,53
 271 463 271 463 255 471 c 128,-1,54
 239 479 239 479 219.5 482 c 128,-1,55
 200 485 200 485 184 485 c 0,38,39
EndSplineSet
EndChar
StartChar: guillemotleft
Encoding: 171 171 110
Width: 441
VWidth: 1473
Flags: W
HStem: 62 431<183.5 193 183.5 202 183.5 183.5>
VStem: 41 338<275 474.5 275 293.5>
Fore
168 482 m 2,0,1
 174 491 174 491 183.5 493 c 128,-1,2
 193 495 193 495 202 491 c 0,3,4
 211 485 211 485 214 474.5 c 128,-1,5
 217 464 217 464 211 455 c 2,6,-1
 94 275 l 1,7,-1
 211 96 l 2,8,9
 217 87 217 87 214 76.5 c 128,-1,10
 211 66 211 66 202 62 c 0,11,12
 181 49 181 49 168 69 c 2,13,-1
 41 275 l 1,14,-1
 168 482 l 2,0,1
333 482 m 2,15,16
 339 491 339 491 348.5 493 c 128,-1,17
 358 495 358 495 367 491 c 0,18,19
 376 485 376 485 379 474.5 c 128,-1,20
 382 464 382 464 376 455 c 2,21,-1
 259 275 l 1,22,-1
 376 96 l 2,23,24
 382 87 382 87 379 76.5 c 128,-1,25
 376 66 376 66 367 62 c 0,26,27
 346 49 346 49 333 69 c 2,28,-1
 206 275 l 1,29,-1
 333 482 l 2,15,16
EndSplineSet
EndChar
StartChar: logicalnot
Encoding: 172 172 111
Width: 754
VWidth: 1473
Flags: W
HStem: 358 59<57.489 636>
VStem: 636 59<109.856 358>
Fore
71 417 m 2,0,-1
 695 417 l 1,1,-1
 695 124 l 2,2,3
 695 112 695 112 686.5 103 c 128,-1,4
 678 94 678 94 666 94 c 0,5,6
 653 94 653 94 644.5 103 c 128,-1,7
 636 112 636 112 636 124 c 2,8,-1
 636 358 l 1,9,-1
 71 358 l 2,10,11
 59 358 59 358 50 366 c 128,-1,12
 41 374 41 374 41 386 c 0,13,14
 41 399 41 399 50 408 c 128,-1,15
 59 417 59 417 71 417 c 2,0,-1
EndSplineSet
EndChar
StartChar: registered
Encoding: 174 174 112
Width: 842
VWidth: 1473
Flags: W
HStem: -15 43<304.819 539.521> 564 41<354.325 495.794> 691 44<304.819 539.521>
VStem: 47 44<241.547 478.156> 227 43<133.005 510.354> 576 44<379.285 514.476> 754 43<239.518 480.216>
Fore
797 359 m 256,0,1
 797 281 797 281 767.5 213.5 c 128,-1,2
 738 146 738 146 687 95 c 128,-1,3
 636 44 636 44 567.5 14.5 c 128,-1,4
 499 -15 499 -15 423 -15 c 0,5,6
 345 -15 345 -15 276.5 14.5 c 128,-1,7
 208 44 208 44 157 95 c 128,-1,8
 106 146 106 146 76.5 213.5 c 128,-1,9
 47 281 47 281 47 359 c 256,10,11
 47 438 47 438 76.5 506.5 c 128,-1,12
 106 575 106 575 157 625.5 c 128,-1,13
 208 676 208 676 276.5 705.5 c 128,-1,14
 345 735 345 735 423 735 c 0,15,16
 499 735 499 735 567.5 705.5 c 128,-1,17
 636 676 636 676 687 625.5 c 128,-1,18
 738 575 738 575 767.5 506.5 c 128,-1,19
 797 438 797 438 797 359 c 256,0,1
754 359 m 256,20,21
 754 429 754 429 728.5 489.5 c 128,-1,22
 703 550 703 550 657 594.5 c 128,-1,23
 611 639 611 639 551 665 c 128,-1,24
 491 691 491 691 423 691 c 0,25,26
 354 691 354 691 293.5 665 c 128,-1,27
 233 639 233 639 188 594.5 c 128,-1,28
 143 550 143 550 117 489.5 c 128,-1,29
 91 429 91 429 91 359 c 256,30,31
 91 290 91 290 117 230.5 c 128,-1,32
 143 171 143 171 188 125.5 c 128,-1,33
 233 80 233 80 293.5 54 c 128,-1,34
 354 28 354 28 423 28 c 0,35,36
 491 28 491 28 551 54 c 128,-1,37
 611 80 611 80 657 125.5 c 128,-1,38
 703 171 703 171 728.5 230.5 c 128,-1,39
 754 290 754 290 754 359 c 256,20,21
430 309 m 1,40,41
 455 303 455 303 482.5 281 c 128,-1,42
 510 259 510 259 533.5 234 c 128,-1,43
 557 209 557 209 574 185.5 c 128,-1,44
 591 162 591 162 595 152 c 1,45,46
 598 140 598 140 585 133 c 1,47,48
 570 121 570 121 557 138 c 0,49,50
 523 186 523 186 488.5 220.5 c 128,-1,51
 454 255 454 255 424.5 278 c 128,-1,52
 395 301 395 301 373 314 c 128,-1,53
 351 327 351 327 342 331 c 1,54,55
 329 334 329 334 323.5 343 c 128,-1,56
 318 352 318 352 326 362 c 0,57,58
 330 370 330 370 339.5 370.5 c 128,-1,59
 349 371 349 371 355 368 c 0,60,61
 395 352 395 352 434.5 347.5 c 128,-1,62
 474 343 474 343 506 350.5 c 128,-1,63
 538 358 538 358 557 380 c 128,-1,64
 576 402 576 402 576 442 c 0,65,66
 576 502 576 502 535.5 533 c 128,-1,67
 495 564 495 564 429 564 c 0,68,69
 355 564 355 564 312.5 531.5 c 128,-1,70
 270 499 270 499 270 436 c 2,71,-1
 270 155 l 2,72,73
 270 133 270 133 249 133 c 0,74,75
 227 133 227 133 227 155 c 2,76,-1
 227 442 l 2,77,78
 227 488 227 488 244.5 519.5 c 128,-1,79
 262 551 262 551 290 570 c 128,-1,80
 318 589 318 589 354 597 c 128,-1,81
 390 605 390 605 429 605 c 0,82,83
 460 605 460 605 493.5 597 c 128,-1,84
 527 589 527 589 555 570.5 c 128,-1,85
 583 552 583 552 601.5 520.5 c 128,-1,86
 620 489 620 489 620 443 c 0,87,88
 620 405 620 405 605.5 377 c 128,-1,89
 591 349 591 349 565 332 c 128,-1,90
 539 315 539 315 504.5 309 c 128,-1,91
 470 303 470 303 430 309 c 1,40,41
EndSplineSet
EndChar
StartChar: macron
Encoding: 175 175 113
Width: 318
VWidth: 1473
Flags: W
HStem: 622 47<41 275 41 275 41 41>
Fore
41 622 m 1,0,-1
 41 669 l 1,1,-1
 275 669 l 1,2,-1
 275 622 l 1,3,-1
 41 622 l 1,0,-1
EndSplineSet
EndChar
StartChar: degree
Encoding: 176 176 114
Width: 318
VWidth: 1473
Flags: W
HStem: 470 49<106.773 204.725> 684 51<119.692 204.334>
VStem: 29 51<545.272 630.426> 245 48<558.739 643.808>
Fore
162 735 m 256,0,1
 189 735 189 735 212.5 724 c 128,-1,2
 236 713 236 713 254.5 694.5 c 128,-1,3
 273 676 273 676 283 652 c 128,-1,4
 293 628 293 628 293 601 c 256,5,6
 293 575 293 575 283 550.5 c 128,-1,7
 273 526 273 526 254.5 508.5 c 128,-1,8
 236 491 236 491 212.5 480.5 c 128,-1,9
 189 470 189 470 162 470 c 0,10,11
 108 470 108 470 68.5 508.5 c 128,-1,12
 29 547 29 547 29 601 c 0,13,14
 29 628 29 628 39.5 652 c 128,-1,15
 50 676 50 676 68.5 694.5 c 128,-1,16
 87 713 87 713 111.5 724 c 128,-1,17
 136 735 136 735 162 735 c 256,0,1
162 519 m 256,18,19
 196 519 196 519 220.5 543 c 128,-1,20
 245 567 245 567 245 601 c 256,21,22
 245 635 245 635 220.5 659.5 c 128,-1,23
 196 684 196 684 162 684 c 256,24,25
 128 684 128 684 103 659.5 c 128,-1,26
 78 635 78 635 80 601 c 0,27,28
 80 567 80 567 104 543 c 128,-1,29
 128 519 128 519 162 519 c 256,18,19
EndSplineSet
EndChar
StartChar: plusminus
Encoding: 177 177 115
Width: 632
VWidth: 1473
Flags: W
HStem: 0 56<99.6094 537.391> 277 57<96.7515 289 346 538.209>
VStem: 99 439<1.75 54.25 278.976 331.954> 289 57<106.791 277 334 509.229>
Fore
134 277 m 2,0,1
 96 277 96 277 96 305 c 0,2,3
 96 334 96 334 134 334 c 2,4,-1
 289 334 l 1,5,-1
 289 471 l 2,6,7
 289 510 289 510 318 510 c 0,8,9
 346 510 346 510 346 471 c 2,10,-1
 346 334 l 1,11,-1
 499 334 l 2,12,13
 539 334 539 334 539 305 c 0,14,15
 539 277 539 277 499 277 c 2,16,-1
 346 277 l 1,17,-1
 346 146 l 2,18,19
 346 106 346 106 318 106 c 0,20,21
 289 106 289 106 289 146 c 2,22,-1
 289 277 l 1,23,-1
 134 277 l 2,0,1
499 56 m 2,24,25
 538 56 538 56 538 28 c 256,26,27
 538 0 538 0 499 0 c 2,28,-1
 138 0 l 2,29,30
 99 0 99 0 99 28 c 256,31,32
 99 56 99 56 138 56 c 2,33,-1
 499 56 l 2,24,25
EndSplineSet
EndChar
StartChar: twosuperior
Encoding: 178 178 116
Width: 453
VWidth: 1473
Flags: W
HStem: 280 51<159 375.104> 653 53<173.114 289.859>
VStem: 68 56<551.598 587.375>
Fore
389 306 m 1,0,1
 389 295 389 295 381 287.5 c 128,-1,2
 373 280 373 280 359 280 c 2,3,-1
 90 280 l 2,4,5
 69 280 69 280 62.5 297.5 c 128,-1,6
 56 315 56 315 72 331 c 2,7,-1
 100 354 l 2,8,9
 121 370 121 370 166 406 c 128,-1,10
 211 442 211 442 293 511 c 0,11,12
 317 532 317 532 322 556 c 128,-1,13
 327 580 327 580 317.5 601.5 c 128,-1,14
 308 623 308 623 286 638 c 128,-1,15
 264 653 264 653 234 653 c 0,16,17
 200 653 200 653 179 645.5 c 128,-1,18
 158 638 158 638 146 625.5 c 128,-1,19
 134 613 134 613 129.5 596 c 128,-1,20
 125 579 125 579 124 560 c 0,21,22
 124 548 124 548 115 542 c 128,-1,23
 106 536 106 536 96 536 c 256,24,25
 85 536 85 536 76.5 545 c 128,-1,26
 68 554 68 554 68 564 c 0,27,28
 81 706 81 706 234 706 c 0,29,30
 281 706 281 706 316.5 681.5 c 128,-1,31
 352 657 352 657 367.5 621 c 128,-1,32
 383 585 383 585 375 544.5 c 128,-1,33
 367 504 367 504 327 471 c 2,34,35
 307 454.5 l 2,36,37
 287 438 287 438 260 415.5 c 128,-1,38
 233 393 233 393 205 369.5 c 128,-1,39
 177 346 177 346 159 331 c 1,40,-1
 359 331 l 2,41,42
 373 331 373 331 380 324 c 1,43,-1
 389 306 l 1,0,1
EndSplineSet
EndChar
StartChar: threesuperior
Encoding: 179 179 117
Width: 441
VWidth: 1473
Flags: W
HStem: 280 54<180.718 273.659> 486 55<178.573 267> 656 53<154.652 280.268>
VStem: 78 52<358.896 427.184 580.573 635.38> 315 56<356.147 452.476>
Fore
371 404 m 0,0,1
 371 377 371 377 358.5 354 c 128,-1,2
 346 331 346 331 325.5 314.5 c 128,-1,3
 305 298 305 298 280 289 c 128,-1,4
 255 280 255 280 228 280 c 0,5,6
 208 280 208 280 181.5 288 c 128,-1,7
 155 296 155 296 132 312.5 c 128,-1,8
 109 329 109 329 93.5 354 c 128,-1,9
 78 379 78 379 78 412 c 0,10,11
 78 424 78 424 84.5 432 c 128,-1,12
 91 440 91 440 103 440 c 0,13,14
 130 440 130 440 130 412 c 0,15,16
 130 370 130 370 161.5 352 c 128,-1,17
 193 334 193 334 228 334 c 0,18,19
 261 334 261 334 288 352 c 128,-1,20
 315 370 315 370 315 404 c 0,21,22
 315 430 315 430 308 446.5 c 128,-1,23
 301 463 301 463 291 471.5 c 128,-1,24
 281 480 281 480 272.5 483 c 128,-1,25
 264 486 264 486 261 486 c 2,26,-1
 192 486 l 2,27,28
 181 486 181 486 173 493.5 c 128,-1,29
 165 501 165 501 165 513 c 256,30,31
 165 524 165 524 172.5 532.5 c 128,-1,32
 180 541 180 541 192 541 c 2,33,-1
 267 541 l 1,34,35
 286 544 286 544 294.5 563 c 128,-1,36
 303 582 303 582 301 601 c 0,37,38
 298 622 298 622 278 639 c 128,-1,39
 258 656 258 656 225 656 c 0,40,41
 184 656 184 656 158.5 640.5 c 128,-1,42
 133 625 133 625 133 594 c 0,43,44
 133 582 133 582 125.5 574.5 c 128,-1,45
 118 567 118 567 106 567 c 0,46,47
 96 567 96 567 88.5 575 c 128,-1,48
 81 583 81 583 81 594 c 0,49,50
 81 648 81 648 120 678.5 c 128,-1,51
 159 709 159 709 225 709 c 0,52,53
 277 709 277 709 311.5 680 c 128,-1,54
 346 651 346 651 352 613 c 0,55,56
 357 585 357 585 345.5 557 c 128,-1,57
 334 529 334 529 311 513 c 1,58,59
 336 501 336 501 353.5 475 c 128,-1,60
 371 449 371 449 371 404 c 0,0,1
EndSplineSet
EndChar
StartChar: acute
Encoding: 180 180 118
Width: 318
VWidth: 1473
Flags: W
HStem: 569 153<165 218 218 218>
Fore
165 569 m 1,0,-1
 119 569 l 1,1,-1
 218 722 l 1,2,-1
 305 722 l 1,3,-1
 165 569 l 1,0,-1
EndSplineSet
EndChar
StartChar: mu
Encoding: 181 181 119
Width: 702
VWidth: 1473
Flags: W
HStem: -283 21G<100 120.5> -7 57<241.47 459.736> 506 20G<106 118 571 591>
VStem: 84 56<146.867 512.027> 84 44.5<-16.373 12.9077 12.9077 78.5192 78.5192 108> 558 53<7.68066 93 148.312 258 258 512.897>
Fore
127 108 m 1,0,1
 127 87 127 87 128.5 48.5 c 128,-1,2
 130 10 130 10 133 -32 c 128,-1,3
 136 -74 136 -74 138.5 -115 c 128,-1,4
 141 -156 141 -156 146 -184 c 0,5,6
 147 -202 147 -202 148.5 -219 c 128,-1,7
 150 -236 150 -236 147 -250.5 c 128,-1,8
 144 -265 144 -265 136 -274 c 128,-1,9
 128 -283 128 -283 113 -283 c 0,10,11
 87 -283 87 -283 79 -256.5 c 128,-1,12
 71 -230 71 -230 77 -184 c 0,13,14
 78 -150 78 -150 80 -112 c 0,15,16
 81 -78 81 -78 82.5 -34 c 128,-1,17
 84 10 84 10 84 60 c 2,18,-1
 84 498 l 2,19,20
 84 510 84 510 92 518 c 128,-1,21
 100 526 100 526 112 526 c 256,22,23
 124 526 124 526 132 518 c 128,-1,24
 140 510 140 510 140 498 c 2,25,-1
 140 243 l 2,26,27
 140 155 140 155 196 102.5 c 128,-1,28
 252 50 252 50 348 50 c 0,29,30
 557 50 557 50 557 258 c 2,31,-1
 557 498 l 2,32,33
 557 526 557 526 585 526 c 0,34,35
 597 526 597 526 604 518 c 128,-1,36
 611 510 611 510 611 498 c 2,37,-1
 611 22 l 2,38,39
 611 -6 611 -6 585 -6 c 0,40,41
 573 -6 573 -6 565.5 2 c 128,-1,42
 558 10 558 10 558 22 c 2,43,-1
 558 93 l 1,44,45
 526 46 526 46 474.5 19.5 c 128,-1,46
 423 -7 423 -7 348 -7 c 0,47,48
 271 -7 271 -7 213.5 19.5 c 128,-1,49
 156 46 156 46 127 108 c 1,0,1
EndSplineSet
EndChar
StartChar: paragraph
Encoding: 182 182 120
Width: 589
VWidth: 1473
Flags: W
HStem: 656 59<334 428.459>
VStem: 72 262<433.127 589.842> 278 56<-216.027 315> 436 58<-222.14 648.016>
Fore
471 691 m 0,0,1
 479 684 479 684 486.5 665.5 c 128,-1,2
 494 647 494 647 494 625 c 2,3,-1
 494 -209 l 2,4,5
 494 -221 494 -221 485 -229 c 128,-1,6
 476 -237 476 -237 464 -237 c 256,7,8
 452 -237 452 -237 444 -229 c 128,-1,9
 436 -221 436 -221 436 -209 c 2,10,-1
 436 625 l 2,11,12
 436 656 436 656 405 656 c 2,13,-1
 334 656 l 1,14,-1
 334 -202 l 2,15,16
 334 -214 334 -214 326 -222 c 128,-1,17
 318 -230 318 -230 306 -230 c 0,18,19
 278 -230 278 -230 278 -202 c 2,20,-1
 278 315 l 1,21,22
 234 314 234 314 196.5 328.5 c 128,-1,23
 159 343 159 343 132 369.5 c 128,-1,24
 105 396 105 396 88.5 432 c 128,-1,25
 72 468 72 468 72 511 c 256,26,27
 72 554 72 554 87.5 591 c 128,-1,28
 103 628 103 628 130.5 656 c 128,-1,29
 158 684 158 684 194.5 699.5 c 128,-1,30
 231 715 231 715 274 715 c 2,31,-1
 405 715 l 2,32,33
 407 715 407 715 413.5 715 c 128,-1,34
 420 715 420 715 430 712.5 c 128,-1,35
 440 710 440 710 451.5 705 c 128,-1,36
 463 700 463 700 471 691 c 0,0,1
EndSplineSet
EndChar
StartChar: periodcentered
Encoding: 183 183 121
Width: 338
VWidth: 1473
Flags: W
HStem: 253 190<109.773 229.812>
VStem: 74 191<287.57 407.828>
Fore
265 348 m 256,0,1
 265 308 265 308 237 280.5 c 128,-1,2
 209 253 209 253 169 253 c 0,3,4
 131 253 131 253 102.5 280.5 c 128,-1,5
 74 308 74 308 74 348 c 256,6,7
 74 387 74 387 102.5 415 c 128,-1,8
 131 443 131 443 169 443 c 0,9,10
 209 443 209 443 237 415 c 128,-1,11
 265 387 265 387 265 348 c 256,0,1
EndSplineSet
EndChar
StartChar: cedilla
Encoding: 184 184 122
Width: 318
VWidth: 1473
Flags: W
HStem: -209.5 215.5<111.5 162 162 162>
VStem: 192 60<-159.498 -93.6464>
Fore
252 -122 m 0,0,1
 252 -158 252 -158 230 -178.5 c 128,-1,2
 208 -199 208 -199 177 -206.5 c 128,-1,3
 146 -214 146 -214 111.5 -209.5 c 128,-1,4
 77 -205 77 -205 52 -189 c 1,5,-1
 81 -152 l 1,6,7
 93 -161 93 -161 111.5 -165 c 128,-1,8
 130 -169 130 -169 147.5 -167.5 c 128,-1,9
 165 -166 165 -166 178.5 -157.5 c 128,-1,10
 192 -149 192 -149 192 -130 c 0,11,12
 192 -105 192 -105 166 -91 c 128,-1,13
 140 -77 140 -77 105 -80 c 1,14,-1
 162 6 l 1,15,-1
 217 6 l 1,16,-1
 171 -52 l 1,17,18
 200 -57 200 -57 226 -75 c 128,-1,19
 252 -93 252 -93 252 -122 c 0,0,1
EndSplineSet
EndChar
StartChar: onesuperior
Encoding: 185 185 123
Width: 343
VWidth: 1473
Flags: W
HStem: 281 424<183.343 204.657 192 200 200 200>
VStem: 165 53<295.347 639>
Fore
218 309 m 2,0,1
 218 298 218 298 210.5 289.5 c 128,-1,2
 203 281 203 281 192 281 c 256,3,4
 180 281 180 281 172.5 289.5 c 128,-1,5
 165 298 165 298 165 309 c 2,6,-1
 165 639 l 1,7,-1
 91 613 l 2,8,9
 81 608 81 608 70.5 612.5 c 128,-1,10
 60 617 60 617 57 628 c 0,11,12
 53 639 53 639 57.5 647.5 c 128,-1,13
 62 656 62 656 72 661 c 1,14,-1
 183 704 l 2,15,16
 194 707 194 707 200 705 c 128,-1,17
 206 703 206 703 209 700 c 0,18,19
 217 692 217 692 217.5 682 c 128,-1,20
 218 672 218 672 218 669 c 2,21,-1
 218 309 l 2,0,1
EndSplineSet
EndChar
StartChar: ordmasculine
Encoding: 186 186 124
Width: 394
VWidth: 1473
Flags: W
HStem: 275 45<147.213 250.294> 583 45<163.072 262.334>
VStem: 19 50<386.877 501.766> 327 49<373.097 485.201>
Fore
376 454 m 0,0,1
 376 407 376 407 359 373 c 128,-1,2
 342 339 342 339 315.5 317.5 c 128,-1,3
 289 296 289 296 257 285.5 c 128,-1,4
 225 275 225 275 196 275 c 0,5,6
 158 275 158 275 125.5 288.5 c 128,-1,7
 93 302 93 302 69.5 325 c 128,-1,8
 46 348 46 348 32.5 379.5 c 128,-1,9
 19 411 19 411 19 448 c 0,10,11
 19 489 19 489 34.5 523 c 128,-1,12
 50 557 50 557 74.5 580 c 128,-1,13
 99 603 99 603 130.5 615.5 c 128,-1,14
 162 628 162 628 196 628 c 0,15,16
 237 628 237 628 271 614 c 128,-1,17
 305 600 305 600 328 576 c 128,-1,18
 351 552 351 552 363.5 520.5 c 128,-1,19
 376 489 376 489 376 454 c 0,0,1
327 451 m 0,20,21
 327 473 327 473 319.5 496.5 c 128,-1,22
 312 520 312 520 296 539 c 128,-1,23
 280 558 280 558 255.5 570.5 c 128,-1,24
 231 583 231 583 197 583 c 0,25,26
 165 583 165 583 141.5 571.5 c 128,-1,27
 118 560 118 560 101.5 541.5 c 128,-1,28
 85 523 85 523 77 498.5 c 128,-1,29
 69 474 69 474 69 449 c 0,30,31
 69 417 69 417 81 392.5 c 128,-1,32
 93 368 93 368 111.5 352 c 128,-1,33
 130 336 130 336 152.5 328 c 128,-1,34
 175 320 175 320 197 320 c 0,35,36
 246 320 246 320 286.5 352.5 c 128,-1,37
 327 385 327 385 327 451 c 0,20,21
EndSplineSet
EndChar
StartChar: guillemotright
Encoding: 187 187 125
Width: 441
VWidth: 1473
Flags: W
HStem: 62 431<250 260 260 262 242 260 260 260>
VStem: 65 337<76.5 275 76.5 78.5>
Fore
402 275 m 1,0,-1
 275 69 l 2,1,2
 262 49 262 49 242 62 c 0,3,4
 233 66 233 66 230 76.5 c 128,-1,5
 227 87 227 87 233 96 c 2,6,-1
 349 275 l 1,7,-1
 233 455 l 2,8,9
 227 464 227 464 230 474.5 c 128,-1,10
 233 485 233 485 242 491 c 0,11,12
 250 495 250 495 260 493 c 128,-1,13
 270 491 270 491 275 482 c 2,14,-1
 402 275 l 1,0,-1
237 275 m 1,15,-1
 110 69 l 2,16,17
 97 49 97 49 77 62 c 0,18,19
 68 66 68 66 65 76.5 c 128,-1,20
 62 87 62 87 68 96 c 2,21,-1
 184 275 l 1,22,-1
 68 455 l 2,23,24
 62 464 62 464 65 474.5 c 128,-1,25
 68 485 68 485 77 491 c 0,26,27
 85 495 85 495 95 493 c 128,-1,28
 105 491 105 491 110 482 c 2,29,-1
 237 275 l 1,15,-1
EndSplineSet
EndChar
StartChar: onequarter
Encoding: 188 188 126
Width: 889
VWidth: 1473
Flags: W
HStem: -1 21G<751.5 772> 82 52<569 737 793 834.201>
VStem: 165 53<295.347 639> 737 56<11.1321 82 134 330>
Fore
631 703 m 1,0,-1
 685 703 l 1,1,-1
 237 -16 l 1,2,-1
 183 -16 l 1,3,-1
 631 703 l 1,0,-1
218 309 m 2,4,5
 218 298 218 298 210.5 289.5 c 128,-1,6
 203 281 203 281 192 281 c 256,7,8
 180 281 180 281 172.5 289.5 c 128,-1,9
 165 298 165 298 165 309 c 2,10,-1
 165 639 l 1,11,-1
 91 613 l 2,12,13
 81 608 81 608 70.5 612.5 c 128,-1,14
 60 617 60 617 57 628 c 0,15,16
 53 639 53 639 57.5 647.5 c 128,-1,17
 62 656 62 656 72 661 c 1,18,-1
 183 704 l 2,19,20
 194 707 194 707 200 705 c 128,-1,21
 206 703 206 703 209 700 c 0,22,23
 217 692 217 692 217.5 682 c 128,-1,24
 218 672 218 672 218 669 c 2,25,-1
 218 309 l 2,4,5
847 109 m 0,26,27
 847 97 847 97 839.5 89.5 c 128,-1,28
 832 82 832 82 821 82 c 2,29,-1
 793 82 l 1,30,-1
 793 25 l 2,31,32
 793 13 793 13 785.5 6 c 128,-1,33
 778 -1 778 -1 766 -1 c 0,34,35
 737 -1 737 -1 737 25 c 2,36,-1
 737 82 l 1,37,-1
 511 82 l 1,38,39
 502 81 502 81 496.5 85.5 c 128,-1,40
 491 90 491 90 487 97.5 c 128,-1,41
 483 105 483 105 484 112 c 128,-1,42
 485 119 485 119 491 125 c 2,43,-1
 745 418 l 1,44,45
 760 430 760 430 776.5 424 c 128,-1,46
 793 418 793 418 793 398 c 2,47,-1
 793 134 l 1,48,-1
 821 134 l 2,49,50
 826 134 826 134 836.5 130.5 c 128,-1,51
 847 127 847 127 847 109 c 0,26,27
737 134 m 1,52,-1
 737 330 l 1,53,-1
 569 134 l 1,54,-1
 737 134 l 1,52,-1
EndSplineSet
Ligature2: "'frac' Diagonal Fractions in Latin lookup 0 subtable" one fraction four
Ligature2: "'frac' Diagonal Fractions in Latin lookup 0 subtable" one slash four
EndChar
StartChar: onehalf
Encoding: 189 189 127
Width: 888
VWidth: 1473
Flags: W
HStem: 0 52<620 836.212> 373 53<634.114 750.859>
VStem: 162 53<299.681 644> 529 56<272.184 307.375>
Fore
585 707 m 1,0,-1
 641 707 l 1,1,-1
 194 -12 l 1,2,-1
 140 -12 l 1,3,-1
 585 707 l 1,0,-1
162 314 m 2,4,-1
 162 644 l 1,5,-1
 88 617 l 2,6,7
 77 613 77 613 66.5 617.5 c 128,-1,8
 56 622 56 622 53 632 c 0,9,10
 49 644 49 644 53 652 c 128,-1,11
 57 660 57 660 68 666 c 1,12,-1
 178 709 l 1,13,14
 199 712 199 712 206 704 c 256,15,16
 214 697 214 697 214.5 686.5 c 128,-1,17
 215 676 215 676 215 673 c 2,18,-1
 215 314 l 2,19,20
 215 302 215 302 207.5 294 c 128,-1,21
 200 286 200 286 189 286 c 256,22,23
 177 286 177 286 169.5 294 c 128,-1,24
 162 302 162 302 162 314 c 2,4,-1
850 27 m 0,25,26
 850 15 850 15 842 7.5 c 128,-1,27
 834 0 834 0 821 0 c 2,28,-1
 551 0 l 2,29,30
 530 0 530 0 523.5 17.5 c 128,-1,31
 517 35 517 35 533 52 c 2,32,-1
 561 74 l 2,33,34
 582 90 582 90 627 126 c 128,-1,35
 672 162 672 162 754 231 c 0,36,37
 778 252 778 252 783 276.5 c 128,-1,38
 788 301 788 301 778.5 322 c 128,-1,39
 769 343 769 343 747 358 c 128,-1,40
 725 373 725 373 695 373 c 0,41,42
 661 373 661 373 640 365.5 c 128,-1,43
 619 358 619 358 607 345.5 c 128,-1,44
 595 333 595 333 590.5 316 c 128,-1,45
 586 299 586 299 585 280 c 0,46,47
 585 268 585 268 576 262 c 128,-1,48
 567 256 567 256 557 256 c 256,49,50
 547 256 547 256 538 265 c 128,-1,51
 529 274 529 274 529 284 c 0,52,53
 542 426 542 426 695 426 c 0,54,55
 742 426 742 426 777.5 401.5 c 128,-1,56
 813 377 813 377 828.5 341 c 128,-1,57
 844 305 844 305 836 264.5 c 128,-1,58
 828 224 828 224 788 192 c 2,59,60
 768 175 l 2,61,62
 748 158 748 158 721 135.5 c 128,-1,63
 694 113 694 113 666 89.5 c 128,-1,64
 638 66 638 66 620 52 c 1,65,-1
 821 52 l 2,66,67
 826 52 826 52 838 49 c 128,-1,68
 850 46 850 46 850 27 c 0,25,26
EndSplineSet
Ligature2: "'frac' Diagonal Fractions in Latin lookup 0 subtable" one fraction two
Ligature2: "'frac' Diagonal Fractions in Latin lookup 0 subtable" one slash two
EndChar
StartChar: threequarters
Encoding: 190 190 128
Width: 886
VWidth: 1473
Flags: W
HStem: -4 21G<218 285.406 753 764.5> 85 52<564 732 788 830.65> 283 54<143.777 236.736> 489 55<141.573 225 225 230> 659 53<118.889 244.603>
VStem: 41 52<362.168 429.897 583.573 636.997> 278 56<359.147 455.912> 732 56<15.2396 85 137 333>
Fore
664 715 m 1,0,-1
 719 715 l 1,1,-1
 273 -4 l 1,2,-1
 218 -4 l 1,3,-1
 664 715 l 1,0,-1
334 407 m 0,4,5
 334 380 334 380 321.5 357 c 128,-1,6
 309 334 309 334 288.5 317.5 c 128,-1,7
 268 301 268 301 243 292 c 128,-1,8
 218 283 218 283 192 283 c 0,9,10
 171 283 171 283 144.5 291 c 128,-1,11
 118 299 118 299 95 315 c 128,-1,12
 72 331 72 331 56.5 356.5 c 128,-1,13
 41 382 41 382 41 415 c 0,14,15
 41 427 41 427 48 435 c 128,-1,16
 55 443 55 443 66 443 c 0,17,18
 93 443 93 443 93 415 c 0,19,20
 93 373 93 373 124.5 355 c 128,-1,21
 156 337 156 337 192 337 c 0,22,23
 224 337 224 337 251 355 c 128,-1,24
 278 373 278 373 278 407 c 0,25,26
 278 433 278 433 271 449.5 c 128,-1,27
 264 466 264 466 254.5 474.5 c 128,-1,28
 245 483 245 483 236 486 c 128,-1,29
 227 489 227 489 224 489 c 1,30,-1
 225 489 l 1,31,-1
 155 489 l 2,32,33
 144 489 144 489 136 496.5 c 128,-1,34
 128 504 128 504 128 516 c 256,35,36
 128 527 128 527 135.5 535.5 c 128,-1,37
 143 544 143 544 155 544 c 2,38,-1
 230 544 l 1,39,40
 249 547 249 547 258 566 c 128,-1,41
 267 585 267 585 264 604 c 0,42,43
 261 625 261 625 242.5 642 c 128,-1,44
 224 659 224 659 192 659 c 0,45,46
 150 659 150 659 123 643.5 c 128,-1,47
 96 628 96 628 96 597 c 0,48,49
 96 585 96 585 88.5 577.5 c 128,-1,50
 81 570 81 570 69 570 c 0,51,52
 59 570 59 570 51.5 578 c 128,-1,53
 44 586 44 586 44 597 c 0,54,55
 44 651 44 651 84.5 681.5 c 128,-1,56
 125 712 125 712 192 712 c 0,57,58
 243 712 243 712 275.5 681.5 c 128,-1,59
 308 651 308 651 315 616 c 0,60,61
 321 588 321 588 309.5 560 c 128,-1,62
 298 532 298 532 274 516 c 1,63,64
 295 504 295 504 314.5 478 c 128,-1,65
 334 452 334 452 334 407 c 0,4,5
843 110 m 0,66,67
 843 99 843 99 835.5 92 c 128,-1,68
 828 85 828 85 816 85 c 2,69,-1
 788 85 l 1,70,-1
 788 28 l 2,71,72
 788 16 788 16 779 8.5 c 128,-1,73
 770 1 770 1 759 1 c 256,74,75
 747 1 747 1 739.5 9.5 c 128,-1,76
 732 18 732 18 732 28 c 2,77,-1
 732 85 l 1,78,-1
 507 85 l 2,79,80
 498 85 498 85 491.5 89.5 c 128,-1,81
 485 94 485 94 482 101 c 128,-1,82
 479 108 479 108 479.5 115 c 128,-1,83
 480 122 480 122 486 128 c 2,84,-1
 741 421 l 1,85,86
 756 433 756 433 772 426.5 c 128,-1,87
 788 420 788 420 788 401 c 2,88,-1
 788 137 l 1,89,-1
 816 137 l 2,90,91
 822 137 822 137 832.5 133.5 c 128,-1,92
 843 130 843 130 843 110 c 0,66,67
732 137 m 1,93,-1
 732 333 l 1,94,-1
 564 137 l 1,95,-1
 732 137 l 1,93,-1
EndSplineSet
Ligature2: "'frac' Diagonal Fractions in Latin lookup 0 subtable" three fraction four
Ligature2: "'frac' Diagonal Fractions in Latin lookup 0 subtable" three slash four
EndChar
StartChar: questiondown
Encoding: 191 191 129
Width: 615
VWidth: 1473
Flags: W
HStem: -233 55<247.957 417.848> 415 105<339.986 413.53>
VStem: 74 56<-99.3035 40.2393> 324 105<430.986 505.045> 351 54<277.811 373.375>
Fore
74 -16 m 256,0,1
 74 37 74 37 97.5 80.5 c 128,-1,2
 121 124 121 124 164 149 c 0,3,4
 190 164 190 164 208.5 170.5 c 128,-1,5
 227 177 227 177 241.5 181.5 c 128,-1,6
 256 186 256 186 271 191 c 128,-1,7
 286 196 286 196 303 208 c 0,8,9
 327 224 327 224 339 252 c 128,-1,10
 351 280 351 280 351 306 c 2,11,-1
 351 334 l 2,12,13
 351 374 351 374 377 374 c 0,14,15
 405 374 405 374 405 334 c 2,16,-1
 405 306 l 2,17,18
 405 259 405 259 387.5 224.5 c 128,-1,19
 370 190 370 190 324 162 c 0,20,21
 305 150 305 150 286 143.5 c 128,-1,22
 267 137 267 137 248.5 131 c 128,-1,23
 230 125 230 125 211 117 c 128,-1,24
 192 109 192 109 174 91 c 0,25,26
 152 71 152 71 141 42 c 128,-1,27
 130 13 130 13 130 -16 c 0,28,29
 130 -65 130 -65 147.5 -96.5 c 128,-1,30
 165 -128 165 -128 192.5 -146 c 128,-1,31
 220 -164 220 -164 253 -171 c 128,-1,32
 286 -178 286 -178 318 -178 c 0,33,34
 436 -178 436 -178 499 -84 c 0,35,36
 507 -74 507 -74 518.5 -74.5 c 128,-1,37
 530 -75 530 -75 539 -84 c 0,38,39
 548 -91 548 -91 548 -102 c 128,-1,40
 548 -113 548 -113 541 -124 c 0,41,42
 502 -175 502 -175 447.5 -204 c 128,-1,43
 393 -233 393 -233 321 -233 c 0,44,45
 267 -233 267 -233 222 -219 c 128,-1,46
 177 -205 177 -205 143.5 -177.5 c 128,-1,47
 110 -150 110 -150 92 -109.5 c 128,-1,48
 74 -69 74 -69 74 -16 c 256,0,1
324 468 m 256,49,50
 324 491 324 491 339.5 505.5 c 128,-1,51
 355 520 355 520 377 520 c 256,52,53
 399 520 399 520 414 505.5 c 128,-1,54
 429 491 429 491 429 468 c 256,55,56
 429 446 429 446 414 430.5 c 128,-1,57
 399 415 399 415 377 415 c 256,58,59
 355 415 355 415 339.5 430.5 c 128,-1,60
 324 446 324 446 324 468 c 256,49,50
EndSplineSet
EndChar
StartChar: Aring
Encoding: 197 197 134
Width: 726
VWidth: 1473
Flags: W
HStem: 666 56<239.189 490.413> 768 39<323.489 399.531> 902 41<323.956 399.531>
VStem: 60 56<0.625 40 462.5 477.423 477.423 481.044 481.044 499 510 546.704> 275 37<818.355 890.739> 410 38<817.442 891.683> 610 54<0.625 40 464 470.244 470.244 482.614 482.614 499 512 546.704>
Fore
364 943 m 0,0,1
 398 943 398 943 423 916.5 c 128,-1,2
 448 890 448 890 448 854 c 256,3,4
 448 819 448 819 423 793.5 c 128,-1,5
 398 768 398 768 364 768 c 0,6,7
 326 768 326 768 300.5 793.5 c 128,-1,8
 275 819 275 819 275 854 c 256,9,10
 275 890 275 890 300.5 916.5 c 128,-1,11
 326 943 326 943 364 943 c 0,0,1
364 807 m 0,12,13
 383 807 383 807 396.5 820.5 c 128,-1,14
 410 834 410 834 410 854 c 256,15,16
 410 875 410 875 396.5 888.5 c 128,-1,17
 383 902 383 902 364 902 c 0,18,19
 342 902 342 902 327 888.5 c 128,-1,20
 312 875 312 875 312 854 c 256,21,22
 312 834 312 834 327 820.5 c 128,-1,23
 342 807 342 807 364 807 c 0,12,13
664 445 m 1,24,25
 664 464 l 2,26,27
 664 483 664 483 658.5 512 c 128,-1,28
 653 541 653 541 640.5 573 c 128,-1,29
 628 605 628 605 601 635 c 0,30,31
 522 722 522 722 364 722 c 256,32,33
 206 722 206 722 127 635 c 0,34,35
 99 604 99 604 85 571 c 128,-1,36
 71 538 71 538 65.5 510 c 128,-1,37
 60 482 60 482 60 462.5 c 128,-1,38
 60 443 60 443 60 442 c 2,39,-1
 60 40 l 2,40,41
 60 0 60 0 88 0 c 0,42,43
 115 0 115 0 115 40 c 2,44,-1
 115 349 l 1,45,-1
 610 349 l 1,46,-1
 610 40 l 2,47,48
 610 0 610 0 638 0 c 0,49,50
 664 0 664 0 664 40 c 2,51,-1
 664 445 l 1,24,25
610 448 m 2,52,-1
 610 404 l 1,53,-1
 116 404 l 1,54,-1
 116 445 l 2,55,56
 116 446 116 446 116 461 c 128,-1,57
 116 476 116 476 120.5 499 c 128,-1,58
 125 522 125 522 135.5 547.5 c 128,-1,59
 146 573 146 573 168 597 c 0,60,61
 233 666 233 666 364 666 c 256,62,63
 495 666 495 666 558 598 c 0,64,65
 579 573 579 573 590 547.5 c 128,-1,66
 601 522 601 522 605 499 c 0,67,68
 611 473 611 473 610 448 c 2,52,-1
EndSplineSet
EndChar
StartChar: AE
Encoding: 198 198 135
Width: 1228
VWidth: 1473
Flags: W
HStem: -3 50<830.714 999.777> 330 55<116 610 666 1023.38> 666 56<239.189 481.829 831.238 999.619>
VStem: 60 56<0.625 330 385 477.423 477.423 481.044 481.044 499 510 546.704> 610 56<0.625 113 175.19 330 385 547.873>
Fore
115 330 m 1,0,-1
 115 40 l 2,1,2
 115 0 115 0 88 0 c 0,3,4
 60 0 60 0 60 40 c 2,5,-1
 60 442 l 2,6,7
 60 443 60 443 60 462.5 c 128,-1,8
 60 482 60 482 65.5 510 c 128,-1,9
 71 538 71 538 85 571 c 128,-1,10
 99 604 99 604 127 635 c 0,11,12
 206 722 206 722 364 722 c 0,13,14
 555 722 555 722 635 573 c 1,15,16
 654 608 654 608 683.5 636 c 128,-1,17
 713 664 713 664 748.5 683.5 c 128,-1,18
 784 703 784 703 822 712.5 c 128,-1,19
 860 722 860 722 897 722 c 0,20,21
 959 722 959 722 1006 711 c 128,-1,22
 1053 700 1053 700 1088 682 c 128,-1,23
 1123 664 1123 664 1145 641.5 c 128,-1,24
 1167 619 1167 619 1179 595 c 0,25,26
 1183 585 1183 585 1183 574 c 128,-1,27
 1183 563 1183 563 1173 557 c 0,28,29
 1162 550 1162 550 1150.5 552.5 c 128,-1,30
 1139 555 1139 555 1133 566 c 0,31,32
 1108 611 1108 611 1052 639 c 128,-1,33
 996 667 996 667 891 667 c 0,34,35
 849 667 849 667 808.5 651.5 c 128,-1,36
 768 636 768 636 736 610.5 c 128,-1,37
 704 585 704 585 685 549 c 128,-1,38
 666 513 666 513 666 470 c 2,39,-1
 666 385 l 1,40,-1
 984 385 l 2,41,42
 1024 385 1024 385 1024 358 c 0,43,44
 1024 330 1024 330 984 330 c 2,45,-1
 666 330 l 1,46,-1
 666 259 l 2,47,48
 666 212 666 212 685 174 c 128,-1,49
 704 136 704 136 736 108 c 128,-1,50
 768 80 768 80 808.5 63.5 c 128,-1,51
 849 47 849 47 891 47 c 0,52,53
 996 47 996 47 1052 75 c 128,-1,54
 1108 103 1108 103 1133 149 c 0,55,56
 1139 159 1139 159 1150.5 162 c 128,-1,57
 1162 165 1162 165 1173 158 c 0,58,59
 1183 152 1183 152 1183.5 141 c 128,-1,60
 1184 130 1184 130 1180 119 c 0,61,62
 1168 96 1168 96 1146 74 c 128,-1,63
 1124 52 1124 52 1089.5 35 c 128,-1,64
 1055 18 1055 18 1007 7.5 c 128,-1,65
 959 -3 959 -3 897 -3 c 0,66,67
 866 -3 866 -3 833.5 3.5 c 128,-1,68
 801 10 801 10 770.5 25 c 128,-1,69
 740 40 740 40 712.5 61 c 128,-1,70
 685 82 685 82 664 113 c 1,71,-1
 664 40 l 2,72,73
 664 0 664 0 638 0 c 0,74,75
 610 0 610 0 610 40 c 2,76,-1
 610 330 l 1,77,-1
 115 330 l 1,0,-1
610 463 m 2,78,79
 605 555 605 555 537.5 610.5 c 128,-1,80
 470 666 470 666 364 666 c 0,81,82
 233 666 233 666 168 597 c 0,83,84
 146 573 146 573 135.5 547.5 c 128,-1,85
 125 522 125 522 120.5 499 c 128,-1,86
 116 476 116 476 116 461 c 128,-1,87
 116 446 116 446 116 445 c 2,88,-1
 116 385 l 1,89,-1
 610 385 l 1,90,-1
 610 463 l 2,78,79
EndSplineSet
EndChar
StartChar: Eth
Encoding: 208 208 145
Width: 769
VWidth: 1473
Flags: W
HStem: 0 53<236.438 318.115 318.115 320.842 320.842 365.906> 334 49<1 90 144 340> 664 53<186.022 271 271 318.115 318.115 320.842 320.842 367.958>
VStem: 90 54<102.049 334 383 624.656> 644 54<239.329 475.943>
CounterMasks: 1 e0
Fore
1 383 m 1,0,-1
 90 383 l 1,1,-1
 90 567 l 2,2,3
 90 633 90 633 140 675 c 128,-1,4
 190 717 190 717 271 717 c 2,5,-1
 305 717 l 2,6,7
 308 717 308 717 337.5 716.5 c 128,-1,8
 367 716 367 716 409.5 707 c 128,-1,9
 452 698 452 698 501.5 676 c 128,-1,10
 551 654 551 654 595 613 c 0,11,12
 644 566 644 566 671 502.5 c 128,-1,13
 698 439 698 439 698 358 c 0,14,15
 698 278 698 278 671 214 c 128,-1,16
 644 150 644 150 595 103 c 0,17,18
 551 62 551 62 501.5 40.5 c 128,-1,19
 452 19 452 19 409.5 10 c 128,-1,20
 367 1 367 1 337.5 0.5 c 128,-1,21
 308 0 308 0 305 0 c 2,22,-1
 271 0 l 2,23,24
 245 0 245 0 213 8 c 128,-1,25
 181 16 181 16 154 34 c 128,-1,26
 127 52 127 52 108.5 80 c 128,-1,27
 90 108 90 108 90 149 c 2,28,-1
 90 334 l 1,29,-1
 1 334 l 1,30,-1
 1 383 l 1,0,-1
644 358 m 256,31,32
 644 427 644 427 620.5 481 c 128,-1,33
 597 535 597 535 557 573 c 0,34,35
 520 608 520 608 476.5 627.5 c 128,-1,36
 433 647 433 647 395.5 655 c 128,-1,37
 358 663 358 663 332 663.5 c 128,-1,38
 306 664 306 664 305 664 c 2,39,-1
 271 664 l 2,40,41
 215 664 215 664 180.5 638.5 c 128,-1,42
 146 613 146 613 144 570 c 2,43,-1
 144 383 l 1,44,-1
 340 383 l 1,45,-1
 340 334 l 1,46,-1
 144 334 l 1,47,-1
 144 147 l 2,48,49
 144 119 144 119 157.5 101.5 c 128,-1,50
 171 84 171 84 190 73 c 128,-1,51
 209 62 209 62 231 57.5 c 128,-1,52
 253 53 253 53 271 53 c 2,53,-1
 305 53 l 2,54,55
 306 53 306 53 332 54 c 128,-1,56
 358 55 358 55 395.5 63 c 128,-1,57
 433 71 433 71 476.5 89.5 c 128,-1,58
 520 108 520 108 557 143 c 0,59,60
 597 181 597 181 620.5 235 c 128,-1,61
 644 289 644 289 644 358 c 256,31,32
EndSplineSet
EndChar
StartChar: multiply
Encoding: 215 215 152
Width: 589
VWidth: 1473
Flags: W
HStem: 52 397<97 99 99 99>
VStem: 97 395<52 53 52 52>
Fore
108 402 m 2,0,1
 78 429 78 429 99 449 c 0,2,3
 118 468 118 468 147 442 c 2,4,-1
 295 290 l 1,5,-1
 440 442 l 2,6,7
 470 468 470 468 489 449 c 0,8,9
 510 429 510 429 480 402 c 2,10,-1
 333 250 l 1,11,-1
 483 100 l 2,12,13
 513 74 513 74 492 53 c 0,14,15
 473 32 473 32 443 60 c 2,16,-1
 293 211 l 1,17,-1
 146 59 l 2,18,19
 116 31 116 31 97 52 c 0,20,21
 77 72 77 72 106 99 c 2,22,-1
 255 250 l 1,23,-1
 108 402 l 2,0,1
EndSplineSet
EndChar
StartChar: Oslash
Encoding: 216 216 153
Width: 798
VWidth: 1473
Flags: W
HStem: -7 57<278.961 517.524> 664 58<281.154 482.071>
VStem: 46 57<229.592 479.815> 697 57<234.203 480.511>
Fore
205 -7 m 2,0,1
 180 -53 180 -53 155 -40 c 256,2,3
 130 -27 130 -27 158 19 c 2,4,-1
 183 62 l 1,5,6
 119 109 119 109 82.5 185 c 128,-1,7
 46 261 46 261 46 357 c 0,8,9
 46 438 46 438 72.5 505.5 c 128,-1,10
 99 573 99 573 146 621 c 128,-1,11
 193 669 193 669 258 695.5 c 128,-1,12
 323 722 323 722 399 722 c 0,13,14
 477 722 477 722 545 694 c 1,15,-1
 570 737 l 2,16,17
 600 784 600 784 622 768 c 1,18,19
 647 754 647 754 619 710 c 2,20,-1
 595 667 l 1,21,22
 670 620 670 620 712 539 c 128,-1,23
 754 458 754 458 754 357 c 0,24,25
 754 275 754 275 728.5 208 c 128,-1,26
 703 141 703 141 655.5 93.5 c 128,-1,27
 608 46 608 46 542.5 19.5 c 128,-1,28
 477 -7 477 -7 399 -7 c 0,29,30
 303 -7 303 -7 228 32 c 1,31,-1
 205 -7 l 2,0,1
697 357 m 0,32,33
 697 440 697 440 663 508.5 c 128,-1,34
 629 577 629 577 566 619 c 1,35,-1
 256 82 l 1,36,37
 320 50 320 50 399 50 c 0,38,39
 466 50 466 50 521 73 c 128,-1,40
 576 96 576 96 615 136.5 c 128,-1,41
 654 177 654 177 675.5 233 c 128,-1,42
 697 289 697 289 697 357 c 0,32,33
103 357 m 0,43,44
 103 274 103 274 132 212 c 128,-1,45
 161 150 161 150 211 112 c 1,46,-1
 516 642 l 1,47,48
 491 653 491 653 461.5 658.5 c 128,-1,49
 432 664 432 664 399 664 c 0,50,51
 331 664 331 664 276.5 640.5 c 128,-1,52
 222 617 222 617 183 576.5 c 128,-1,53
 144 536 144 536 123.5 479.5 c 128,-1,54
 103 423 103 423 103 357 c 0,43,44
EndSplineSet
EndChar
StartChar: Thorn
Encoding: 222 222 159
Width: 636
VWidth: 1473
Flags: W
HStem: 177 43<146 407.991> 542 50<146 395.875>
VStem: 93 53<-18.5215 177 220 542 592 730.521> 522 50<288.191 477.561>
Fore
355 592 m 2,0,1
 377 592 377 592 413 586 c 128,-1,2
 449 580 449 580 484.5 559 c 128,-1,3
 520 538 520 538 546 495 c 128,-1,4
 572 452 572 452 572 380 c 0,5,6
 572 326 572 326 552.5 287.5 c 128,-1,7
 533 249 533 249 504.5 224.5 c 128,-1,8
 476 200 476 200 440 188.5 c 128,-1,9
 404 177 404 177 371 177 c 2,10,-1
 146 177 l 1,11,-1
 146 21 l 2,12,13
 146 -19 146 -19 119 -19 c 256,14,15
 93 -19 93 -19 93 21 c 2,16,-1
 93 691 l 2,17,18
 93 731 93 731 119 731 c 256,19,20
 146 731 146 731 146 691 c 2,21,-1
 146 592 l 1,22,-1
 355 592 l 2,0,1
377 220 m 2,23,24
 435 220 435 220 478.5 260.5 c 128,-1,25
 522 301 522 301 522 377 c 0,26,27
 522 464 522 464 480.5 503 c 128,-1,28
 439 542 439 542 377 542 c 2,29,-1
 146 542 l 1,30,-1
 146 220 l 1,31,-1
 377 220 l 2,23,24
EndSplineSet
EndChar
StartChar: uni00DF
Encoding: 223 223 160
Width: 592
VWidth: 1473
Flags: W
HStem: 3 46<198.035 386.389> 451 45<199 335.829> 700.5 41.5<242.754 317.433>
VStem: 96 50<10.2642 598.906> 418 49<534.018 641.761> 498 46<162.251 329.292>
Fore
467 586 m 0,0,1
 467 541 467 541 442 507.5 c 128,-1,2
 417 474 417 474 393 468 c 1,3,4
 467 436 467 436 505.5 380 c 128,-1,5
 544 324 544 324 544 245 c 0,6,7
 544 194 544 194 528.5 151 c 128,-1,8
 513 108 513 108 484 74.5 c 128,-1,9
 455 41 455 41 413 22 c 128,-1,10
 371 3 371 3 320 3 c 2,11,-1
 209 3 l 2,12,13
 200 3 200 3 193.5 9 c 128,-1,14
 187 15 187 15 187 25 c 0,15,16
 187 34 187 34 193.5 41.5 c 128,-1,17
 200 49 200 49 209 49 c 2,18,-1
 308 49 l 2,19,20
 352 49 352 49 387.5 64.5 c 128,-1,21
 423 80 423 80 447 107 c 128,-1,22
 471 134 471 134 484.5 171 c 128,-1,23
 498 208 498 208 498 249 c 0,24,25
 496 290 496 290 479.5 327 c 128,-1,26
 463 364 463 364 435 391 c 128,-1,27
 407 418 407 418 370 434.5 c 128,-1,28
 333 451 333 451 292 451 c 2,29,-1
 199 451 l 1,30,-1
 199 496 l 1,31,-1
 296 496 l 2,32,33
 315 496 315 496 336.5 498.5 c 128,-1,34
 358 501 358 501 375.5 509 c 128,-1,35
 393 517 393 517 405 533.5 c 128,-1,36
 417 550 417 550 418 577 c 0,37,38
 420 619 420 619 403 642.5 c 128,-1,39
 386 666 386 666 365 679 c 0,40,41
 349 689 349 689 328.5 694.5 c 128,-1,42
 308 700 308 700 285 700.5 c 128,-1,43
 262 701 262 701 240 696.5 c 128,-1,44
 218 692 218 692 202 682 c 0,45,46
 194 678 194 678 184.5 670.5 c 128,-1,47
 175 663 175 663 166.5 649 c 128,-1,48
 158 635 158 635 152 611.5 c 128,-1,49
 146 588 146 588 146 551 c 2,50,-1
 146 21 l 2,51,52
 146 12 146 12 139.5 5.5 c 128,-1,53
 133 -1 133 -1 121 -1 c 0,54,55
 112 -1 112 -1 104 5.5 c 128,-1,56
 96 12 96 12 96 21 c 2,57,-1
 96 560 l 2,58,59
 96 636 96 636 141.5 689 c 128,-1,60
 187 742 187 742 275 742 c 0,61,62
 370 742 370 742 418.5 701 c 128,-1,63
 467 660 467 660 467 586 c 0,0,1
EndSplineSet
EndChar
StartChar: ae
Encoding: 230 230 167
Width: 1103
VWidth: 1473
Flags: W
HStem: -7 50<171.899 377.632 678.383 906.642> 236 56<573 992.295> 303 55<222.718 398.746> 471 58<204.718 416.575 687.616 902.49>
VStem: 505 67<154.188 171 171 207.098>
Fore
980 127 m 0,0,1
 991 138 991 138 1003 142 c 128,-1,2
 1015 146 1015 146 1027 137 c 0,3,4
 1036 130 1036 130 1035 114.5 c 128,-1,5
 1034 99 1034 99 1025 91 c 1,6,7
 989 44 989 44 931.5 17.5 c 128,-1,8
 874 -9 874 -9 794 -9 c 0,9,10
 709 -9 709 -9 650 23 c 128,-1,11
 591 55 591 55 552 112 c 1,12,13
 526 74 526 74 496 51 c 128,-1,14
 466 28 466 28 432.5 14.5 c 128,-1,15
 399 1 399 1 364 -3 c 128,-1,16
 329 -7 329 -7 292 -7 c 0,17,18
 218 -7 218 -7 170 10 c 128,-1,19
 122 27 122 27 94 53.5 c 128,-1,20
 66 80 66 80 55 111.5 c 128,-1,21
 44 143 44 143 46 172 c 0,22,23
 50 259 50 259 118 308.5 c 128,-1,24
 186 358 186 358 306 358 c 0,25,26
 355 357 355 357 396 346 c 0,27,28
 432 337 432 337 465.5 318 c 128,-1,29
 499 299 499 299 513 265 c 1,30,31
 523 374 523 374 462 422.5 c 128,-1,32
 401 471 401 471 289 471 c 0,33,34
 237 471 237 471 199 460 c 128,-1,35
 161 449 161 449 122 429 c 0,36,37
 112 423 112 423 98.5 421.5 c 128,-1,38
 85 420 85 420 78 429 c 0,39,40
 71 436 71 436 72.5 448.5 c 128,-1,41
 74 461 74 461 91 471 c 0,42,43
 125 494 125 494 173 511.5 c 128,-1,44
 221 529 221 529 292 529 c 0,45,46
 389 529 389 529 453 497.5 c 128,-1,47
 517 466 517 466 551 393 c 1,48,49
 583 449 583 449 643 489 c 128,-1,50
 703 529 703 529 794 529 c 0,51,52
 877 529 877 529 926 503 c 128,-1,53
 975 477 975 477 1000 452 c 0,54,55
 1042 408 1042 408 1052 368.5 c 128,-1,56
 1062 329 1062 329 1052.5 299.5 c 128,-1,57
 1043 270 1043 270 1020 253 c 128,-1,58
 997 236 997 236 972 236 c 2,59,-1
 572 236 l 1,60,61
 589 49 589 49 794 49 c 0,62,63
 862 49 862 49 907.5 71 c 128,-1,64
 953 93 953 93 980 127 c 0,0,1
794 470 m 0,65,66
 728 470 728 470 686 448.5 c 128,-1,67
 644 427 644 427 619.5 398.5 c 128,-1,68
 595 370 595 370 585 339.5 c 128,-1,69
 575 309 575 309 573 292 c 1,70,-1
 971 292 l 2,71,72
 986 292 986 292 992.5 305 c 128,-1,73
 999 318 999 318 997.5 337.5 c 128,-1,74
 996 357 996 357 987 377.5 c 128,-1,75
 978 398 978 398 961 412 c 0,76,77
 940 432 940 432 901.5 451 c 128,-1,78
 863 470 863 470 794 470 c 0,65,66
505 171 m 0,79,80
 507 194 507 194 498 218.5 c 128,-1,81
 489 243 489 243 466 261.5 c 128,-1,82
 443 280 443 280 404 291.5 c 128,-1,83
 365 303 365 303 303 303 c 0,84,85
 265 303 265 303 229 294.5 c 128,-1,86
 193 286 193 286 165 269.5 c 128,-1,87
 137 253 137 253 119.5 229 c 128,-1,88
 102 205 102 205 100 172 c 0,89,90
 96 108 96 108 150.5 75.5 c 128,-1,91
 205 43 205 43 298 43 c 0,92,93
 358 43 358 43 398 55.5 c 128,-1,94
 438 68 438 68 461.5 86.5 c 128,-1,95
 485 105 485 105 494.5 127.5 c 128,-1,96
 504 150 504 150 505 171 c 0,79,80
EndSplineSet
EndChar
StartChar: eth
Encoding: 240 240 177
Width: 667
VWidth: 1473
Flags: W
HStem: -12 56<245.858 430.254> 460 57<226.169 396.348> 610 21G<301.118 360.784> 717 40<242.872 298.641>
VStem: 44 56<184.633 336.404> 551 53<0.680664 84 206.986 243.942 243.942 346.777>
Fore
604 368 m 2,0,-1
 604 15 l 2,1,2
 604 3 604 3 596.5 -5 c 128,-1,3
 589 -13 589 -13 577 -13 c 256,4,5
 566 -13 566 -13 558.5 -5 c 128,-1,6
 551 3 551 3 551 15 c 2,7,-1
 551 84 l 1,8,9
 511 34 511 34 455 11 c 128,-1,10
 399 -12 399 -12 323 -12 c 0,11,12
 286 -12 286 -12 238 0.5 c 128,-1,13
 190 13 190 13 146.5 43.5 c 128,-1,14
 103 74 103 74 73.5 124.5 c 128,-1,15
 44 175 44 175 44 252 c 0,16,17
 44 303 44 303 64 351 c 128,-1,18
 84 399 84 399 120 436 c 128,-1,19
 156 473 156 473 207.5 495 c 128,-1,20
 259 517 259 517 323 517 c 0,21,22
 405 517 405 517 466 485.5 c 128,-1,23
 527 454 527 454 548 414 c 1,24,25
 542 452 542 452 528 488 c 128,-1,26
 514 524 514 524 493.5 554.5 c 128,-1,27
 473 585 473 585 448.5 608.5 c 128,-1,28
 424 632 424 632 398 647 c 1,29,-1
 317 610 l 1,30,-1
 290 644 l 1,31,-1
 357 673 l 1,32,33
 330 689 330 689 297.5 699.5 c 128,-1,34
 265 710 265 710 237 717 c 1,35,36
 227 723 227 723 224.5 731.5 c 128,-1,37
 222 740 222 740 226 746.5 c 128,-1,38
 230 753 230 753 238 756.5 c 128,-1,39
 246 760 246 760 258 757 c 0,40,41
 298 750 298 750 337 734.5 c 128,-1,42
 376 719 376 719 405 700 c 1,43,-1
 488 741 l 1,44,-1
 519 704 l 1,45,-1
 451 675 l 1,46,47
 517 631 517 631 560.5 552 c 128,-1,48
 604 473 604 473 604 368 c 2,0,-1
495 105 m 0,49,50
 516 127 516 127 527 152 c 128,-1,51
 538 177 538 177 542.5 199 c 128,-1,52
 547 221 547 221 547.5 235.5 c 128,-1,53
 548 250 548 250 548 252 c 0,54,55
 548 309 548 309 526.5 348 c 128,-1,56
 505 387 505 387 472 412.5 c 128,-1,57
 439 438 439 438 399 449 c 128,-1,58
 359 460 359 460 323 460 c 0,59,60
 271 460 271 460 230.5 443 c 128,-1,61
 190 426 190 426 160.5 397 c 128,-1,62
 131 368 131 368 115.5 330.5 c 128,-1,63
 100 293 100 293 100 252 c 0,64,65
 100 239 100 239 105 205 c 128,-1,66
 110 171 110 171 131.5 135.5 c 128,-1,67
 153 100 153 100 198 72 c 128,-1,68
 243 44 243 44 323 44 c 0,69,70
 380 44 380 44 423 59.5 c 128,-1,71
 466 75 466 75 495 105 c 0,49,50
EndSplineSet
EndChar
StartChar: divide
Encoding: 247 247 184
Width: 742
VWidth: 1473
Flags: W
HStem: 50 103<340.924 409.076> 249 66<68.4824 675.293> 414 105<342.408 410.592>
VStem: 327 96<65.9852 137.014 429.986 503.014>
Fore
424 466 m 0,0,1
 424 445 424 445 411 429.5 c 128,-1,2
 398 414 398 414 376 414 c 256,3,4
 354 414 354 414 340.5 429.5 c 128,-1,5
 327 445 327 445 327 466 c 0,6,7
 329 488 329 488 342 503.5 c 128,-1,8
 355 519 355 519 376 519 c 0,9,10
 398 519 398 519 411 503.5 c 128,-1,11
 424 488 424 488 424 466 c 0,0,1
423 100 m 0,12,13
 423 81 423 81 409.5 65.5 c 128,-1,14
 396 50 396 50 374 50 c 256,15,16
 352 50 352 50 339.5 65.5 c 128,-1,17
 327 81 327 81 327 100 c 0,18,19
 327 122 327 122 340.5 137.5 c 128,-1,20
 354 153 354 153 376 153 c 0,21,22
 396 153 396 153 409.5 137.5 c 128,-1,23
 423 122 423 122 423 100 c 0,12,13
660 315 m 2,24,25
 675 315 675 315 685 306.5 c 128,-1,26
 695 298 695 298 695 283 c 0,27,28
 695 270 695 270 685 259.5 c 128,-1,29
 675 249 675 249 660 249 c 2,30,-1
 82 249 l 2,31,32
 69 249 69 249 59.5 259.5 c 128,-1,33
 50 270 50 270 50 283 c 0,34,35
 50 298 50 298 59.5 306.5 c 128,-1,36
 69 315 69 315 82 315 c 2,37,-1
 660 315 l 2,24,25
EndSplineSet
EndChar
StartChar: oslash
Encoding: 248 248 185
Width: 639
VWidth: 1473
Flags: W
HStem: -6 47<288.119 366.366> 479 48<224.386 343.336 337.485 349.188 349.188 388.5>
VStem: 60 48<167.138 331.558> 532 49.5<210.306 360.983>
Fore
502 449 m 0,0,1
 541 411 541 411 560.5 362.5 c 128,-1,2
 580 314 580 314 581.5 261.5 c 128,-1,3
 583 209 583 209 563.5 159 c 128,-1,4
 544 109 544 109 502 68 c 0,5,6
 476 41 476 41 442 23.5 c 128,-1,7
 408 6 408 6 372 -1.5 c 128,-1,8
 336 -9 336 -9 298.5 -6 c 128,-1,9
 261 -3 261 -3 228 10 c 1,10,-1
 203 -40 l 2,11,12
 196 -57 196 -57 177 -50 c 0,13,14
 169 -47 169 -47 166.5 -39 c 128,-1,15
 164 -31 164 -31 168 -24 c 2,16,-1
 192 31 l 1,17,18
 130 63 130 63 95 126 c 128,-1,19
 60 189 60 189 60 259 c 0,20,21
 60 314 60 314 79.5 363 c 128,-1,22
 99 412 99 412 133.5 448.5 c 128,-1,23
 168 485 168 485 216 506 c 128,-1,24
 264 527 264 527 321 527 c 0,25,26
 343 527 343 527 365 523 c 128,-1,27
 387 519 387 519 408 511 c 1,28,-1
 432 561 l 2,29,30
 435 569 435 569 443.5 571 c 128,-1,31
 452 573 452 573 460 570 c 256,32,33
 467 567 467 567 470 559 c 128,-1,34
 473 551 473 551 470 544 c 2,35,-1
 448 494 l 1,36,37
 463 483 463 483 477 473 c 128,-1,38
 491 463 491 463 502 449 c 0,0,1
172 100 m 0,39,40
 189 82 189 82 211 71 c 1,41,-1
 389 467 l 1,42,43
 373 474 373 474 355 476.5 c 128,-1,44
 337 479 337 479 320 479 c 0,45,46
 267 479 267 479 227 460.5 c 128,-1,47
 187 442 187 442 160.5 411 c 128,-1,48
 134 380 134 380 121 340.5 c 128,-1,49
 108 301 108 301 108 259 c 0,50,51
 108 215 108 215 124 173 c 128,-1,52
 140 131 140 131 172 100 c 0,39,40
324 41 m 0,53,54
 395 41 395 41 445.5 81 c 128,-1,55
 496 121 496 121 519 179 c 128,-1,56
 542 237 542 237 532 302 c 128,-1,57
 522 367 522 367 471 417 c 0,58,59
 461 426 461 426 450 434 c 128,-1,60
 439 442 439 442 427 448 c 1,61,-1
 247 53 l 1,62,63
 265 49 265 49 285 45 c 128,-1,64
 305 41 305 41 324 41 c 0,53,54
EndSplineSet
EndChar
StartChar: thorn
Encoding: 254 254 191
Width: 677
VWidth: 1473
Flags: W
HStem: -16 51<309.221 405.375> 482 57<316.378 442.263>
VStem: 91 56<-230.406 99 424 736.391> 573 52<170.893 304.959>
Fore
357 539 m 0,0,1
 426 539 426 539 478 511 c 128,-1,2
 530 483 530 483 565 439 c 128,-1,3
 600 395 600 395 614.5 339.5 c 128,-1,4
 629 284 629 284 625 230 c 0,5,6
 619 178 619 178 598 134 c 128,-1,7
 577 90 577 90 542.5 56 c 128,-1,8
 508 22 508 22 459 3 c 128,-1,9
 410 -16 410 -16 348 -16 c 0,10,11
 323 -16 323 -16 292.5 -9.5 c 128,-1,12
 262 -3 262 -3 233.5 12 c 128,-1,13
 205 27 205 27 182 48 c 128,-1,14
 159 69 159 69 147 99 c 1,15,-1
 147 -193 l 2,16,17
 147 -231 147 -231 119 -231 c 256,18,19
 91 -231 91 -231 91 -193 c 2,20,-1
 91 698 l 2,21,22
 91 737 91 737 119 737 c 256,23,24
 147 737 147 737 147 698 c 2,25,-1
 147 424 l 1,26,27
 158 443 158 443 179 464 c 128,-1,28
 200 485 200 485 227.5 502 c 128,-1,29
 255 519 255 519 288 529 c 128,-1,30
 321 539 321 539 357 539 c 0,0,1
346 35 m 0,31,32
 396 32 396 32 438 47.5 c 128,-1,33
 480 63 480 63 509.5 94 c 128,-1,34
 539 125 539 125 556 169.5 c 128,-1,35
 573 214 573 214 573 270 c 0,36,37
 573 309 573 309 557 347.5 c 128,-1,38
 541 386 541 386 512 417 c 128,-1,39
 483 448 483 448 443.5 465.5 c 128,-1,40
 404 483 404 483 355 482 c 0,41,42
 311 479 311 479 273.5 463.5 c 128,-1,43
 236 448 236 448 208 422 c 128,-1,44
 180 396 180 396 162 363.5 c 128,-1,45
 144 331 144 331 140 295 c 0,46,47
 128 183 128 183 182 112 c 128,-1,48
 236 41 236 41 346 35 c 0,31,32
EndSplineSet
EndChar
StartChar: Lslash
Encoding: 321 321 193
Width: 671
VWidth: 1473
Flags: W
HStem: 0 53<164.02 647.406>
VStem: 91 58<70.5342 370 446 712.072>
Fore
610 53 m 2,0,1
 648 53 648 53 648 25 c 0,2,3
 648 0 648 0 610 0 c 2,4,-1
 212 0 l 2,5,6
 161 0 161 0 126 31 c 128,-1,7
 91 62 91 62 91 118 c 2,8,-1
 90 370 l 1,9,-1
 15 324 l 1,10,-1
 15 373 l 1,11,-1
 90 417 l 1,12,-1
 91 675 l 2,13,14
 91 713 91 713 119 713 c 0,15,16
 149 713 149 713 149 675 c 2,17,-1
 149 446 l 1,18,-1
 265 523 l 1,19,-1
 265 470 l 1,20,-1
 149 398 l 1,21,-1
 149 116 l 2,22,23
 147 87 147 87 163.5 70 c 128,-1,24
 180 53 180 53 214 53 c 2,25,-1
 610 53 l 2,0,1
EndSplineSet
EndChar
StartChar: lslash
Encoding: 322 322 194
Width: 238
VWidth: 1473
Flags: W
HStem: -1 21G<106 132.5> 827 20G<106 132.5>
VStem: 93 53<-0.533447 346 421 846.521>
Fore
225 471 m 1,0,-1
 225 421 l 1,1,-1
 146 373 l 1,2,-1
 146 38 l 2,3,4
 146 -1 146 -1 119 -1 c 256,5,6
 93 -1 93 -1 93 38 c 2,7,-1
 93 346 l 1,8,-1
 15 301 l 1,9,-1
 15 349 l 1,10,-1
 93 395 l 1,11,-1
 93 807 l 2,12,13
 93 847 93 847 119 847 c 256,14,15
 146 847 146 847 146 807 c 2,16,-1
 146 421 l 1,17,-1
 225 471 l 1,0,-1
EndSplineSet
EndChar
StartChar: OE
Encoding: 338 338 195
Width: 1286
VWidth: 1473
Flags: W
HStem: -7 57<279.368 488.235 907.04 1058.78> 330 55<725 1082.38> 664 58<278.071 488.877 888.425 1058.62>
VStem: 47 55<229.287 481.99> 666 59<234.753 330 385 474.733>
Fore
678 544 m 1,0,1
 691 589 691 589 720.5 623 c 128,-1,2
 750 657 750 657 789 679 c 128,-1,3
 828 701 828 701 871.5 711.5 c 128,-1,4
 915 722 915 722 956 722 c 0,5,6
 1018 722 1018 722 1065 711 c 128,-1,7
 1112 700 1112 700 1147 682 c 128,-1,8
 1182 664 1182 664 1204 641.5 c 128,-1,9
 1226 619 1226 619 1237 595 c 0,10,11
 1242 585 1242 585 1242 574 c 128,-1,12
 1242 563 1242 563 1232 557 c 0,13,14
 1221 550 1221 550 1209.5 552.5 c 128,-1,15
 1198 555 1198 555 1192 566 c 0,16,17
 1167 611 1167 611 1111 639 c 128,-1,18
 1055 667 1055 667 950 667 c 0,19,20
 907 667 907 667 866.5 653 c 128,-1,21
 826 639 826 639 794.5 613.5 c 128,-1,22
 763 588 763 588 744 553.5 c 128,-1,23
 725 519 725 519 725 476 c 2,24,-1
 725 385 l 1,25,-1
 1043 385 l 2,26,27
 1083 385 1083 385 1083 358 c 0,28,29
 1083 330 1083 330 1043 330 c 2,30,-1
 725 330 l 1,31,-1
 725 239 l 2,32,33
 725 192 725 192 744 156.5 c 128,-1,34
 763 121 763 121 794.5 96.5 c 128,-1,35
 826 72 826 72 866.5 59.5 c 128,-1,36
 907 47 907 47 950 47 c 0,37,38
 1055 47 1055 47 1111 75 c 128,-1,39
 1167 103 1167 103 1192 149 c 0,40,41
 1198 159 1198 159 1209.5 162 c 128,-1,42
 1221 165 1221 165 1232 158 c 0,43,44
 1242 152 1242 152 1242.5 141 c 128,-1,45
 1243 130 1243 130 1239 119 c 0,46,47
 1227 96 1227 96 1205 73 c 128,-1,48
 1183 50 1183 50 1148.5 32.5 c 128,-1,49
 1114 15 1114 15 1066 4 c 128,-1,50
 1018 -7 1018 -7 956 -7 c 0,51,52
 915 -7 915 -7 871.5 3 c 128,-1,53
 828 13 828 13 789 34 c 128,-1,54
 750 55 750 55 720.5 88 c 128,-1,55
 691 121 691 121 678 168 c 1,56,57
 635 85 635 85 559 39 c 128,-1,58
 483 -7 483 -7 383 -7 c 0,59,60
 312 -7 312 -7 250.5 19.5 c 128,-1,61
 189 46 189 46 144 93.5 c 128,-1,62
 99 141 99 141 73 208 c 128,-1,63
 47 275 47 275 47 357 c 256,64,65
 47 438 47 438 72 505.5 c 128,-1,66
 97 573 97 573 142 621 c 128,-1,67
 187 669 187 669 249 695.5 c 128,-1,68
 311 722 311 722 383 722 c 0,69,70
 485 722 485 722 560 674 c 128,-1,71
 635 626 635 626 678 544 c 1,0,1
666 357 m 0,72,73
 666 420 666 420 647 476.5 c 128,-1,74
 628 533 628 533 591.5 574.5 c 128,-1,75
 555 616 555 616 502 640 c 128,-1,76
 449 664 449 664 383 664 c 0,77,78
 318 664 318 664 266 640.5 c 128,-1,79
 214 617 214 617 177.5 576.5 c 128,-1,80
 141 536 141 536 121.5 479.5 c 128,-1,81
 102 423 102 423 102 357 c 0,82,83
 102 284 102 284 124 227.5 c 128,-1,84
 146 171 146 171 184 131 c 128,-1,85
 222 91 222 91 274 70.5 c 128,-1,86
 326 50 326 50 383 50 c 0,87,88
 446 50 446 50 498.5 73 c 128,-1,89
 551 96 551 96 588 136.5 c 128,-1,90
 625 177 625 177 645.5 233 c 128,-1,91
 666 289 666 289 666 357 c 0,72,73
EndSplineSet
EndChar
StartChar: oe
Encoding: 339 339 196
Width: 1152
VWidth: 1473
Flags: W
HStem: -9 58<728.837 948.648> 0 55<230.455 444.748> 236 56<614 1033.3> 476 54<231.357 425.858 741.579 938.024>
VStem: 49 51<173.387 357.154>
Fore
1068 138 m 1,0,1
 1077 130 1077 130 1077 114.5 c 128,-1,2
 1077 99 1077 99 1067 91 c 1,3,4
 1031 44 1031 44 973.5 17.5 c 128,-1,5
 916 -9 916 -9 837 -9 c 0,6,7
 744 -9 744 -9 677.5 29.5 c 128,-1,8
 611 68 611 68 580 138 c 1,9,10
 547 68 547 68 479.5 34 c 128,-1,11
 412 0 412 0 329 0 c 0,12,13
 271 0 271 0 220 17.5 c 128,-1,14
 169 35 169 35 131 70 c 128,-1,15
 93 105 93 105 71 154 c 128,-1,16
 49 203 49 203 49 265 c 0,17,18
 49 314 49 314 63.5 361 c 128,-1,19
 78 408 78 408 111 445.5 c 128,-1,20
 144 483 144 483 197 506.5 c 128,-1,21
 250 530 250 530 329 530 c 0,22,23
 421 530 421 530 486.5 490.5 c 128,-1,24
 552 451 552 451 583 382 c 1,25,26
 613 443 613 443 678.5 486 c 128,-1,27
 744 529 744 529 840 529 c 0,28,29
 924 529 924 529 971 504 c 128,-1,30
 1018 479 1018 479 1043 454 c 0,31,32
 1086 410 1086 410 1096 370 c 128,-1,33
 1106 330 1106 330 1097.5 300 c 128,-1,34
 1089 270 1089 270 1066.5 253 c 128,-1,35
 1044 236 1044 236 1024 236 c 2,36,-1
 613 236 l 1,37,38
 620 147 620 147 682.5 98 c 128,-1,39
 745 49 745 49 837 49 c 0,40,41
 903 49 903 49 949.5 71 c 128,-1,42
 996 93 996 93 1024 127 c 0,43,44
 1033 138 1033 138 1044.5 142.5 c 128,-1,45
 1056 147 1056 147 1068 138 c 1,0,1
557 273 m 2,46,47
 555 320 555 320 537 357.5 c 128,-1,48
 519 395 519 395 488.5 421.5 c 128,-1,49
 458 448 458 448 417 462 c 128,-1,50
 376 476 376 476 329 476 c 256,51,52
 281 476 281 476 240 462 c 128,-1,53
 199 448 199 448 168 421.5 c 128,-1,54
 137 395 137 395 118.5 356 c 128,-1,55
 100 317 100 317 100 265 c 0,56,57
 100 217 100 217 117 177.5 c 128,-1,58
 134 138 134 138 165 111 c 128,-1,59
 196 84 196 84 238 69.5 c 128,-1,60
 280 55 280 55 329 55 c 0,61,62
 404 55 404 55 449 79 c 128,-1,63
 494 103 494 103 517.5 137 c 128,-1,64
 541 171 541 171 548 206.5 c 128,-1,65
 555 242 555 242 557 265 c 2,66,-1
 557 273 l 2,46,47
1014 292 m 2,67,68
 1027 292 1027 292 1033.5 305 c 128,-1,69
 1040 318 1040 318 1038.5 337.5 c 128,-1,70
 1037 357 1037 357 1027.5 378 c 128,-1,71
 1018 399 1018 399 1002 414 c 0,72,73
 981 432 981 432 944 451.5 c 128,-1,74
 907 471 907 471 840 471 c 128,-1,75
 773 471 773 471 730.5 449 c 128,-1,76
 688 427 688 427 663 397 c 128,-1,77
 638 367 638 367 627 336.5 c 128,-1,78
 616 306 616 306 614 292 c 1,79,-1
 1014 292 l 2,67,68
EndSplineSet
EndChar
StartChar: florin
Encoding: 402 402 202
Width: 525
VWidth: 1473
Flags: W
HStem: -153 85<51.4402 95.0391> 398 41<155 262 317 415>
VStem: 36 459<-110.5 690 -110.5 -12.5>
Fore
390 675 m 0,0,1
 370 660 370 660 359 634 c 128,-1,2
 348 608 348 608 343 582 c 0,3,4
 342 573 342 573 339 555.5 c 128,-1,5
 336 538 336 538 333 517 c 128,-1,6
 330 496 330 496 325.5 475 c 128,-1,7
 321 454 321 454 317 438 c 1,8,-1
 426 438 l 1,9,-1
 415 396 l 1,10,-1
 312 396 l 1,11,12
 306 365 306 365 296 313.5 c 128,-1,13
 286 262 286 262 275 214 c 0,14,15
 262 156 262 156 249 94 c 0,16,17
 243 68 243 68 230.5 26 c 128,-1,18
 218 -16 218 -16 198 -56 c 128,-1,19
 178 -96 178 -96 151 -124.5 c 128,-1,20
 124 -153 124 -153 90 -153 c 0,21,22
 65 -153 65 -153 51 -140 c 128,-1,23
 37 -127 37 -127 36 -110.5 c 128,-1,24
 35 -94 35 -94 45.5 -81 c 128,-1,25
 56 -68 56 -68 80 -68 c 0,26,27
 91 -68 91 -68 96.5 -72.5 c 128,-1,28
 102 -77 102 -77 105.5 -82.5 c 128,-1,29
 109 -88 109 -88 112.5 -92 c 128,-1,30
 116 -96 116 -96 125 -96 c 1,31,32
 144 -84 144 -84 156 -59 c 128,-1,33
 168 -34 168 -34 177 -3.5 c 128,-1,34
 186 27 186 27 191 57 c 128,-1,35
 196 87 196 87 202 109 c 2,36,-1
 262 398 l 1,37,-1
 143 398 l 1,38,-1
 155 439 l 1,39,-1
 268 439 l 1,40,41
 281 501 281 501 298 558.5 c 128,-1,42
 315 616 315 616 345 670 c 0,43,44
 355 689 355 689 371 704 c 128,-1,45
 387 719 387 719 405 726.5 c 128,-1,46
 423 734 423 734 440.5 734 c 128,-1,47
 458 734 458 734 474 722 c 0,48,49
 495 707 495 707 495 690 c 128,-1,50
 495 673 495 673 484 663 c 128,-1,51
 473 653 473 653 455.5 652 c 128,-1,52
 438 651 438 651 423 669 c 0,53,54
 415 681 415 681 405.5 680 c 128,-1,55
 396 679 396 679 390 675 c 0,0,1
EndSplineSet
EndChar
StartChar: circumflex
Encoding: 710 710 203
Width: 472
VWidth: 1473
Flags: W
HStem: 682 147<218 353 218 218>
VStem: 99 280<697 717 707 707 707 707>
Fore
218 829 m 2,0,1
 240 852 240 852 261 829 c 2,2,-1
 371 725 l 2,3,4
 379 717 379 717 379 707 c 128,-1,5
 379 697 379 697 371 689 c 256,6,7
 364 682 364 682 353 682 c 128,-1,8
 342 682 342 682 334 689 c 2,9,-1
 239 781 l 1,10,-1
 141 689 l 2,11,12
 134 682 134 682 123.5 682 c 128,-1,13
 113 682 113 682 106 689 c 256,14,15
 99 697 99 697 99 707 c 128,-1,16
 99 717 99 717 106 725 c 2,17,-1
 218 829 l 2,0,1
EndSplineSet
EndChar
StartChar: caron
Encoding: 711 711 204
Width: 472
VWidth: 1473
Flags: W
HStem: 719 147<123.5 261 123.5 123.5>
VStem: 99 280<831 852 841.5 841.5 841.5 841.5>
Fore
106 824 m 2,0,1
 99 831 99 831 99 841.5 c 128,-1,2
 99 852 99 852 106 859 c 256,3,4
 113 866 113 866 123.5 866 c 128,-1,5
 134 866 134 866 141 859 c 2,6,-1
 239 768 l 1,7,-1
 334 859 l 2,8,9
 342 866 342 866 353 866 c 128,-1,10
 364 866 364 866 371 859 c 256,11,12
 379 852 379 852 379 841.5 c 128,-1,13
 379 831 379 831 371 824 c 2,14,-1
 261 719 l 2,15,16
 240 697 240 697 218 719 c 2,17,-1
 106 824 l 2,0,1
EndSplineSet
EndChar
StartChar: breve
Encoding: 728 728 205
Width: 441
VWidth: 1473
Flags: W
HStem: 619 48<170.786 286.16>
VStem: 63 52<717.392 778> 327 52<717.392 778>
Fore
379 778 m 1,0,1
 379 745 379 745 366.5 716.5 c 128,-1,2
 354 688 354 688 333 666 c 128,-1,3
 312 644 312 644 283.5 631.5 c 128,-1,4
 255 619 255 619 221 619 c 0,5,6
 189 619 189 619 159.5 631.5 c 128,-1,7
 130 644 130 644 109 666 c 128,-1,8
 88 688 88 688 75.5 716.5 c 128,-1,9
 63 745 63 745 63 778 c 1,10,-1
 115 778 l 1,11,12
 115 728 115 728 143.5 697.5 c 128,-1,13
 172 667 172 667 221 667 c 0,14,15
 271 667 271 667 299 697.5 c 128,-1,16
 327 728 327 728 327 778 c 1,17,-1
 379 778 l 1,0,1
EndSplineSet
EndChar
StartChar: dotaccent
Encoding: 729 729 206
Width: 232
VWidth: 1473
Flags: W
HStem: 628 106<78.986 153.014>
VStem: 63 106<643.986 718.014>
Fore
63 681 m 256,0,1
 63 703 63 703 78.5 718.5 c 128,-1,2
 94 734 94 734 116 734 c 256,3,4
 138 734 138 734 153.5 718.5 c 128,-1,5
 169 703 169 703 169 681 c 256,6,7
 169 659 169 659 153.5 643.5 c 128,-1,8
 138 628 138 628 116 628 c 256,9,10
 94 628 94 628 78.5 643.5 c 128,-1,11
 63 659 63 659 63 681 c 256,0,1
EndSplineSet
EndChar
StartChar: ring
Encoding: 730 730 207
Width: 409
VWidth: 1473
Flags: W
HStem: 591 42<171.948 241.691> 722 44<171.948 241.691>
VStem: 121 40<643.873 711.381> 252 41<643.404 711.381>
Fore
209 766 m 0,0,1
 243 766 243 766 268 739.5 c 128,-1,2
 293 713 293 713 293 678 c 256,3,4
 293 642 293 642 268 616.5 c 128,-1,5
 243 591 243 591 209 591 c 0,6,7
 171 591 171 591 146 616.5 c 128,-1,8
 121 642 121 642 121 678 c 256,9,10
 121 713 121 713 146 739.5 c 128,-1,11
 171 766 171 766 209 766 c 0,0,1
209 633 m 0,12,13
 225 633 225 633 238.5 646.5 c 128,-1,14
 252 660 252 660 252 678 c 256,15,16
 252 695 252 695 238.5 708.5 c 128,-1,17
 225 722 225 722 209 722 c 0,18,19
 189 722 189 722 175 708.5 c 128,-1,20
 161 695 161 695 161 678 c 256,21,22
 161 660 161 660 175 646.5 c 128,-1,23
 189 633 189 633 209 633 c 0,12,13
EndSplineSet
EndChar
StartChar: tilde
Encoding: 732 732 209
Width: 332
VWidth: 1473
Flags: W
HStem: 592 106<62 273 282.166 287.182>
Fore
62 592 m 1,0,-1
 24 592 l 1,1,2
 25 617 25 617 33 639 c 128,-1,3
 41 661 41 661 55 675 c 128,-1,4
 69 689 69 689 90.5 693 c 128,-1,5
 112 697 112 697 140 685 c 0,6,7
 143 684 143 684 153.5 679.5 c 128,-1,8
 164 675 164 675 176.5 670.5 c 128,-1,9
 189 666 189 666 199 661.5 c 128,-1,10
 209 657 209 657 212 656 c 0,11,12
 230 648 230 648 241 650.5 c 128,-1,13
 252 653 252 653 258.5 660 c 128,-1,14
 265 667 265 667 268 677.5 c 128,-1,15
 271 688 271 688 273 698 c 1,16,-1
 306 698 l 1,17,18
 306 659 306 659 293.5 637.5 c 128,-1,19
 281 616 281 616 263.5 607 c 128,-1,20
 246 598 246 598 227.5 599.5 c 128,-1,21
 209 601 209 601 197 605 c 0,22,23
 193 607 193 607 182 612 c 128,-1,24
 171 617 171 617 157.5 622.5 c 128,-1,25
 144 628 144 628 133 632 c 128,-1,26
 122 636 122 636 121 638 c 1,27,28
 106 644 106 644 95.5 640 c 128,-1,29
 85 636 85 636 78 628 c 128,-1,30
 71 620 71 620 67 610 c 128,-1,31
 63 600 63 600 62 592 c 1,0,-1
EndSplineSet
EndChar
StartChar: uni0E01
Encoding: 3585 3585 212
Width: 717
VWidth: 1473
Flags: W
HStem: 0 21G<188 208 611 623> 541 57<265.958 495.235>
VStem: 171 57<28 76.4539 76.4539 177.485 177.485 177.908 177.908 233.877 233.877 241.089 241.089 256.969> 588 57<15.7271 455.102>
Fore
645 29 m 2,0,1
 645 18 645 18 637 9 c 128,-1,2
 629 0 629 0 617 0 c 256,3,4
 605 0 605 0 596.5 9 c 128,-1,5
 588 18 588 18 588 29 c 2,6,-1
 588 349 l 2,7,8
 588 455 588 455 532.5 498 c 128,-1,9
 477 541 477 541 377 541 c 0,10,11
 311 541 311 541 266.5 521.5 c 128,-1,12
 222 502 222 502 195 475.5 c 128,-1,13
 168 449 168 449 154 421 c 128,-1,14
 140 393 140 393 134 376 c 1,15,16
 147 368 147 368 169.5 356.5 c 128,-1,17
 192 345 192 345 212 334 c 1,18,19
 228 352 228 352 255 364 c 0,20,21
 267 368 267 368 277 363.5 c 128,-1,22
 287 359 287 359 292 348 c 0,23,24
 298 336 298 336 293.5 325.5 c 128,-1,25
 289 315 289 315 277 311 c 0,26,27
 259 303 259 303 249 290 c 128,-1,28
 239 277 239 277 234.5 263.5 c 128,-1,29
 230 250 230 250 229 240 c 128,-1,30
 228 230 228 230 228 228 c 0,31,32
 225 177 225 177 226 127 c 128,-1,33
 227 77 227 77 228 29 c 0,34,35
 230 18 230 18 222 9 c 128,-1,36
 214 0 214 0 202 0 c 0,37,38
 174 0 174 0 171 28 c 0,39,40
 169 75 169 75 168.5 125 c 128,-1,41
 168 175 168 175 171 231 c 1,42,43
 172 236 172 236 173 251.5 c 128,-1,44
 174 267 174 267 181 286 c 1,45,-1
 136 309 l 2,46,47
 113 321 113 321 100 328.5 c 128,-1,48
 87 336 87 336 80.5 342 c 128,-1,49
 74 348 74 348 72.5 353 c 128,-1,50
 71 358 71 358 72 367 c 2,51,52
 76.5 384.5 l 2,53,54
 81 402 81 402 93 428 c 128,-1,55
 105 454 105 454 126 483.5 c 128,-1,56
 147 513 147 513 180.5 538.5 c 128,-1,57
 214 564 214 564 262.5 581 c 128,-1,58
 311 598 311 598 377 598 c 0,59,60
 507 598 507 598 576 538.5 c 128,-1,61
 645 479 645 479 645 348 c 2,62,-1
 645 29 l 2,0,1
EndSplineSet
EndChar
